<?xml version="1.0" encoding="UTF-8" standalone="no"?>
<svg width="100px" height="115px" viewBox="0 0 100 115" version="1.1" xmlns="http://www.w3.org/2000/svg" xmlns:xlink="http://www.w3.org/1999/xlink" xmlns:sketch="http://www.bohemiancoding.com/sketch/ns">
    <!-- Generator: Sketch 3.3.2 (12043) - http://www.bohemiancoding.com/sketch -->
    <title>fpo-avatar</title>
    <desc>Created with Sketch.</desc>
    <defs></defs>
    <g id="Page-1" stroke="none" stroke-width="1" fill="none" fill-rule="evenodd" sketch:type="MSPage">
        <g id="fpo-avatar" sketch:type="MSLayerGroup" fill="#DADFDE">
            <path d="M95.2380952,4.76190476 L4.76190476,4.76190476 L4.76190476,109.52381 L95.2380952,109.52381 L95.2380952,4.76190476 Z M100,2.38095238 L100,111.904762 C100,113.219048 98.9333333,114.285714 97.6190476,114.285714 L2.38095238,114.285714 C1.06666667,114.285714 0,113.219048 0,111.904762 L0,2.38095238 C0,1.06666667 1.06666667,0 2.38095238,0 L97.6190476,0 C98.9333333,0 100,1.06666667 100,2.38095238 L100,2.38095238 Z" id="Fill-166" sketch:type="MSShapeGroup"></path>
            <path d="M11.1514286,85.84 L38.0942857,76.8542857 L38.0942857,70.3828571 C36.327619,69.0209524 33.732381,65.8447619 33.3752381,58.8114286 C31.4038095,57.5066667 30.28,54.5971429 30.28,51.7590476 C30.28,50.1447619 30.6561905,48.7019048 31.3704762,47.5971429 C31.727619,47.04 32.1561905,46.5780952 32.6514286,46.2161905 C31.2847619,42.9828571 29.427619,38.3352381 31.4228571,35.3257143 C32.127619,34.2590476 33.6133333,32.9733333 36.5561905,33.1209524 C39.2371429,28.0495238 46.48,26.192381 52.38,26.192381 C59.0038095,26.192381 67.327619,28.5352381 68.98,35.1352381 C70.0990476,39.6352381 68.5752381,43.8257143 67.527619,46.2733333 C67.9752381,46.6257143 68.3704762,47.0638095 68.6942857,47.587619 C69.38,48.6733333 69.7419048,50.087619 69.7419048,51.6780952 C69.7419048,54.5495238 68.6133333,57.492381 66.6228571,58.8114286 C66.2704762,65.8447619 63.6752381,69.0209524 61.9038095,70.3828571 L61.9038095,76.8542857 L88.8466667,85.84 C89.8228571,86.1590476 90.4752381,87.0733333 90.4752381,88.0971429 L90.4752381,11.9066667 C90.4752381,10.592381 89.4133333,9.52571429 88.0942857,9.52571429 L11.9038095,9.52571429 C10.5895238,9.52571429 9.52285714,10.592381 9.52285714,11.9066667 L9.52285714,88.0971429 C9.52285714,87.0733333 10.18,86.1590476 11.1514286,85.84" id="Fill-167" sketch:type="MSShapeGroup"></path>
        </g>
    </g>
</svg>