<?xml version="1.0" encoding="UTF-8" standalone="no"?>
<svg width="813px" height="115px" viewBox="0 0 813 115" version="1.1" xmlns="http://www.w3.org/2000/svg" xmlns:xlink="http://www.w3.org/1999/xlink" xmlns:sketch="http://www.bohemiancoding.com/sketch/ns">
    <!-- Generator: Sketch 3.3.2 (12043) - http://www.bohemiancoding.com/sketch -->
    <title>banner__logo--white</title>
    <desc>Created with Sketch.</desc>
    <defs></defs>
    <g id="Page-1" stroke="none" stroke-width="1" fill="none" fill-rule="evenodd" sketch:type="MSPage">
        <g id="White" sketch:type="MSArtboardGroup" transform="translate(-74.000000, -82.000000)" fill="#FFFFFF">
            <g id="banner__logo--white" sketch:type="MSLayerGroup" transform="translate(74.000000, 82.000000)">
                <path d="M599.741194,62.361625 L605.196625,62.361625 L605.196625,19.253875 L599.741194,19.253875 L599.741194,62.361625 Z" id="Fill-1" sketch:type="MSShapeGroup"></path>
                <path d="M642.097633,68.8275 L812.097943,68.8275 L812.097943,0 L642.097633,0 L642.097633,68.8275 Z M668.662336,23.710125 L668.518696,23.710125 L660.765032,62.074125 L646.837739,62.074125 L658.754078,6.609625 L677.134198,6.609625 L688.475979,45.12025 L688.763258,45.12025 L696.516922,6.609625 L710.444216,6.609625 L698.671516,62.074125 L680.291396,62.074125 L668.662336,23.710125 L668.662336,23.710125 Z M743.897873,27.876 L748.3507,6.609625 L763.13983,6.609625 L751.651537,62.074125 L736.862406,62.074125 L741.746152,38.366875 L724.227869,38.366875 L719.203357,62.074125 L704.414226,62.074125 L715.899647,6.609625 L730.832417,6.609625 L726.382463,27.876 L743.897873,27.876 L743.897873,27.876 Z M789.98894,16.66925 C782.953473,16.66925 779.362484,18.391375 779.362484,21.985125 C779.362484,23.853875 782.953473,26.29475 790.13258,29.45725 C797.311686,32.616875 800.899802,37.360625 800.899802,43.68275 C800.899802,56.6145 791.856254,63.080375 773.763413,63.080375 C768.882541,63.080375 763.13983,62.074125 756.678922,60.20825 L760.123399,48.854875 C763.570749,51.011125 768.164343,52.017375 773.763413,52.017375 C781.660717,52.017375 785.682625,49.861125 785.682625,45.40775 C785.682625,42.964 782.091636,40.3765 774.91253,37.360625 C767.733424,34.341875 764.142435,30.03225 764.142435,24.285125 C764.142435,11.78175 772.327018,5.603375 788.839823,5.603375 C796.593488,5.603375 802.192558,6.465875 805.783548,8.047125 L802.192558,19.110125 C798.604442,17.528875 794.438894,16.66925 789.98894,16.66925 L789.98894,16.66925 Z" id="Fill-2" sketch:type="MSShapeGroup"></path>
                <path d="M604.62494,91.675125 L601.32123,92.681375 L601.32123,96.7035 L597.445834,96.7035 L597.445834,99.291 L601.32123,99.291 L601.32123,109.638125 C601.32123,113.08525 603.188544,114.81025 606.779534,114.81025 C607.638498,114.81025 608.500336,114.6665 609.505813,114.23525 L609.505813,111.506875 C608.931254,111.93525 608.213057,112.079 607.351219,112.079 C605.486777,112.079 604.62494,111.075625 604.62494,108.919375 L604.62494,99.291 L609.218534,99.291 L609.218534,96.7035 L604.62494,96.7035 L604.62494,91.675125" id="Fill-3" sketch:type="MSShapeGroup"></path>
                <path d="M182.350442,42.389 C182.350442,37.791875 183.783965,34.054375 186.656756,31.0385 C189.529548,28.01975 193.261304,26.58225 197.711258,26.58225 C200.44041,26.58225 203.313201,27.301 206.039481,28.88225 L206.470399,23.278875 C203.88776,22.128875 200.871329,21.553875 197.426852,21.553875 C191.25035,21.553875 186.225837,23.422625 182.350442,27.15725 C178.328534,31.0385 176.31758,35.923125 176.31758,42.1015 C176.31758,48.423625 178.328534,53.454875 182.206802,57.33325 C186.082198,61.211625 191.10671,63.080375 197.426852,63.080375 C201.302247,63.080375 204.318678,62.649125 206.614039,61.642875 L206.18312,56.0395 C204.031399,57.33325 201.158608,58.052 197.426852,58.052 C193.261304,58.052 189.673187,56.6145 186.800396,53.7395 C183.783965,50.723625 182.350442,46.986125 182.350442,42.389" id="Fill-4" sketch:type="MSShapeGroup"></path>
                <path d="M153.921297,33.479375 C151.048505,32.760625 148.750272,32.329375 147.17311,32.329375 C140.27841,32.329375 136.833933,35.348125 136.833933,41.38275 C136.833933,44.4015 138.988527,46.84525 143.294841,48.998625 C147.457516,51.154875 149.61211,52.879875 149.61211,54.45825 C149.61211,57.33325 147.744795,58.77075 144.013039,58.77075 C141.571166,58.77075 139.419445,58.052 137.408491,56.6145 L137.121212,61.499125 C139.132166,62.505375 141.858445,63.080375 145.162155,63.080375 C151.910343,63.080375 155.35482,60.0645 155.35482,53.886125 C155.35482,50.579875 153.203099,47.848625 149.037551,45.839 C144.731237,43.97025 142.576643,42.1015 142.576643,40.3765 C142.576643,37.935625 144.300318,36.785625 147.744795,36.785625 C150.043028,36.785625 151.910343,37.216875 153.490378,38.223125 L153.921297,33.479375" id="Fill-5" sketch:type="MSShapeGroup"></path>
                <path d="M225.855996,32.329375 C221.40317,32.329375 217.815053,33.766875 215.085901,36.641875 C212.356749,39.514 210.923226,43.2515 210.923226,47.704875 C210.923226,52.017375 212.356749,55.60825 215.085901,58.627 C217.958693,61.642875 221.546809,63.080375 225.855996,63.080375 C230.305951,63.080375 233.894067,61.642875 236.623219,58.627 C239.352371,55.60825 240.788767,52.017375 240.788767,47.704875 C240.788767,43.2515 239.352371,39.514 236.623219,36.641875 C233.894067,33.766875 230.305951,32.329375 225.855996,32.329375 L225.855996,32.329375 Z M235.043184,47.704875 C235.043184,55.03325 232.029625,58.77075 225.855996,58.77075 C219.679495,58.77075 216.665936,55.03325 216.665936,47.704875 C216.665936,40.3765 219.679495,36.785625 225.855996,36.785625 C232.029625,36.785625 235.043184,40.3765 235.043184,47.704875 L235.043184,47.704875 Z" id="Fill-6" sketch:type="MSShapeGroup"></path>
                <path d="M332.824389,33.048125 L332.824389,37.504375 L332.680749,37.504375 C330.957074,34.054375 327.797004,32.329375 323.05977,32.329375 C318.897095,32.329375 315.593385,34.054375 313.151512,37.360625 C310.999792,40.23275 309.994314,43.8265 309.994314,47.992375 C309.994314,57.62075 314.156989,62.361625 322.485212,62.361625 C326.65076,62.361625 329.951597,60.924125 332.24983,57.90825 L332.39347,57.90825 L332.39347,60.78325 C332.39347,67.536625 329.377039,70.84 323.347049,70.84 C320.330618,70.84 316.742502,69.9775 312.720594,68.111625 L312.148908,73.14 C316.167943,74.43375 319.615293,75.1525 322.628852,75.1525 C332.824389,75.1525 337.848901,70.40875 337.848901,61.07075 L337.848901,33.048125 L332.824389,33.048125 L332.824389,33.048125 Z M332.39347,48.136125 C332.39347,54.74575 329.520678,58.052 323.777968,58.052 C318.466177,58.052 315.737025,54.602 315.737025,47.704875 C315.737025,40.3765 318.466177,36.785625 323.777968,36.785625 C329.520678,36.785625 332.39347,40.52025 332.39347,48.136125 L332.39347,48.136125 Z" id="Fill-7" sketch:type="MSShapeGroup"></path>
                <path d="M264.621445,62.361625 L270.076876,62.361625 L270.076876,19.253875 L264.621445,19.253875 L264.621445,62.361625 Z" id="Fill-8" sketch:type="MSShapeGroup"></path>
                <path d="M248.683198,62.361625 L254.138629,62.361625 L254.138629,19.253875 L248.683198,19.253875 L248.683198,62.361625 Z" id="Fill-9" sketch:type="MSShapeGroup"></path>
                <path d="M420.550823,22.272625 L420.550823,39.08275 L401.455378,39.08275 L401.455378,22.272625 L395.712668,22.272625 L395.712668,62.361625 L401.455378,62.361625 L401.455378,44.114 L420.550823,44.114 L420.550823,62.361625 L426.296406,62.361625 L426.296406,22.272625 L420.550823,22.272625" id="Fill-10" sketch:type="MSShapeGroup"></path>
                <path d="M479.132788,32.329375 C472.240961,32.329375 468.796484,35.348125 468.796484,41.38275 C468.796484,44.4015 470.948205,46.84525 475.113753,48.998625 C479.276428,51.154875 481.431021,52.879875 481.431021,54.45825 C481.431021,57.33325 479.563707,58.77075 475.97559,58.77075 C473.677357,58.77075 471.379124,58.052 469.227403,56.6145 L468.940124,61.499125 C470.948205,62.505375 473.677357,63.080375 476.981067,63.080375 C483.729254,63.080375 487.173731,60.0645 487.173731,53.886125 C487.173731,50.579875 485.019138,47.848625 480.856463,45.839 C476.693788,43.97025 474.539194,42.1015 474.539194,40.3765 C474.539194,37.935625 476.262869,36.785625 479.707346,36.785625 C481.86194,36.785625 483.729254,37.216875 485.450057,38.223125 L485.880975,33.479375 C483.011057,32.760625 480.712823,32.329375 479.132788,32.329375" id="Fill-11" sketch:type="MSShapeGroup"></path>
                <path d="M460.037343,36.641875 C457.308191,33.766875 453.720074,32.329375 449.267247,32.329375 C444.817293,32.329375 441.229177,33.766875 438.500025,36.641875 C435.770873,39.514 434.33735,43.2515 434.33735,47.704875 C434.33735,52.017375 435.770873,55.60825 438.500025,58.627 C441.372816,61.642875 444.960933,63.080375 449.267247,63.080375 C453.720074,63.080375 457.308191,61.642875 460.037343,58.627 C462.766495,55.60825 464.200018,52.017375 464.200018,47.704875 C464.200018,43.2515 462.766495,39.514 460.037343,36.641875 L460.037343,36.641875 Z M449.267247,58.77075 C443.093618,58.77075 440.08006,55.03325 440.08006,47.704875 C440.08006,40.3765 443.093618,36.785625 449.267247,36.785625 C455.440876,36.785625 458.457307,40.3765 458.457307,47.704875 C458.457307,55.03325 455.440876,58.77075 449.267247,58.77075 L449.267247,58.77075 Z" id="Fill-12" sketch:type="MSShapeGroup"></path>
                <path d="M499.092943,37.216875 L498.946431,37.216875 L498.946431,33.048125 L493.778279,33.048125 L493.778279,74.43375 L499.236583,74.43375 L499.236583,58.3395 C501.244664,61.499125 504.548375,63.080375 508.998329,63.080375 C517.470191,63.080375 521.632866,57.7645 521.632866,47.273625 C521.632866,37.360625 517.470191,32.329375 508.998329,32.329375 C504.548375,32.329375 501.244664,33.910625 499.092943,37.216875 L499.092943,37.216875 Z M507.849212,58.77075 C502.106502,58.77075 499.236583,55.177 499.236583,47.848625 C499.236583,40.52025 502.106502,36.785625 507.849212,36.785625 C513.451155,36.785625 516.033795,40.3765 515.890155,47.561125 C516.033795,55.03325 513.451155,58.77075 507.849212,58.77075 L507.849212,58.77075 Z" id="Fill-13" sketch:type="MSShapeGroup"></path>
                <path d="M529.24289,26.58225 L535.27288,26.58225 L535.27288,20.403875 L529.24289,20.403875 L529.24289,26.58225 Z" id="Fill-14" sketch:type="MSShapeGroup"></path>
                <path d="M529.53017,62.361625 L534.985601,62.361625 L534.985601,33.048125 L529.53017,33.048125 L529.53017,62.361625 Z" id="Fill-15" sketch:type="MSShapeGroup"></path>
                <path d="M540.587544,33.048125 L540.587544,37.504375 L547.192092,37.504375 L547.192092,54.602 C547.192092,60.20825 550.20565,63.080375 556.23564,63.080375 C557.815675,63.080375 559.252071,62.792875 560.832106,62.217875 L560.832106,57.62075 C559.826629,58.3395 558.677512,58.77075 557.241117,58.77075 C554.227558,58.77075 552.647523,57.04575 552.647523,53.454875 L552.647523,37.504375 L560.401187,37.504375 L560.401187,33.048125 L552.647523,33.048125 L552.647523,24.572625 L547.192092,26.29475 L547.192092,33.048125 L540.587544,33.048125" id="Fill-16" sketch:type="MSShapeGroup"></path>
                <path d="M568.58577,35.204375 L568.873049,39.8015 C571.16841,37.791875 574.041201,36.785625 577.344912,36.785625 C582.082145,36.785625 584.524018,39.373125 584.524018,44.4015 L578.778435,44.25775 C569.734887,44.25775 565.28206,47.417375 565.28206,53.886125 C565.28206,60.0645 568.873049,63.080375 575.908516,63.080375 C579.783912,63.080375 582.943982,61.642875 585.098576,58.627 L585.098576,62.361625 L590.266728,62.361625 C590.123088,61.211625 589.979449,59.34575 589.979449,56.6145 L589.979449,44.54525 C589.979449,36.354375 586.10118,32.329375 578.203876,32.329375 C574.903039,32.329375 571.599329,33.335625 568.58577,35.204375 L568.58577,35.204375 Z M584.524018,48.423625 L584.524018,51.011125 C584.524018,56.18325 581.794866,58.77075 576.483074,58.77075 C572.892085,58.77075 571.02477,57.1895 571.02477,53.886125 C571.02477,50.148625 574.328481,48.279875 581.076668,48.279875 L584.524018,48.423625 L584.524018,48.423625 Z" id="Fill-17" sketch:type="MSShapeGroup"></path>
                <path d="M5.74271025,39.94525 L5.74271025,22.272625 L0,22.272625 L0,62.361625 L5.74271025,62.361625 L5.74271025,42.6765 L23.5482721,62.361625 L31.8764947,62.361625 L11.6290601,41.239 L30.4400989,22.272625 L22.8300742,22.272625 L5.74271025,39.94525" id="Fill-18" sketch:type="MSShapeGroup"></path>
                <path d="M38.0501237,62.361625 L43.5055548,62.361625 L43.5055548,33.048125 L38.0501237,33.048125 L38.0501237,62.361625 Z" id="Fill-19" sketch:type="MSShapeGroup"></path>
                <path d="M37.7628445,26.58225 L43.7928339,26.58225 L43.7928339,20.403875 L37.7628445,20.403875 L37.7628445,26.58225 Z" id="Fill-20" sketch:type="MSShapeGroup"></path>
                <path d="M58.5819647,33.048125 L53.4138127,33.048125 L53.4138127,62.361625 L58.8692438,62.361625 L58.8692438,48.854875 C58.8692438,40.80775 61.8828021,36.785625 67.7720247,36.785625 C71.9346996,37.073125 73.9456537,40.52025 73.9456537,47.273625 L73.9456537,62.361625 L79.2574452,62.361625 L79.2574452,44.9765 C79.2574452,36.498125 75.6664558,32.329375 68.3437102,32.329375 C63.606477,32.329375 60.3056396,34.198125 58.7256042,37.791875 L58.5819647,37.791875 L58.5819647,33.048125" id="Fill-21" sketch:type="MSShapeGroup"></path>
                <path d="M99.6456466,32.329375 C95.4829717,32.329375 92.1792615,34.054375 89.7402615,37.360625 C87.5856678,40.23275 86.5801908,43.8265 86.5801908,47.992375 C86.5801908,57.62075 90.7428657,62.361625 99.0710883,62.361625 C103.236636,62.361625 106.537473,60.924125 108.835707,57.90825 L108.979346,57.90825 L108.979346,60.78325 C108.979346,67.53375 105.962915,70.84 99.9329258,70.84 C96.9164947,70.84 93.3283781,69.9775 89.3093428,68.111625 L88.7347845,73.14 C92.7538198,74.43375 96.2011696,75.1525 99.2147279,75.1525 C109.410265,75.1525 114.434777,70.40875 114.434777,61.07075 L114.434777,33.048125 L109.410265,33.048125 L109.410265,37.504375 L109.266625,37.504375 C107.542951,34.054375 104.38288,32.329375 99.6456466,32.329375 L99.6456466,32.329375 Z M100.507484,58.052 C95.052053,58.052 92.3229011,54.602 92.3229011,47.704875 C92.3229011,40.3765 95.052053,36.785625 100.507484,36.785625 C106.106555,36.785625 108.979346,40.52025 108.979346,48.136125 C108.979346,54.74575 106.106555,58.052 100.507484,58.052 L100.507484,58.052 Z" id="Fill-22" sketch:type="MSShapeGroup"></path>
                <path d="M125.492152,22.272625 L121.901163,36.354375 L126.925675,36.354375 L131.95306,22.272625 L125.489279,22.272625 L125.492152,22.272625" id="Fill-23" sketch:type="MSShapeGroup"></path>
                <path d="M551.354767,93.256375 L551.354767,90.237625 L532.977519,90.237625 L532.977519,93.256375 L540.443905,93.256375 L540.443905,114.379 L543.888382,114.379 L543.888382,93.256375 L551.354767,93.256375" id="Fill-24" sketch:type="MSShapeGroup"></path>
                <path d="M565.4257,96.7035 L565.4257,107.194375 C565.4257,112.22275 567.580293,114.81025 572.030247,114.81025 C574.759399,114.81025 576.770353,113.66025 577.77583,111.506875 L577.916597,111.506875 L577.916597,114.379 L580.933028,114.379 L580.933028,96.7035 L577.77583,96.7035 L577.77583,104.894375 C577.77583,109.638125 576.052155,112.079 572.461166,112.079 C570.022166,111.93525 568.72941,109.925625 568.72941,105.900625 L568.72941,96.7035 L565.4257,96.7035" id="Fill-25" sketch:type="MSShapeGroup"></path>
                <path d="M560.113908,99.14725 L561.837583,99.43475 L561.837583,96.562625 L559.682989,96.275125 C557.528396,96.275125 556.094873,97.281375 555.089396,99.43475 L555.089396,96.7035 L552.072965,96.7035 L552.072965,114.379 L555.233035,114.379 L555.233035,106.331875 C555.233035,101.591 556.810198,99.14725 560.113908,99.14725" id="Fill-26" sketch:type="MSShapeGroup"></path>
                <path d="M594.860322,99.866 L595.147601,96.993875 C593.711205,96.562625 592.418449,96.275125 591.128565,96.275125 C586.963018,96.275125 584.954936,98.141 584.954936,101.73475 C584.954936,103.45975 586.24482,105.038125 588.830332,106.331875 C591.272205,107.625625 592.564961,108.631875 592.564961,109.638125 C592.564961,111.219375 591.415845,112.079 589.261251,112.079 C587.968495,112.079 586.532099,111.64775 585.242216,110.931875 L584.954936,113.804 C586.388459,114.52275 587.968495,114.81025 589.835809,114.81025 C593.998484,114.81025 596.009438,112.9415 596.009438,109.206875 C596.009438,107.194375 594.716682,105.613125 592.274809,104.319375 C589.69217,103.17225 588.399413,102.02225 588.399413,101.016 C588.399413,99.72225 589.40489,99.0035 591.415845,99.0035 C592.705728,99.0035 593.854845,99.291 594.860322,99.866" id="Fill-27" sketch:type="MSShapeGroup"></path>
                <path d="M500.382827,105.469375 C500.382827,99.291 497.369269,96.275125 491.339279,96.275125 C485.450057,96.275125 482.436498,99.291 482.436498,105.469375 C482.436498,111.64775 485.450057,114.81025 491.339279,114.81025 C497.369269,114.81025 500.382827,111.64775 500.382827,105.469375 L500.382827,105.469375 Z M496.79471,105.469375 C496.79471,109.925625 494.927396,112.079 491.339279,112.079 C487.74829,112.079 485.880975,109.925625 485.880975,105.469375 C485.880975,101.15975 487.74829,99.0035 491.339279,99.0035 C494.927396,99.0035 496.79471,101.15975 496.79471,105.469375 L496.79471,105.469375 Z" id="Fill-28" sketch:type="MSShapeGroup"></path>
                <path d="M507.131014,96.7035 L503.973816,96.7035 L503.973816,114.379 L507.274654,114.379 L507.274654,106.188125 C507.274654,101.44725 508.998329,99.0035 512.589318,99.0035 C515.028318,99.14725 516.321074,101.15975 516.321074,105.181875 L516.321074,114.379 L519.481145,114.379 L519.481145,103.888125 C519.481145,98.85975 517.326551,96.275125 512.876597,96.275125 C510.147445,96.275125 508.280131,97.42225 507.131014,99.5785 L507.131014,96.7035" id="Fill-29" sketch:type="MSShapeGroup"></path>
                <path d="M436.63271,88.5155 L433.331873,88.5155 L433.331873,99.14725 C432.039117,97.281375 430.171802,96.275125 427.44265,96.275125 C422.418138,96.275125 419.976265,99.291 419.976265,105.181875 C419.976265,111.64775 422.418138,114.81025 427.44265,114.81025 C430.171802,114.81025 432.182756,113.804 433.475512,111.7915 L433.475512,114.379 L436.63271,114.379 L436.63271,88.5155 L436.63271,88.5155 Z M423.423615,105.469375 C423.279975,101.15975 424.860011,99.0035 428.160848,99.0035 C431.608198,99.0035 433.331873,101.15975 433.331873,105.613125 C433.331873,109.925625 431.608198,112.079 428.160848,112.079 C424.860011,112.079 423.279975,109.925625 423.423615,105.469375 L423.423615,105.469375 Z" id="Fill-30" sketch:type="MSShapeGroup"></path>
                <path d="M447.546445,99.0035 C450.416364,99.0035 451.85276,100.58475 451.85276,103.6035 L448.408283,103.45975 C442.949979,103.45975 440.2237,105.325625 440.2237,109.206875 C440.2237,112.9415 442.37542,114.81025 446.684608,114.81025 C448.979968,114.81025 450.847283,113.94775 452.140039,112.079 L452.283678,112.079 L452.283678,114.379 L455.30011,114.379 L455.15647,103.6035 C455.15647,98.716 452.858237,96.275125 448.121004,96.275125 C446.253689,96.275125 444.242735,96.850125 442.231781,97.99725 L442.51906,100.7285 C443.811816,99.5785 445.535491,99.0035 447.546445,99.0035 L447.546445,99.0035 Z M451.85276,107.481875 C451.85276,110.500625 450.272724,112.079 446.971887,112.079 C444.817293,112.079 443.668177,111.075625 443.668177,109.206875 C443.668177,107.050625 445.679131,105.900625 449.841806,105.900625 L451.85276,105.900625 L451.85276,107.481875 L451.85276,107.481875 Z" id="Fill-31" sketch:type="MSShapeGroup"></path>
                <path d="M474.251915,92.825125 L477.840032,92.825125 L477.840032,89.0905 L474.251915,89.0905 L474.251915,92.825125 Z" id="Fill-32" sketch:type="MSShapeGroup"></path>
                <path d="M465.349134,91.675125 L462.048297,92.681375 L462.048297,96.7035 L458.170028,96.7035 L458.170028,99.291 L462.048297,99.291 L462.048297,109.638125 C462.048297,113.08525 463.912739,114.81025 467.503728,114.81025 C468.365565,114.81025 469.227403,114.6665 470.23288,114.23525 L470.23288,111.506875 C469.658322,111.93525 468.940124,112.079 468.078286,112.079 C466.210972,112.079 465.349134,111.075625 465.349134,108.919375 L465.349134,99.291 L469.945601,99.291 L469.945601,96.7035 L465.349134,96.7035 L465.349134,91.675125" id="Fill-33" sketch:type="MSShapeGroup"></path>
                <path d="M474.395555,114.379 L477.696392,114.379 L477.696392,96.7035 L474.395555,96.7035 L474.395555,114.379 Z" id="Fill-34" sketch:type="MSShapeGroup"></path>
                <path d="M369.438117,61.211625 L369.438117,55.752 C367.139883,57.7645 364.123452,58.77075 360.391696,58.77075 C353.930788,58.77075 350.770717,55.4645 350.770717,48.998625 L371.733477,48.998625 C371.733477,37.935625 367.427163,32.329375 358.811661,32.329375 C349.621601,32.329375 345.028007,37.360625 345.028007,47.273625 C345.028007,57.7645 350.052519,63.080375 360.248057,63.080375 C362.974336,63.080375 365.990767,62.505375 369.438117,61.211625 L369.438117,61.211625 Z M365.990767,44.9765 L350.770717,44.9765 C351.345276,39.514 353.930788,36.785625 358.668021,36.785625 C363.548894,36.785625 365.990767,39.514 365.990767,44.9765 L365.990767,44.9765 Z" id="Fill-35" sketch:type="MSShapeGroup"></path>
                <path d="M378.912583,96.7035 L378.912583,107.194375 C378.912583,112.22275 381.067177,114.81025 385.517131,114.81025 C388.389922,114.81025 390.257237,113.66025 391.262714,111.506875 L391.406353,111.506875 L391.406353,114.379 L394.563551,114.379 L394.563551,96.7035 L391.262714,96.7035 L391.262714,104.894375 C391.262714,109.638125 389.539039,112.079 385.948049,112.079 C383.509049,111.93525 382.216293,109.925625 382.216293,105.900625 L382.216293,96.7035 L378.912583,96.7035" id="Fill-36" sketch:type="MSShapeGroup"></path>
                <path d="M374.606269,105.469375 C374.606269,99.291 371.589837,96.275125 365.703488,96.275125 C359.817138,96.275125 356.800707,99.291 356.800707,105.469375 C356.800707,111.64775 359.817138,114.81025 365.703488,114.81025 C371.589837,114.81025 374.606269,111.64775 374.606269,105.469375 L374.606269,105.469375 Z M365.703488,99.0035 C369.294477,99.0035 371.158919,101.15975 371.158919,105.469375 C371.158919,109.925625 369.294477,112.079 365.703488,112.079 C362.115371,112.079 360.248057,109.925625 360.248057,105.469375 C360.248057,101.15975 362.115371,99.0035 365.703488,99.0035 L365.703488,99.0035 Z" id="Fill-37" sketch:type="MSShapeGroup"></path>
                <path d="M403.322693,106.188125 C403.322693,101.44725 405.046367,99.0035 408.634484,99.0035 C411.076357,99.14725 412.369113,101.15975 412.369113,105.181875 L412.369113,114.379 L415.526311,114.379 L415.526311,103.888125 C415.526311,98.85975 413.371717,96.275125 409.065403,96.275125 C406.336251,96.275125 404.32817,97.42225 403.179053,99.5785 L403.179053,96.7035 L400.018982,96.7035 L400.018982,114.379 L403.322693,114.379 L403.322693,106.188125" id="Fill-38" sketch:type="MSShapeGroup"></path>
                <path d="M325.788922,93.831375 L326.363481,90.668875 C324.639806,90.093875 322.916131,89.80925 321.192456,89.80925 C316.024304,89.80925 313.438792,91.962625 313.438792,96.418875 C313.438792,99.14725 315.162466,101.3035 318.609816,102.88475 C322.054293,104.463125 323.777968,106.188125 323.777968,107.769375 C323.777968,110.356875 322.197933,111.64775 319.040735,111.64775 C317.17342,111.64775 315.593385,111.219375 314.01335,110.500625 L313.726071,113.804 C316.167943,114.52275 317.891618,114.81025 318.609816,114.81025 C324.496166,114.81025 327.366085,112.3665 327.366085,107.625625 C327.366085,104.606875 325.645283,102.30975 322.197933,100.58475 C318.753456,98.85975 317.029781,97.42225 317.029781,96.131375 C317.029781,93.975125 318.466177,92.825125 321.336095,92.825125 C322.341572,92.825125 323.777968,93.112625 325.788922,93.831375" id="Fill-39" sketch:type="MSShapeGroup"></path>
                <path d="M353.930788,103.316 L353.930788,100.29725 L344.884367,100.29725 L344.884367,93.256375 L354.218067,93.256375 L354.218067,90.237625 L341.437018,90.237625 L341.437018,114.379 L344.884367,114.379 L344.884367,103.316 L353.930788,103.316" id="Fill-40" sketch:type="MSShapeGroup"></path>
                <path d="M277.97418,47.273625 C277.97418,57.7645 283.001565,63.080375 293.19423,63.080375 C295.923382,63.080375 298.93694,62.505375 302.38429,61.211625 L302.38429,55.752 C300.086057,57.7645 297.072498,58.77075 293.337869,58.77075 C286.876961,58.77075 283.719763,55.4645 283.719763,48.998625 L304.682523,48.998625 C304.682523,37.935625 300.373336,32.329375 291.757834,32.329375 C282.570647,32.329375 277.97418,37.360625 277.97418,47.273625 L277.97418,47.273625 Z M298.93694,44.9765 L283.719763,44.9765 C284.291449,39.514 286.876961,36.785625 291.614194,36.785625 C296.49794,36.785625 298.93694,39.514 298.93694,44.9765 L298.93694,44.9765 Z" id="Fill-41" sketch:type="MSShapeGroup"></path>
                <path d="M268.499714,94.550125 L268.643353,94.550125 L279.554216,114.379 L283.863403,114.379 L283.863403,90.237625 L280.416053,90.237625 L280.416053,109.638125 L269.789597,90.237625 L265.052364,90.237625 L265.052364,114.379 L268.499714,114.379 L268.499714,94.550125" id="Fill-42" sketch:type="MSShapeGroup"></path>
                <path d="M305.113442,100.29725 L293.625148,100.29725 L293.625148,90.237625 L290.180671,90.237625 L290.180671,114.379 L293.625148,114.379 L293.625148,103.316 L305.113442,103.316 L305.113442,114.379 L308.557919,114.379 L308.557919,90.237625 L305.113442,90.237625 L305.113442,100.29725" id="Fill-43" sketch:type="MSShapeGroup"></path>
            </g>
        </g>
    </g>
</svg>