<?xml version="1.0" encoding="UTF-8" standalone="no"?>
<svg width="66px" height="66px" viewBox="0 0 66 66" version="1.1" xmlns="http://www.w3.org/2000/svg" xmlns:xlink="http://www.w3.org/1999/xlink" xmlns:sketch="http://www.bohemiancoding.com/sketch/ns">
    <!-- Generator: Sketch 3.3.1 (12002) - http://www.bohemiancoding.com/sketch -->
    <title>Linkedin-blue</title>
    <desc>Created with Sketch.</desc>
    <defs></defs>
    <g id="Page-1" stroke="none" stroke-width="1" fill="none" fill-rule="evenodd" sketch:type="MSPage">
        <g id="Social-icons" sketch:type="MSArtboardGroup" transform="translate(-378.000000, -322.000000)">
            <g id="Linkedin-blue" sketch:type="MSLayerGroup" transform="translate(378.000000, 322.000000)">
                <rect id="Rectangle-2-Copy-3" fill="#1781A2" sketch:type="MSShapeGroup" x="0" y="0" width="66" height="66" rx="5"></rect>
                <path d="M15.8541076,26.3763905 L23.4665622,26.3763905 L23.4665622,50.0178868 L15.8541076,50.0178868 L15.8541076,26.3763905 Z M28.0411828,50.0178868 L28.0411828,31.7194044 L27.9160955,26.3763905 L35.4213324,26.3763905 L35.6715069,29.6465295 C36.4816001,28.4194767 37.4644189,27.4426143 38.6199929,26.7159132 C39.7755669,25.989212 41.0800355,25.6258668 42.5334378,25.6258668 C45.2734587,25.6258668 47.4833119,26.5640121 49.1630638,28.4403307 C50.8428157,30.3166493 51.682679,32.9345212 51.682679,36.294025 L51.682679,50.0178868 L44.0523548,50.0178868 L44.0523548,37.0624183 C44.0523548,35.2516219 43.668162,33.9084362 42.8997649,33.0328209 C42.1313677,32.1572055 41.1336577,31.7194044 39.9066049,31.7194044 C38.6914652,31.7194044 37.6818423,32.1155102 36.8777057,32.9077336 C36.0735692,33.699957 35.6715069,34.8287095 35.6715069,36.294025 L35.6715069,50.0178868 L28.0411828,50.0178868 Z M19.6245957,22.5701632 L19.5709868,22.5701632 C18.2486289,22.5701632 17.1705065,22.168101 16.3365871,21.3639645 C15.5026677,20.5598279 15.0857143,19.5621179 15.0857143,18.3708045 C15.0857143,17.167578 15.5116024,16.1698679 16.3633915,15.3776445 C17.2151806,14.5854211 18.3260637,14.1893154 19.6960741,14.1893154 C21.0422582,14.1893154 22.1293154,14.5854211 22.9572782,15.3776445 C23.785241,16.1698679 24.2111292,17.167578 24.2349555,18.3708045 C24.2349555,19.574031 23.8120456,20.5747193 22.966213,21.3728993 C22.1203805,22.1710792 21.0065192,22.5701632 19.6245957,22.5701632 L19.6245957,22.5701632 Z" id="linkedin" fill="#FFFFFF" sketch:type="MSShapeGroup"></path>
            </g>
        </g>
    </g>
</svg>