<?xml version="1.0" encoding="UTF-8" standalone="no"?>
<svg width="25px" height="24px" viewBox="0 0 25 24" version="1.1" xmlns="http://www.w3.org/2000/svg" xmlns:xlink="http://www.w3.org/1999/xlink" xmlns:sketch="http://www.bohemiancoding.com/sketch/ns">
    <!-- Generator: Sketch 3.3.1 (12002) - http://www.bohemiancoding.com/sketch -->
    <title>icon-link-external</title>
    <desc>Created with Sketch.</desc>
    <defs></defs>
    <g id="Page-1" stroke="none" stroke-width="1" fill="none" fill-rule="evenodd" sketch:type="MSPage">
        <g id="icon-link-external" sketch:type="MSLayerGroup" fill="#D85F81">
            <path d="M12.5313,22.0076 L12.5313,23.0076 L12.5113,22.0076 C9.8403,22.0026 7.3313,20.9576 5.4453,19.0656 C3.5613,17.1726 2.5253,14.6596 2.5313,11.9886 C2.5413,6.4856 7.0273,2.0076 12.5503,2.0076 C18.0643,2.0186 22.5413,6.5126 22.5313,12.0266 C22.5203,17.5296 18.0343,22.0076 12.5313,22.0076 M21.0323,3.5386 C18.7703,1.2676 15.7593,0.0136 12.5303,0.0076 C5.9263,0.0076 0.5433,5.3806 0.5313,11.9846 C0.5243,15.1906 1.7673,18.2056 4.0293,20.4766 C6.2913,22.7476 9.3023,24.0016 12.5073,24.0076 L12.5313,24.0076 C19.1353,24.0076 24.5183,18.6346 24.5303,12.0306 C24.5373,8.8246 23.2943,5.8096 21.0323,3.5386" id="Fill-2448" sketch:type="MSShapeGroup"></path>
            <path d="M19.5133,10.8254 C19.5073,10.7934 19.4953,10.7644 19.4863,10.7344 C19.4773,10.7024 19.4693,10.6694 19.4573,10.6384 C19.4423,10.6034 19.4223,10.5704 19.4043,10.5374 C19.3913,10.5134 19.3803,10.4894 19.3653,10.4664 C19.3283,10.4104 19.2863,10.3584 19.2393,10.3114 L16.2473,7.3074 C15.8573,6.9164 15.2243,6.9154 14.8323,7.3044 C14.4413,7.6944 14.4403,8.3274 14.8303,8.7194 L16.1223,10.0164 L9.0323,10.0074 L9.0233,10.0074 C7.5823,10.0074 6.7833,10.6384 6.3673,11.1694 C5.8893,11.7784 5.6353,12.6104 5.6343,13.5754 C5.6303,15.1174 6.4473,17.9954 8.0193,17.9984 L8.0203,17.9984 C8.5733,17.9984 9.0203,17.5524 9.0213,17.0004 C9.0223,16.5574 8.7343,16.1804 8.3353,16.0494 C7.9703,15.6004 7.3483,13.8154 7.7713,12.7114 C7.9053,12.3634 8.1583,12.0074 9.0233,12.0074 L9.0293,12.0074 L16.1143,12.0164 L14.8213,13.3044 C14.4303,13.6944 14.4283,14.3274 14.8183,14.7194 C15.0133,14.9154 15.2703,15.0134 15.5273,15.0134 C15.7823,15.0134 16.0373,14.9164 16.2323,14.7214 L19.2383,11.7274 L19.2393,11.7274 C19.2853,11.6804 19.3273,11.6294 19.3633,11.5754 C19.3803,11.5514 19.3913,11.5244 19.4053,11.4994 C19.4223,11.4674 19.4413,11.4374 19.4553,11.4034 C19.4693,11.3714 19.4763,11.3384 19.4863,11.3054 C19.4953,11.2754 19.5063,11.2474 19.5133,11.2164 C19.5253,11.1524 19.5323,11.0874 19.5323,11.0224 L19.5323,11.0204 C19.5323,11.0134 19.5313,11.0074 19.5303,11.0004 C19.5293,10.9414 19.5243,10.8834 19.5133,10.8254" id="Fill-2449" sketch:type="MSShapeGroup"></path>
        </g>
    </g>
</svg>