<?xml version="1.0" encoding="UTF-8" standalone="no"?>
<svg width="66px" height="65px" viewBox="0 0 66 65" version="1.1" xmlns="http://www.w3.org/2000/svg" xmlns:xlink="http://www.w3.org/1999/xlink" xmlns:sketch="http://www.bohemiancoding.com/sketch/ns">
    <!-- Generator: Sketch 3.3.1 (12002) - http://www.bohemiancoding.com/sketch -->
    <title>icon-download-pdf-green</title>
    <desc>Created with Sketch.</desc>
    <defs></defs>
    <g id="Page-1" stroke="none" stroke-width="1" fill="none" fill-rule="evenodd" sketch:type="MSPage">
        <g id="Social-icons" sketch:type="MSArtboardGroup" transform="translate(-454.000000, -1966.000000)">
            <g id="Green-doc-download-" sketch:type="MSLayerGroup" transform="translate(150.000000, 1966.000000)">
                <g id="icon-download-pdf-green" transform="translate(304.000000, 0.000000)" sketch:type="MSShapeGroup">
                    <rect id="Rectangle-2-Copy-11" fill="#73B85B" x="0" y="0.16023763" width="66" height="64.1666667" rx="5"></rect>
                    <g id="Fill-1922-Copy" transform="translate(17.914286, 11.000000)" fill="#FFFFFF">
                        <path d="M19.2761905,10.748366 L19.2761905,0.826797386 L29.3333333,10.748366 L19.2761905,10.748366 Z M22.6285714,18.1895425 L7.54285714,18.1895425 C7.08022857,18.1895425 6.7047619,17.8199641 6.7047619,17.3627451 C6.7047619,16.9055261 7.08022857,16.5359477 7.54285714,16.5359477 L22.6285714,16.5359477 C23.0912,16.5359477 23.4666667,16.9055261 23.4666667,17.3627451 C23.4666667,17.8199641 23.0912,18.1895425 22.6285714,18.1895425 L22.6285714,18.1895425 Z M22.6285714,23.1503268 L7.54285714,23.1503268 C7.08022857,23.1503268 6.7047619,22.7807484 6.7047619,22.3235294 C6.7047619,21.8663105 7.08022857,21.496732 7.54285714,21.496732 L22.6285714,21.496732 C23.0912,21.496732 23.4666667,21.8663105 23.4666667,22.3235294 C23.4666667,22.7807484 23.0912,23.1503268 22.6285714,23.1503268 L22.6285714,23.1503268 Z M22.6285714,28.1111111 L7.54285714,28.1111111 C7.08022857,28.1111111 6.7047619,27.7415327 6.7047619,27.2843137 C6.7047619,26.8270948 7.08022857,26.4575163 7.54285714,26.4575163 L22.6285714,26.4575163 C23.0912,26.4575163 23.4666667,26.8270948 23.4666667,27.2843137 C23.4666667,27.7415327 23.0912,28.1111111 22.6285714,28.1111111 L22.6285714,28.1111111 Z M22.6285714,33.0718954 L7.54285714,33.0718954 C7.08022857,33.0718954 6.7047619,32.702317 6.7047619,32.245098 C6.7047619,31.7878791 7.08022857,31.4183007 7.54285714,31.4183007 L22.6285714,31.4183007 C23.0912,31.4183007 23.4666667,31.7878791 23.4666667,32.245098 C23.4666667,32.702317 23.0912,33.0718954 22.6285714,33.0718954 L22.6285714,33.0718954 Z M7.54285714,11.5751634 L15.0857143,11.5751634 C15.5483429,11.5751634 15.9238095,11.9447418 15.9238095,12.4019608 C15.9238095,12.8591797 15.5483429,13.2287582 15.0857143,13.2287582 L7.54285714,13.2287582 C7.08022857,13.2287582 6.7047619,12.8591797 6.7047619,12.4019608 C6.7047619,11.9447418 7.08022857,11.5751634 7.54285714,11.5751634 L7.54285714,11.5751634 Z M29.9258667,10.1638203 L19.8687238,0.242251634 C19.712,0.0868137255 19.4982857,0 19.2761905,0 L0.838095238,0 C0.375466667,0 0,0.369578431 0,0.826797386 L0,38.8594771 C0,39.3166961 0.375466667,39.6862745 0.838095238,39.6862745 L29.3333333,39.6862745 C29.7959619,39.6862745 30.1714286,39.3166961 30.1714286,38.8594771 L30.1714286,10.748366 C30.1714286,10.5284379 30.0834286,10.3184314 29.9258667,10.1638203 L29.9258667,10.1638203 Z" id="Fill-1922"></path>
                    </g>
                </g>
            </g>
        </g>
    </g>
</svg>