<?xml version="1.0" encoding="UTF-8" standalone="no"?>
<svg width="66px" height="66px" viewBox="0 0 66 66" version="1.1" xmlns="http://www.w3.org/2000/svg" xmlns:xlink="http://www.w3.org/1999/xlink" xmlns:sketch="http://www.bohemiancoding.com/sketch/ns">
    <!-- Generator: Sketch 3.3.1 (12002) - http://www.bohemiancoding.com/sketch -->
    <title>Twitter-green</title>
    <desc>Created with Sketch.</desc>
    <defs></defs>
    <g id="Page-1" stroke="none" stroke-width="1" fill="none" fill-rule="evenodd" sketch:type="MSPage">
        <g id="Social-icons" sketch:type="MSArtboardGroup" transform="translate(-150.000000, -348.000000)">
            <g id="Twitter-green" sketch:type="MSLayerGroup" transform="translate(150.000000, 348.000000)">
                <rect id="Rectangle-2" fill="#73B85B" sketch:type="MSShapeGroup" x="0" y="0" width="66" height="66" rx="5"></rect>
                <path d="M55.6285714,21.1222098 C54.442628,22.9152433 52.96728,24.454123 51.2024833,25.7388951 L51.2024833,26.9036551 C51.2024833,28.8802275 50.9518859,30.8673589 50.4506836,32.8651088 C49.9494813,34.8628588 49.229455,36.8041061 48.2905831,38.688909 C47.3517113,40.573712 46.1481379,42.3349527 44.679827,43.9726842 C43.2115161,45.6104156 41.5667502,47.0398795 39.7454799,48.2611189 C37.9242096,49.4823582 35.824133,50.4459228 33.4451869,51.1518415 C31.0662409,51.8577602 28.5567375,52.2107143 25.9166016,52.2107143 C20.5657378,52.2107143 16.0126304,51.0036114 12.2571429,48.5893694 C12.9065881,48.688198 13.6124962,48.7376116 14.3748884,48.7376116 C16.3514608,48.7376116 18.285649,48.3564212 20.1775112,47.594029 C22.0693733,46.8316368 23.8129664,45.80807 25.4083426,44.523298 C23.5023621,44.5091796 21.7834759,43.9197463 20.2516323,42.7549805 C18.7197887,41.5902146 17.6785742,40.1183962 17.1279576,38.339481 C17.7209293,38.452428 18.2715376,38.5089007 18.7797991,38.5089007 C19.5986648,38.5089007 20.3892819,38.4030145 21.1516741,38.1912388 C19.1045099,37.781806 17.4032713,36.7617688 16.0479074,35.1310965 C14.6925434,33.5004243 14.0148717,31.6121201 14.0148717,29.4661272 L14.0148717,29.36024 C15.2855253,30.0520403 16.6267508,30.4191125 18.0385882,30.4614676 C16.8102896,29.6426019 15.839666,28.5837398 15.1266881,27.2848493 C14.4137102,25.9859589 14.0572266,24.5882608 14.0572266,23.0917132 C14.0572266,21.6375206 14.4595942,20.1974681 15.2643415,18.7715123 C17.4950446,21.4822401 20.1916137,23.6317303 23.3541295,25.2200474 C26.5166453,26.8083645 29.9261815,27.7013383 33.5828404,27.8989955 C33.455775,27.3483789 33.3922433,26.6636481 33.3922433,25.8447824 C33.3922433,23.3881853 34.2569807,21.2951677 35.9864816,19.5656669 C37.7159824,17.836166 39.809,16.9714286 42.2655971,16.9714286 C44.7927861,16.9714286 46.9740422,17.9032273 48.8094308,19.7668527 C50.8283583,19.3574198 52.6990148,18.6373935 54.4214565,17.6067522 C53.7437745,19.7527451 52.4378445,21.397511 50.5036272,22.5410993 C52.268424,22.3434421 53.9767217,21.8704837 55.6285714,21.1222098 L55.6285714,21.1222098 Z" id="twitter" fill="#FFFFFF" sketch:type="MSShapeGroup"></path>
            </g>
        </g>
    </g>
</svg>