<?xml version="1.0" encoding="UTF-8" standalone="no"?>
<svg width="66px" height="66px" viewBox="0 0 66 66" version="1.1" xmlns="http://www.w3.org/2000/svg" xmlns:xlink="http://www.w3.org/1999/xlink" xmlns:sketch="http://www.bohemiancoding.com/sketch/ns">
    <!-- Generator: Sketch 3.4 (15575) - http://www.bohemiancoding.com/sketch -->
    <title>kings-menu</title>
    <desc>Created with Sketch.</desc>
    <defs></defs>
    <g id="Page-1" stroke="none" stroke-width="1" fill="none" fill-rule="evenodd" sketch:type="MSPage">
        <g id="Desktop-HD" sketch:type="MSArtboardGroup" transform="translate(-478.000000, -1233.000000)">
            <g id="kings-menu" sketch:type="MSLayerGroup" transform="translate(478.000000, 1233.000000)">
                <rect id="Rectangle-5" fill="#1781A2" sketch:type="MSShapeGroup" x="0" y="0" width="66" height="66" rx="10"></rect>
                <g id="Fill-621" transform="translate(10.000000, 10.000000)" fill="#FFFFFF" sketch:type="MSShapeGroup">
                    <path d="M42.1666667,20.9554065 L23.8553333,20.9554065 L23.8718333,2.5072515 C23.8718333,1.4869665 23.0523333,0.6604065 22.0385,0.6604065 C21.0265,0.6604065 20.2051667,1.4851215 20.2051667,2.5035615 L20.1886667,20.9554065 L1.83333333,20.9554065 C0.8195,20.9554065 0,21.7801215 0,22.8004065 C0,23.8188465 0.8195,24.6454065 1.83333333,24.6454065 L20.185,24.6454065 L20.1666667,43.0935615 C20.1648333,44.1120015 20.9843333,44.9385615 21.9963333,44.9404065 L21.9981667,44.9404065 C23.0101667,44.9404065 23.8315,44.1156915 23.8333333,43.0972515 L23.8516667,24.6454065 L42.1666667,24.6454065 C43.1786667,24.6454065 44,23.8188465 44,22.8004065 C44,21.7801215 43.1786667,20.9554065 42.1666667,20.9554065"></path>
                </g>
            </g>
        </g>
    </g>
</svg>