<?xml version="1.0" encoding="UTF-8" standalone="no"?>
<svg width="39px" height="40px" viewBox="0 0 39 40" version="1.1" xmlns="http://www.w3.org/2000/svg" xmlns:xlink="http://www.w3.org/1999/xlink" xmlns:sketch="http://www.bohemiancoding.com/sketch/ns">
    <!-- Generator: Sketch 3.3.1 (12002) - http://www.bohemiancoding.com/sketch -->
    <title>Phone-blue2</title>
    <desc>Created with Sketch.</desc>
    <defs></defs>
    <g id="Page-1" stroke="none" stroke-width="1" fill="none" fill-rule="evenodd" sketch:type="MSPage">
        <g id="Social-icons" sketch:type="MSArtboardGroup" transform="translate(-621.000000, -2157.000000)" fill="#1781A2">
            <g id="Email-&amp;-Tel-Copy-4" sketch:type="MSLayerGroup" transform="translate(541.500000, 2156.587402)">
                <g id="Blue" sketch:type="MSShapeGroup">
                    <g id="Phone-blue2" transform="translate(79.500000, 0.912598)">
                        <path d="M37.5714112,28.4120852 L33.3645204,24.2051944 C32.5344612,23.3734203 31.4300023,22.9172307 30.2569435,22.9172307 C29.0821697,22.9172307 27.9794258,23.3734203 27.1476517,24.2051944 L26.0208978,25.3319483 C21.6133522,21.6858619 17.3807365,17.4532462 13.7432251,13.0525606 L14.869979,11.9258068 C16.5832623,10.2125235 16.5832623,7.4239363 14.869979,5.71065302 L10.6630882,1.50376225 C9.83302908,0.671988092 8.72857019,0.215798551 7.55551137,0.215798551 C6.38073755,0.215798551 5.27627866,0.671988092 4.4462195,1.50376225 L2.13783182,3.81043493 C0.00608896536,5.94046279 -0.331765695,9.31729439 1.33349763,11.8366269 C8.08030084,22.0357216 17.0377368,30.9931576 27.2385466,37.7399608 C28.2864105,38.4345351 29.5040593,38.7998297 30.759438,38.7998297 C32.4624313,38.7998297 34.0625247,38.1378404 35.2630235,36.9356266 L37.5714112,34.6272389 C38.4014703,33.7988948 38.8593749,32.6944359 38.8593749,31.5196621 C38.8593749,30.3466032 38.4014703,29.2404293 37.5714112,28.4120852" id="Fill-319"></path>
                    </g>
                </g>
            </g>
        </g>
    </g>
</svg>