<?xml version="1.0" encoding="UTF-8" standalone="no"?>
<svg width="19px" height="25px" viewBox="0 0 19 25" version="1.1" xmlns="http://www.w3.org/2000/svg" xmlns:xlink="http://www.w3.org/1999/xlink" xmlns:sketch="http://www.bohemiancoding.com/sketch/ns">
    <!-- Generator: Sketch 3.3.1 (12002) - http://www.bohemiancoding.com/sketch -->
    <title>icon-download-spreadsheet</title>
    <desc>Created with Sketch.</desc>
    <defs></defs>
    <g id="Page-1" stroke="none" stroke-width="1" fill="none" fill-rule="evenodd" sketch:type="MSPage">
        <g id="icon-download-spreadsheet" sketch:type="MSLayerGroup" fill="#D85F81">
            <path d="M7.531,18.007 L4.531,18.007 L4.531,20.007 L7.531,20.007 L7.531,18.007 Z" id="Fill-1868" sketch:type="MSShapeGroup"></path>
            <path d="M14.531,18.007 L8.531,18.007 L8.531,20.007 L14.531,20.007 L14.531,18.007 Z" id="Fill-1869" sketch:type="MSShapeGroup"></path>
            <path d="M14.531,12.007 L8.531,12.007 L8.531,14.007 L14.531,14.007 L14.531,12.007 Z" id="Fill-1870" sketch:type="MSShapeGroup"></path>
            <path d="M14.531,15.007 L8.531,15.007 L8.531,17.007 L14.531,17.007 L14.531,15.007 Z" id="Fill-1871" sketch:type="MSShapeGroup"></path>
            <path d="M7.531,12.007 L4.531,12.007 L4.531,14.007 L7.531,14.007 L7.531,12.007 Z" id="Fill-1872" sketch:type="MSShapeGroup"></path>
            <path d="M7.531,15.007 L4.531,15.007 L4.531,17.007 L7.531,17.007 L7.531,15.007 Z" id="Fill-1873" sketch:type="MSShapeGroup"></path>
            <path d="M14.531,9.007 L8.531,9.007 L8.531,11.007 L14.531,11.007 L14.531,9.007 Z" id="Fill-1874" sketch:type="MSShapeGroup"></path>
            <path d="M7.531,9.007 L4.531,9.007 L4.531,11.007 L7.531,11.007 L7.531,9.007 Z" id="Fill-1875" sketch:type="MSShapeGroup"></path>
            <path d="M12.0308,6.5074 L12.0308,0.5074 L18.0308,6.5074 L12.0308,6.5074 Z M15.5308,21.0074 L3.5308,21.0074 L3.5308,8.0074 L15.5308,8.0074 L15.5308,21.0074 Z M18.3848,6.1534 L12.3848,0.1534 C12.2908,0.0604 12.1638,0.0074 12.0308,0.0074 L1.0308,0.0074 C0.7548,0.0074 0.5308,0.2314 0.5308,0.5074 L0.5308,23.5074 C0.5308,23.7834 0.7548,24.0074 1.0308,24.0074 L18.0308,24.0074 C18.3068,24.0074 18.5308,23.7834 18.5308,23.5074 L18.5308,6.5074 C18.5308,6.3744 18.4778,6.2474 18.3848,6.1534 L18.3848,6.1534 Z" id="Fill-1876" sketch:type="MSShapeGroup"></path>
        </g>
    </g>
</svg>