<?xml version="1.0" encoding="UTF-8" standalone="no"?>
<svg width="20px" height="25px" viewBox="0 0 20 25" version="1.1" xmlns="http://www.w3.org/2000/svg" xmlns:xlink="http://www.w3.org/1999/xlink" xmlns:sketch="http://www.bohemiancoding.com/sketch/ns">
    <!-- Generator: Sketch 3.3.1 (12002) - http://www.bohemiancoding.com/sketch -->
    <title>icon-download-video</title>
    <desc>Created with Sketch.</desc>
    <defs></defs>
    <g id="Page-1" stroke="none" stroke-width="1" fill="none" fill-rule="evenodd" sketch:type="MSPage">
        <g id="icon-download-video" sketch:type="MSLayerGroup" fill="#D85F81">
            <path d="M12.0955,7.0835 L12.0955,0.416833333 L18.7621667,7.0835 L12.0955,7.0835 Z M13.9488333,14.4285 L5.65216667,19.6818333 C5.58383333,19.7251667 5.50633333,19.7468333 5.42883333,19.7468333 C5.35966667,19.7468333 5.2905,19.7293333 5.228,19.6951667 C5.09466667,19.6218333 5.01216667,19.4818333 5.01216667,19.3301667 L5.01216667,8.82266667 C5.01216667,8.671 5.09466667,8.531 5.228,8.45766667 C5.36133333,8.3835 5.523,8.3885 5.65216667,8.471 L13.9488333,13.7243333 C14.0696667,13.801 14.143,13.9335 14.143,14.0768333 C14.143,14.2193333 14.0696667,14.3518333 13.9488333,14.4285 L13.9488333,14.4285 Z M19.0571667,6.7885 L12.3905,0.121833333 C12.3121667,0.0443333333 12.2063333,0.000166666667 12.0955,0.000166666667 L0.428833333,0.000166666667 C0.198833333,0.000166666667 0.0121666667,0.186833333 0.0121666667,0.416833333 L0.0121666667,24.5835 C0.0121666667,24.8135 0.198833333,25.0001667 0.428833333,25.0001667 L18.7621667,25.0001667 C18.9921667,25.0001667 19.1788333,24.8135 19.1788333,24.5835 L19.1788333,7.0835 C19.1788333,6.97266667 19.1346667,6.86683333 19.0571667,6.7885 L19.0571667,6.7885 Z" id="Fill-1898" sketch:type="MSShapeGroup"></path>
        </g>
    </g>
</svg>