<?xml version="1.0" encoding="UTF-8" standalone="no"?>
<svg width="43px" height="41px" viewBox="0 0 43 41" version="1.1" xmlns="http://www.w3.org/2000/svg" xmlns:xlink="http://www.w3.org/1999/xlink" xmlns:sketch="http://www.bohemiancoding.com/sketch/ns">
    <!-- Generator: Sketch 3.3.1 (12002) - http://www.bohemiancoding.com/sketch -->
    <title>wifi-blue2</title>
    <desc>Created with Sketch.</desc>
    <defs></defs>
    <g id="Page-1" stroke="none" stroke-width="1" fill="none" fill-rule="evenodd" sketch:type="MSPage">
        <g id="Social-icons" sketch:type="MSArtboardGroup" transform="translate(-879.000000, -751.000000)" fill="#1781A2">
            <g id="TABLE-ICONS" sketch:type="MSLayerGroup" transform="translate(150.000000, 518.000000)">
                <g id="Group" transform="translate(0.000000, 220.000000)" sketch:type="MSShapeGroup">
                    <g id="wifi-blue2" transform="translate(728.000000, 12.000000)">
                        <g id="wifi" transform="translate(0.480220, 0.257143)">
                            <path d="M21.7713345,31.6953396 C19.0122444,31.6953396 16.7669389,33.9406451 16.7669389,36.6997352 C16.7669389,39.4588253 19.0122444,41.7041308 21.7713345,41.7041308 C24.5304246,41.7041308 26.7757301,39.4588253 26.7757301,36.6997352 C26.7757301,33.9406451 24.5304246,31.6953396 21.7713345,31.6953396" id="Fill-2817"></path>
                            <path d="M12.1347035,23.9313534 L14.0647321,26.6520765 C16.3367277,25.0406611 19.0007343,24.1882457 21.7715013,24.1882457 C24.5406002,24.1882457 27.2062749,25.0406611 29.4766024,26.6520765 L31.406631,23.9313534 C28.5691387,21.9162501 25.2378793,20.851982 21.7715013,20.851982 C18.3051233,20.851982 14.9721958,21.9162501 12.1347035,23.9313534" id="Fill-2818"></path>
                            <path d="M6.34595231,15.7593422 L8.27598088,18.4800653 C12.2411303,15.6659268 16.9068952,14.1796213 21.7711677,14.1796213 C26.6371084,14.1796213 31.3028732,15.6659268 35.2663545,18.4800653 L37.1963831,15.7593422 C32.6674051,12.543184 27.3327193,10.8433576 21.7711677,10.8433576 C16.2112842,10.8433576 10.8765985,12.543184 6.34595231,15.7593422" id="Fill-2819"></path>
                            <path d="M21.7713345,0.8349 C14.1262862,0.8349 6.79317846,3.17195275 0.561037802,7.5925022 L2.49106637,10.3132253 C8.15437407,6.2946956 14.8218971,4.17116374 21.7713345,4.17116374 C28.7207719,4.17116374 35.3882949,6.2946956 41.0516026,10.3132253 L42.9816312,7.5925022 C36.7494905,3.17195275 29.4163829,0.8349 21.7713345,0.8349" id="Fill-2820"></path>
                        </g>
                    </g>
                </g>
            </g>
        </g>
    </g>
</svg>