<?xml version="1.0" encoding="UTF-8" standalone="no"?>
<svg width="66px" height="66px" viewBox="0 0 66 66" version="1.1" xmlns="http://www.w3.org/2000/svg" xmlns:xlink="http://www.w3.org/1999/xlink" xmlns:sketch="http://www.bohemiancoding.com/sketch/ns">
    <!-- Generator: Sketch 3.3.1 (12002) - http://www.bohemiancoding.com/sketch -->
    <title>youtube-green</title>
    <desc>Created with Sketch.</desc>
    <defs></defs>
    <g id="Page-1" stroke="none" stroke-width="1" fill="none" fill-rule="evenodd" sketch:type="MSPage">
        <g id="Social-icons" sketch:type="MSArtboardGroup" transform="translate(-454.000000, -348.000000)">
            <g id="youtube-green" sketch:type="MSLayerGroup" transform="translate(454.000000, 348.000000)">
                <rect id="Rectangle-2-Copy-3" fill="#73B85B" sketch:type="MSShapeGroup" x="0" y="0" width="66" height="66" rx="5"></rect>
                <path d="M33,18.1964582 C39.5509256,18.1964582 43.8569651,18.2882263 45.9182478,18.4717651 C48.8972247,18.7258959 50.9867127,19.3259178 52.1867746,20.2718488 C53.3021261,21.147188 54.0221524,22.5942997 54.346875,24.6132272 C54.572769,26.0533014 54.6857143,28.8204612 54.6857143,32.9147897 L54.6857143,33.5501134 C54.6857143,37.799744 54.5939462,40.6304355 54.4104074,42.0422729 C54.1139215,44.1882658 53.4433088,45.7200864 52.3985491,46.6377808 C51.2831975,47.6401853 49.320773,48.2825617 46.5112165,48.5649292 C44.4216971,48.7908232 40.2144847,48.9037685 33.8894531,48.9037685 L33.8682757,48.9037685 L33.8470982,48.9037685 L33.8259208,48.9037685 L33.8047433,48.9037685 L33.7835658,48.9037685 L33.7623884,48.9037685 L33.7412109,48.9037685 L33.7200335,48.9037685 L33.698856,48.9037685 L33.6776786,48.9037685 L33.6565011,48.9037685 L33.6353237,48.9037685 L33.6141462,48.9037685 L33.5929687,48.9037685 L33.5717913,48.9037685 L33.5506138,48.9037685 L33.5294364,48.9037685 L33.5082589,48.9037685 L33.4870815,48.9037685 L33.465904,48.9037685 L33.4447266,48.9037685 L33.4235491,48.9037685 L33.4023717,48.9037685 L33.3811942,48.9037685 L33.3600167,48.9037685 L33.3388393,48.9037685 L33.3176618,48.9037685 L33.2964844,48.9037685 L33.2753069,48.9037685 L33.2541295,48.9037685 L33.232952,48.9037685 L33.2117746,48.9037685 L33.1905971,48.9037685 L33,48.9037685 C26.4490744,48.9037685 22.1430349,48.8120004 20.0817522,48.6284616 C17.1027753,48.3743308 15.0132873,47.7743089 13.8132254,46.8283779 C12.6978739,45.9530387 11.9778476,44.505927 11.653125,42.4869995 C11.427231,41.0469253 11.3142857,38.2797655 11.3142857,34.185437 L11.3142857,33.5501134 C11.3142857,29.3004827 11.4060538,26.4697912 11.5895926,25.0579538 C11.8860785,22.9119609 12.5566912,21.3801403 13.6014509,20.4624459 C14.7168025,19.4600414 16.679227,18.817665 19.4887835,18.5352975 C21.5783029,18.3094035 25.7855152,18.1964582 32.1105469,18.1964582 L32.1317243,18.1964582 L32.1529018,18.1964582 L32.1740792,18.1964582 L32.1952567,18.1964582 L32.2164342,18.1964582 L32.2376116,18.1964582 L32.2587891,18.1964582 L32.2799665,18.1964582 L32.301144,18.1964582 L32.3223214,18.1964582 L32.3434989,18.1964582 L32.3646763,18.1964582 L32.3858538,18.1964582 L32.4070312,18.1964582 L32.4282087,18.1964582 L32.4493862,18.1964582 L32.4705636,18.1964582 L32.4917411,18.1964582 L32.5129185,18.1964582 L32.534096,18.1964582 L32.5552734,18.1964582 L32.5764509,18.1964582 L32.5976283,18.1964582 L32.6188058,18.1964582 L32.6399833,18.1964582 L32.6611607,18.1964582 L32.6823382,18.1964582 L32.7035156,18.1964582 L32.7246931,18.1964582 L32.7458705,18.1964582 L32.767048,18.1964582 L32.7882254,18.1964582 L32.8094029,18.1964582 L33,18.1964582 Z M27.5785714,41.6822562 L41.1321429,33.5501134 L27.5785714,25.4179705 L27.5785714,41.6822562 Z" id="youtube" fill="#FFFFFF" sketch:type="MSShapeGroup"></path>
            </g>
        </g>
    </g>
</svg>