<?xml version="1.0" encoding="UTF-8" standalone="no"?>
<svg width="66px" height="65px" viewBox="0 0 66 65" version="1.1" xmlns="http://www.w3.org/2000/svg" xmlns:xlink="http://www.w3.org/1999/xlink" xmlns:sketch="http://www.bohemiancoding.com/sketch/ns">
    <!-- Generator: Sketch 3.3.1 (12002) - http://www.bohemiancoding.com/sketch -->
    <title>icon-download-green</title>
    <desc>Created with Sketch.</desc>
    <defs></defs>
    <g id="Page-1" stroke="none" stroke-width="1" fill="none" fill-rule="evenodd" sketch:type="MSPage">
        <g id="Social-icons" sketch:type="MSArtboardGroup" transform="translate(-226.000000, -1966.000000)">
            <g id="Green-doc-download-" sketch:type="MSLayerGroup" transform="translate(150.000000, 1966.000000)">
                <g id="icon-download-green" transform="translate(76.000000, 0.000000)" sketch:type="MSShapeGroup">
                    <rect id="Rectangle-2-Copy" fill="#73B85B" x="0" y="0.16023763" width="66" height="64.1666667" rx="5"></rect>
                    <g id="download-copy" transform="translate(18.857143, 7.333333)" fill="#FFFFFF">
                        <path d="M12.5425121,49.0465585 C12.673892,49.1753624 12.8193988,49.2917013 12.9747944,49.3928054 C13.0440161,49.439895 13.1203012,49.4703647 13.1937609,49.5091443 C13.2813475,49.5576189 13.3675214,49.6102484 13.4607588,49.649028 C13.5539961,49.6864227 13.6514715,49.7085825 13.7475343,49.7362823 C13.8280574,49.7584421 13.9057552,49.7889118 13.9891038,49.8055316 C14.1713404,49.8415413 14.3564024,49.8595461 14.5414644,49.8595461 C14.7279391,49.8595461 14.9130012,49.8415413 15.0952378,49.8055316 C15.1785863,49.7889118 15.2562841,49.7584421 15.3368073,49.7362823 C15.43287,49.7085825 15.5289328,49.6864227 15.6221701,49.649028 C15.7168201,49.6102484 15.8015814,49.5576189 15.8905807,49.5091443 C15.9626277,49.4703647 16.0389128,49.439895 16.1095472,49.3928054 C16.2649428,49.2917013 16.4090368,49.1753624 16.5418294,49.0465585 L27.8405012,37.9680444 C28.9452225,36.8863692 28.9452225,35.1343602 27.8405012,34.0513 C26.7386052,32.9696249 24.9473179,32.9696249 23.8454219,34.0513 L17.3668387,40.4028522 L17.3668387,2.76997479 C17.3668387,1.2409487 16.1024837,0 14.5414644,0 C12.9818578,0 11.7160902,1.2409487 11.7160902,2.76997479 L11.7160902,40.4028522 L5.23750693,34.0513 C4.13561096,32.9696249 2.34432367,32.9696249 1.2424277,34.0513 C0.139119044,35.1343602 0.139119044,36.8863692 1.2424277,37.9680444 L12.5425121,49.0465585 Z" id="Fill-2330"></path>
                    </g>
                </g>
            </g>
        </g>
    </g>
</svg>