<?xml version="1.0" encoding="UTF-8" standalone="no"?>
<svg width="52px" height="52px" viewBox="0 0 52 52" version="1.1" xmlns="http://www.w3.org/2000/svg" xmlns:xlink="http://www.w3.org/1999/xlink" xmlns:sketch="http://www.bohemiancoding.com/sketch/ns">
    <!-- Generator: Sketch 3.3.1 (12002) - http://www.bohemiancoding.com/sketch -->
    <title>Play-blue2</title>
    <desc>Created with Sketch.</desc>
    <defs></defs>
    <g id="Page-1" stroke="none" stroke-width="1" fill="none" fill-rule="evenodd" sketch:type="MSPage">
        <g id="Social-icons" sketch:type="MSArtboardGroup" transform="translate(-569.000000, -745.000000)" fill="#1781A2">
            <g id="TABLE-ICONS" sketch:type="MSLayerGroup" transform="translate(150.000000, 518.000000)">
                <g id="Group" transform="translate(0.000000, 220.000000)" sketch:type="MSShapeGroup">
                    <g id="Play-blue2" transform="translate(418.590909, 7.000000)">
                        <g id="play" transform="translate(0.542857, 0.542857)">
                            <path d="M37.6273731,26.2164886 L18.368196,35.8460771 C18.249396,35.9054771 18.118716,35.9360257 17.988036,35.9360257 C17.833596,35.9360257 17.679156,35.8935971 17.5416874,35.80874 C17.2922074,35.6543 17.1394646,35.38106 17.1394646,35.0874543 L17.1394646,15.8282771 C17.1394646,15.5346714 17.2922074,15.2614314 17.5416874,15.1069914 C17.7928646,14.9508543 18.1051389,14.9372771 18.368196,15.0696543 L37.6273731,24.6975457 C37.9141903,24.8418029 38.0957846,25.1354086 38.0957846,25.4578657 C38.0957846,25.7786257 37.9141903,26.0722314 37.6273731,26.2164886 M25.4775274,0.000722857143 C11.4404589,0.000722857143 0.0203845714,11.4207971 0.0203845714,25.4578657 C0.0203845714,39.4949343 11.4404589,50.9150086 25.4775274,50.9150086 C39.5162931,50.9150086 50.9346703,39.4949343 50.9346703,25.4578657 C50.9346703,11.4207971 39.5162931,0.000722857143 25.4775274,0.000722857143" id="Fill-927"></path>
                        </g>
                    </g>
                </g>
            </g>
        </g>
    </g>
</svg>