<?xml version="1.0" encoding="UTF-8" standalone="no"?>
<svg width="66px" height="66px" viewBox="0 0 66 66" version="1.1" xmlns="http://www.w3.org/2000/svg" xmlns:xlink="http://www.w3.org/1999/xlink" xmlns:sketch="http://www.bohemiancoding.com/sketch/ns">
    <!-- Generator: Sketch 3.3.1 (12002) - http://www.bohemiancoding.com/sketch -->
    <title>mobilephone-blue</title>
    <desc>Created with Sketch.</desc>
    <defs></defs>
    <g id="Page-1" stroke="none" stroke-width="1" fill="none" fill-rule="evenodd" sketch:type="MSPage">
        <g id="Social-icons" sketch:type="MSArtboardGroup" transform="translate(-302.000000, -688.000000)">
            <g id="mobilephone-blue" sketch:type="MSLayerGroup" transform="translate(302.000000, 688.000000)">
                <rect id="Rectangle-2-Copy-2" fill="#1781A2" sketch:type="MSShapeGroup" x="0" y="0" width="66" height="66" rx="5"></rect>
                <g id="phone" transform="translate(32.558100, 33.133505) rotate(65.000000) translate(-32.558100, -33.133505) translate(6.158100, 12.390648)" fill="#FFFFFF" sketch:type="MSShapeGroup">
                    <path d="M43.8717025,15.5780833 L33.6709052,37.4537638 L9.06076456,25.9778668 L19.2615619,4.10218627 L43.8717025,15.5780833 L43.8717025,15.5780833 Z M44.923839,29.3848978 C44.3959477,30.5169643 43.0487357,31.0073094 41.9166692,30.4794181 C40.7859699,29.9521644 40.2942576,28.6043148 40.8221489,27.4722483 C41.3494026,26.3415491 42.6986195,25.8504743 43.8293187,26.377728 C44.9613852,26.9056193 45.4510927,28.2541986 44.923839,29.3848978 L44.923839,29.3848978 L44.923839,29.3848978 Z M7.82804872,17.9126821 L12.2908976,8.34207191 C12.4668613,7.96471643 12.9172992,7.80190561 13.2932875,7.97723182 C13.670643,8.15319557 13.8340914,8.60226626 13.6581276,8.97962175 L9.19527875,18.550232 C9.01867745,18.9289547 8.57024431,19.0910358 8.19288882,18.9150721 C7.81690056,18.7397459 7.65144742,18.2914049 7.82804872,17.9126821 L7.82804872,17.9126821 L7.82804872,17.9126821 Z M9.78308205,3.01134733 L2.13248403,19.4181077 C1.07733906,21.6808734 2.06012615,24.3779399 4.32152463,25.4324473 L7.0559847,26.707547 L34.4005854,39.4585437 L37.1350454,40.7336434 C39.3978111,41.7887883 42.09424,40.8073685 43.149385,38.5446028 L50.799983,22.1378424 C51.8544905,19.8764439 50.8737082,17.1786477 48.6109424,16.1235028 L45.8764824,14.8484031 L18.5318817,2.0974064 L15.7974217,0.822306733 C13.5360232,-0.232200693 10.8375895,0.749948853 9.78308205,3.01134733 L9.78308205,3.01134733 L9.78308205,3.01134733 Z" id="Fill-2722"></path>
                </g>
            </g>
        </g>
    </g>
</svg>