<?xml version="1.0" encoding="UTF-8" standalone="no"?>
<svg width="66px" height="67px" viewBox="0 0 66 67" version="1.1" xmlns="http://www.w3.org/2000/svg" xmlns:xlink="http://www.w3.org/1999/xlink" xmlns:sketch="http://www.bohemiancoding.com/sketch/ns">
    <!-- Generator: Sketch 3.3.1 (12002) - http://www.bohemiancoding.com/sketch -->
    <title>Haveyoursay-green</title>
    <desc>Created with Sketch.</desc>
    <defs></defs>
    <g id="Page-1" stroke="none" stroke-width="1" fill="none" fill-rule="evenodd" sketch:type="MSPage">
        <g id="Social-icons" sketch:type="MSArtboardGroup" transform="translate(-150.000000, -1268.000000)">
            <g id="Haveyoursay-green" sketch:type="MSLayerGroup" transform="translate(150.000000, 1268.087402)">
                <rect id="Rectangle-2" fill="#73B85B" sketch:type="MSShapeGroup" x="0" y="0" width="66" height="66" rx="5"></rect>
                <g id="have-your-say" transform="translate(13.200000, 9.263756)" sketch:type="MSShapeGroup">
                    <path d="M15.7405757,21.119175 C15.3719186,21.119175 15.0719329,21.4191607 15.0719329,21.7878179 C15.0719329,22.156475 15.3719186,22.4546536 15.7405757,22.4546536 C16.1092329,22.4546536 16.4092186,22.156475 16.4092186,21.7878179 C16.4092186,21.4191607 16.1092329,21.119175 15.7405757,21.119175" id="Fill-3904" fill="#58595B"></path>
                    <path d="M38.5261171,21.119175 C38.15746,21.119175 37.8574743,21.4191607 37.8574743,21.7878179 C37.8574743,22.156475 38.15746,22.4546536 38.5261171,22.4546536 C38.8947743,22.4546536 39.19476,22.156475 39.19476,21.7878179 C39.19476,21.4191607 38.8947743,21.119175 38.5261171,21.119175" id="Fill-3905" fill="#58595B"></path>
                    <path d="M27.1335271,21.119175 C26.76487,21.119175 26.4648843,21.4191607 26.4648843,21.7878179 C26.4648843,22.156475 26.76487,22.4546536 27.1335271,22.4546536 C27.5021843,22.4546536 27.80217,22.156475 27.80217,21.7878179 C27.80217,21.4191607 27.5021843,21.119175 27.1335271,21.119175" id="Fill-3906" fill="#58595B"></path>
                    <path d="M31.6512294,20.3169327 C30.3167189,20.3169327 29.2315942,19.2318079 29.2315942,17.8972974 C29.2315942,16.562787 30.3167189,15.4761778 31.6512294,15.4761778 C32.9857398,15.4761778 34.0708646,16.562787 34.0708646,17.8972974 C34.0708646,19.2318079 32.9857398,20.3169327 31.6512294,20.3169327 M22.2933273,20.3169327 C20.9588169,20.3169327 19.8736921,19.2318079 19.8736921,17.8972974 C19.8736921,16.562787 20.9588169,15.4761778 22.2933273,15.4761778 C23.6278378,15.4761778 24.7129626,16.562787 24.7129626,17.8972974 C24.7129626,19.2318079 23.6278378,20.3169327 22.2933273,20.3169327 M12.9339409,20.3169327 C11.6009148,20.3169327 10.5143057,19.2318079 10.5143057,17.8972974 C10.5143057,16.562787 11.6009148,15.4761778 12.9339409,15.4761778 C14.2684513,15.4761778 15.3550605,16.562787 15.3550605,17.8972974 C15.3550605,19.2318079 14.2684513,20.3169327 12.9339409,20.3169327 M22.2933273,0.000903571429 C10.0155342,0.000903571429 0.0267457143,8.34938724 0.0267457143,18.6127969 C0.0267457143,23.4179253 2.24746612,27.9202281 6.2970151,31.3507661 L1.71900592,40.4904556 C1.57798423,40.772499 1.62993959,41.1139199 1.85112097,41.341039 C1.99362709,41.4879985 2.18660413,41.5651893 2.38403449,41.5651893 C2.48942964,41.5651893 2.59630923,41.5429227 2.69576663,41.4969051 L14.8102715,35.8590066 C17.2061557,36.5596617 19.7222794,36.915927 22.2933273,36.915927 C34.5711205,36.915927 44.559909,28.7054962 44.559909,18.6127969 C44.559909,8.34938724 34.5711205,0.000903571429 22.2933273,0.000903571429" id="Fill-3907" fill="#FFFFFF"></path>
                </g>
            </g>
        </g>
    </g>
</svg>