<?xml version="1.0" encoding="UTF-8" standalone="no"?>
<svg width="66px" height="66px" viewBox="0 0 66 66" version="1.1" xmlns="http://www.w3.org/2000/svg" xmlns:xlink="http://www.w3.org/1999/xlink" xmlns:sketch="http://www.bohemiancoding.com/sketch/ns">
    <!-- Generator: Sketch 3.3.1 (12002) - http://www.bohemiancoding.com/sketch -->
    <title>Google+-green</title>
    <desc>Created with Sketch.</desc>
    <defs></defs>
    <g id="Page-1" stroke="none" stroke-width="1" fill="none" fill-rule="evenodd" sketch:type="MSPage">
        <g id="Social-icons" sketch:type="MSArtboardGroup" transform="translate(-302.000000, -348.000000)">
            <g id="Google+-green" sketch:type="MSLayerGroup" transform="translate(302.000000, 348.000000)">
                <rect id="Rectangle-2-Copy-2" fill="#73B85B" sketch:type="MSShapeGroup" x="0" y="0" width="66" height="66" rx="5"></rect>
                <path d="M55.44,21.2933388 L55.44,23.0670888 L48.406875,23.0670888 L48.406875,30.1002138 L46.633125,30.1002138 L46.633125,23.0670888 L39.6,23.0670888 L39.6,21.2933388 L46.633125,21.2933388 L46.633125,14.2602138 L48.406875,14.2602138 L48.406875,21.2933388 L55.44,21.2933388 Z M31.535625,35.6689638 C32.9656322,36.713969 33.9659346,37.7727084 34.5365625,38.8452138 C35.1071904,39.9177192 35.3925,41.2583308 35.3925,42.8670888 C35.3925,43.8845939 35.1484399,44.8642716 34.6603125,45.8061513 C34.1721851,46.748031 33.4846919,47.5936475 32.5978125,48.3430263 C31.7109331,49.092405 30.566257,49.6939615 29.16375,50.1477138 C27.761243,50.6014661 26.2075085,50.8283388 24.5025,50.8283388 C22.4537398,50.8283388 20.5768835,50.5705289 18.871875,50.0549013 C17.1668665,49.5392737 15.7953177,48.7795938 14.7571875,47.7758388 C13.7190573,46.7720838 13.2,45.6239703 13.2,44.3314638 C13.2,42.2552034 14.2621769,40.4058469 16.3865625,38.7833388 C18.5109481,37.1608307 21.0649851,36.3495888 24.04875,36.3495888 L25.966875,36.3495888 C24.9906201,35.4008341 24.5025,34.3902192 24.5025,33.3177138 C24.5025,32.56146 24.6812482,31.867092 25.03875,31.2345888 C24.8049988,31.2620889 24.4612523,31.2758388 24.0075,31.2758388 C21.5324876,31.2758388 19.5112578,30.5058465 17.94375,28.9658388 C16.3762422,27.4258311 15.5925,25.5214751 15.5925,23.2527138 C15.5925,21.8364567 16.0462455,20.4992826 16.95375,19.2411513 C17.8612545,17.98302 19.0574926,16.986155 20.5425,16.2505263 C22.0275074,15.5148976 23.5881168,15.1470888 25.224375,15.1470888 L36.279375,15.1470888 L33.78375,16.9414638 L30.256875,16.9414638 C31.3843806,17.3677159 32.2609344,18.1686454 32.8865625,19.3442763 C33.5121906,20.5199072 33.825,21.8433314 33.825,23.3145888 C33.825,25.55585 32.7868854,27.4739558 30.710625,29.0689638 C29.8443707,29.7702173 29.2771888,30.3236493 29.0090625,30.7292763 C28.7409362,31.1349033 28.606875,31.6402108 28.606875,32.2452138 C28.606875,32.7127161 28.9334342,33.2936478 29.5865625,33.9880263 C30.2396908,34.6824048 30.8893718,35.2427117 31.535625,35.6689638 L31.535625,35.6689638 Z M25.61625,30.1414638 C27.0325071,30.1964641 28.1565583,29.5777203 28.9884375,28.2852138 C29.8203167,26.9927073 30.1125012,25.4114731 29.865,23.5414638 C29.6312488,21.6714544 28.9231309,20.0764704 27.740625,18.7564638 C26.5581191,17.4364572 25.2450072,16.755839 23.80125,16.7145888 C22.3849929,16.6595885 21.2609417,17.2645825 20.4290625,18.5295888 C19.5971833,19.7945951 19.3049988,21.3552045 19.5525,23.2114638 C19.8000012,25.0814731 20.5184316,26.6936445 21.7078125,28.0480263 C22.8971934,29.4024081 24.1999929,30.1002136 25.61625,30.1414638 L25.61625,30.1414638 Z M24.5025,49.0752138 C27.307514,49.0752138 29.3424937,48.5492816 30.6075,47.4974013 C31.8725063,46.445521 32.505,45.0464725 32.505,43.3002138 C32.505,43.0664626 32.4775003,42.6883414 32.4225,42.1658388 C32.3399996,41.8770874 32.2128134,41.5917777 32.0409375,41.3099013 C31.8690616,41.0280249 31.7178132,40.7977147 31.5871875,40.6189638 C31.4565618,40.4402129 31.2056269,40.2030278 30.834375,39.9074013 C30.4631231,39.6117748 30.2053132,39.4089643 30.0609375,39.2989638 C29.9165618,39.1889632 29.5728152,38.9449032 29.0296875,38.5667763 C28.4865598,38.1886494 28.1325008,37.9445893 27.9675,37.8345888 C27.169996,37.6008376 26.2556302,37.4495891 25.224375,37.3808388 C23.821868,37.3808388 22.5053187,37.6386487 21.2746875,38.1542763 C20.0440563,38.6699039 19.0575037,39.3745843 18.315,40.2683388 C17.5724963,41.1620933 17.20125,42.1245836 17.20125,43.1558388 C17.20125,44.792097 17.8921806,46.187708 19.2740625,47.3427138 C20.6559444,48.4977196 22.3987395,49.0752138 24.5025,49.0752138 L24.5025,49.0752138 Z" id="googleplus" fill="#FFFFFF" sketch:type="MSShapeGroup"></path>
            </g>
        </g>
    </g>
</svg>