<?xml version="1.0" encoding="UTF-8" standalone="no"?>
<svg width="19px" height="25px" viewBox="0 0 19 25" version="1.1" xmlns="http://www.w3.org/2000/svg" xmlns:xlink="http://www.w3.org/1999/xlink" xmlns:sketch="http://www.bohemiancoding.com/sketch/ns">
    <!-- Generator: Sketch 3.3.1 (12002) - http://www.bohemiancoding.com/sketch -->
    <title>icon-download-pdf</title>
    <desc>Created with Sketch.</desc>
    <defs></defs>
    <g id="Page-1" stroke="none" stroke-width="1" fill="none" fill-rule="evenodd" sketch:type="MSPage">
        <g id="icon-download-pdf" sketch:type="MSLayerGroup" fill="#D85F81">
            <path d="M12.0308,6.5074 L12.0308,0.5074 L18.0308,6.5074 L12.0308,6.5074 Z M14.0308,11.0074 L5.0308,11.0074 C4.7548,11.0074 4.5308,10.7834 4.5308,10.5074 C4.5308,10.2314 4.7548,10.0074 5.0308,10.0074 L14.0308,10.0074 C14.3068,10.0074 14.5308,10.2314 14.5308,10.5074 C14.5308,10.7834 14.3068,11.0074 14.0308,11.0074 L14.0308,11.0074 Z M14.0308,14.0074 L5.0308,14.0074 C4.7548,14.0074 4.5308,13.7834 4.5308,13.5074 C4.5308,13.2314 4.7548,13.0074 5.0308,13.0074 L14.0308,13.0074 C14.3068,13.0074 14.5308,13.2314 14.5308,13.5074 C14.5308,13.7834 14.3068,14.0074 14.0308,14.0074 L14.0308,14.0074 Z M14.0308,17.0074 L5.0308,17.0074 C4.7548,17.0074 4.5308,16.7834 4.5308,16.5074 C4.5308,16.2314 4.7548,16.0074 5.0308,16.0074 L14.0308,16.0074 C14.3068,16.0074 14.5308,16.2314 14.5308,16.5074 C14.5308,16.7834 14.3068,17.0074 14.0308,17.0074 L14.0308,17.0074 Z M14.0308,20.0074 L5.0308,20.0074 C4.7548,20.0074 4.5308,19.7834 4.5308,19.5074 C4.5308,19.2314 4.7548,19.0074 5.0308,19.0074 L14.0308,19.0074 C14.3068,19.0074 14.5308,19.2314 14.5308,19.5074 C14.5308,19.7834 14.3068,20.0074 14.0308,20.0074 L14.0308,20.0074 Z M5.0308,7.0074 L9.5308,7.0074 C9.8068,7.0074 10.0308,7.2314 10.0308,7.5074 C10.0308,7.7834 9.8068,8.0074 9.5308,8.0074 L5.0308,8.0074 C4.7548,8.0074 4.5308,7.7834 4.5308,7.5074 C4.5308,7.2314 4.7548,7.0074 5.0308,7.0074 L5.0308,7.0074 Z M18.3838,6.1534 L12.3838,0.1534 C12.2908,0.0604 12.1628,0.0074 12.0308,0.0074 L1.0308,0.0074 C0.7548,0.0074 0.5308,0.2314 0.5308,0.5074 L0.5308,23.5074 C0.5308,23.7834 0.7548,24.0074 1.0308,24.0074 L18.0308,24.0074 C18.3068,24.0074 18.5308,23.7834 18.5308,23.5074 L18.5308,6.5074 C18.5308,6.3744 18.4778,6.2474 18.3838,6.1534 L18.3838,6.1534 Z" id="Fill-1887" sketch:type="MSShapeGroup"></path>
        </g>
    </g>
</svg>