<?xml version="1.0" encoding="UTF-8" standalone="no"?>
<svg width="66px" height="67px" viewBox="0 0 66 67" version="1.1" xmlns="http://www.w3.org/2000/svg" xmlns:xlink="http://www.w3.org/1999/xlink" xmlns:sketch="http://www.bohemiancoding.com/sketch/ns">
    <!-- Generator: Sketch 3.3.1 (12002) - http://www.bohemiancoding.com/sketch -->
    <title>PALS-green</title>
    <desc>Created with Sketch.</desc>
    <defs></defs>
    <g id="Page-1" stroke="none" stroke-width="1" fill="none" fill-rule="evenodd" sketch:type="MSPage">
        <g id="Social-icons" sketch:type="MSArtboardGroup" transform="translate(-226.000000, -1268.000000)">
            <g id="PALS-green" sketch:type="MSLayerGroup" transform="translate(226.000000, 1268.087402)">
                <rect id="Rectangle-2-Copy" fill="#73B85B" sketch:type="MSShapeGroup" x="0" y="0" width="66" height="66" rx="5"></rect>
                <g id="pals" transform="translate(11.314286, 13.035184)" fill="#FFFFFF" sketch:type="MSShapeGroup">
                    <path d="M37.9472912,22.808298 C36.7274136,22.432951 35.3639374,22.0135293 34.1426381,21.5514544 L34.1426381,19.6633456 C34.899019,19.2723592 36.2198422,18.2657469 36.3833456,15.9639034 C36.9875973,15.517468 37.3003864,14.4937946 37.3003864,13.4786517 C37.3003864,13.0947741 37.2506245,12.5388626 37.0146109,12.0654136 C36.9179306,11.8706313 36.7956585,11.7057061 36.6549034,11.5734816 C37.0828558,10.8156789 37.726917,9.49343401 37.2591551,8.0901483 C36.6435293,6.24327075 34.0971415,5.58783537 32.1038218,5.58783537 C30.3209238,5.58783537 28.0972776,6.11104626 27.2058286,7.54134558 C26.2788354,7.48731837 25.8068082,7.87830476 25.5821687,8.20531156 C24.9580122,9.11666531 25.4641619,10.5213728 25.8380871,11.4938626 C25.6589442,11.6346177 25.5053932,11.8222912 25.3888082,12.0497741 C25.1456857,12.5203796 25.0959238,13.0762912 25.0959238,13.4587469 C25.0959238,14.4866857 25.4158218,15.5245769 26.0342912,15.9710122 C26.2034816,18.0866041 27.4773864,19.224019 28.4555633,19.6860939 L28.4555633,21.5514544 C27.9721619,21.7348626 27.4631687,21.9097401 26.9527537,22.0789306 C28.8920463,23.3826925 29.877332,24.5570735 29.877332,25.5921211 L29.877332,34.1227333 L41.962366,34.1227333 C42.3561959,34.1227333 42.6732503,33.8042571 42.6732503,33.411849 L42.6732503,25.3447333 C42.6732503,24.3039986 41.3097741,23.8433456 37.9472912,22.808298" id="Fill-4182"></path>
                    <path d="M25.1762537,22.6462163 C25.1620361,22.6504816 25.1492401,22.6547469 25.1350224,22.6590122 C25.0227027,22.5950327 24.9174918,22.5324748 24.7980633,22.4656517 C22.9227503,21.4092776 20.6024238,20.2903456 18.5038932,19.427332 L18.5038932,18.9510395 L18.5038932,17.0885224 L18.5038932,16.7629374 C18.5707163,16.7145973 18.6432265,16.654883 18.7171585,16.5909034 C18.7256891,16.5823728 18.7285327,16.5695769 18.7370633,16.562468 C19.2275735,16.1174544 19.8104986,15.2871415 20.0934306,13.8099238 C20.1147571,13.6961823 20.1389272,13.5895497 20.1559884,13.4686993 C20.1730497,13.3563796 20.183002,13.2298422 20.195798,13.1089918 C20.219968,12.8886177 20.2441381,12.6696653 20.2555122,12.4236993 C20.3337095,12.376781 20.4076415,12.321332 20.4801517,12.2616177 C20.4815735,12.2601959 20.4815735,12.2573524 20.4829952,12.2559306 C20.8398592,11.9516721 21.1171041,11.4696925 21.2749204,10.9123592 C21.2777639,10.9038286 21.2791857,10.895298 21.2820293,10.8867673 C21.3090429,10.7858218 21.3332129,10.6834544 21.3545395,10.5782435 C21.3616483,10.5327469 21.3673354,10.4872503 21.3744442,10.4417537 C21.3858184,10.3678218 21.3971925,10.2953116 21.4057231,10.2199578 C21.4170973,10.0948422 21.4242061,9.96830476 21.4242061,9.84318912 C21.4242061,9.28016871 21.2962469,8.78254966 21.0573898,8.40009388 C21.055968,8.39867211 21.055968,8.39867211 21.0545463,8.39725034 C20.9166347,8.17829796 20.7446007,8.00199864 20.5441313,7.87119592 C20.6066891,7.72901905 20.674934,7.56693741 20.7431789,7.3949034 C20.8768252,7.05794422 20.9848796,6.72951565 21.0701857,6.41103946 C21.0716075,6.40250884 21.074451,6.39255646 21.0772946,6.38260408 C21.1611789,6.05986259 21.2194714,5.74707347 21.2521721,5.4413932 C21.2535939,5.43854966 21.2521721,5.43712789 21.2535939,5.43428435 C21.2820293,5.16130476 21.283451,4.89827755 21.2720769,4.63667211 C21.2692333,4.57553605 21.2678116,4.5144 21.2635463,4.45184218 C21.2422197,4.18312789 21.2052537,3.91867891 21.1412741,3.66133878 C21.1071517,3.52769252 21.0644986,3.4011551 21.0161585,3.27746122 C20.9848796,3.19784218 20.9464918,3.1196449 20.9081041,3.04286939 C20.8910429,3.00732517 20.8754034,2.97178095 20.8569204,2.9376585 C20.8014714,2.83529116 20.7417571,2.73434558 20.6735122,2.63766531 C20.6735122,2.63624354 20.6720905,2.63482177 20.6720905,2.6334 C20.3820497,2.2154 19.986798,1.84574014 19.5033966,1.53579456 C19.4977095,1.53152925 19.4920224,1.52868571 19.4863354,1.52584218 C19.3825463,1.45901905 19.2730701,1.39503946 19.1607503,1.3339034 C18.2280701,0.839127891 17.0977639,0.570413605 16.0086891,0.475155102 C16.0058456,0.475155102 16.0015803,0.475155102 16.0001585,0.473733333 C15.8551381,0.460937415 15.7129612,0.452406803 15.5707844,0.445297959 C15.407281,0.439610884 15.240934,0.43392381 15.0731653,0.43392381 C14.7760156,0.43392381 14.4873966,0.448141497 14.2044646,0.469468027 C14.1191585,0.476576871 14.0352741,0.486529252 13.949968,0.495059864 C13.777934,0.512121088 13.6101653,0.534869388 13.4452401,0.560461224 C13.2916891,0.584631293 13.1381381,0.611644898 12.9845871,0.64292381 C12.8879068,0.662828571 12.7940701,0.684155102 12.6988116,0.706903401 C12.5267776,0.748134694 12.3561653,0.795053061 12.1883966,0.846236735 C12.0177844,0.898842177 11.8471721,0.952869388 11.687934,1.01542721 C11.6339068,1.03533197 11.5827231,1.05950204 11.5315395,1.08082857 C10.6031245,1.4703932 9.87091361,2.02488299 9.41879116,2.71728435 C9.41310408,2.72723673 9.4031517,2.73434558 9.39746463,2.74287619 C9.33632857,2.8424 9.27661429,2.94334558 9.22543061,3.04855646 C9.08183197,3.03718231 8.94676395,3.03718231 8.82022653,3.04429116 C8.65103605,3.0514 8.50317211,3.07841361 8.36526054,3.11111429 C8.32118571,3.12106667 8.27426735,3.12959728 8.23303605,3.1423932 C8.11360748,3.18078095 8.00697483,3.22627755 7.91171633,3.27746122 C7.87332857,3.29878776 7.83494082,3.32011429 7.7993966,3.34286259 C7.71266871,3.39973333 7.63162789,3.45802585 7.56622653,3.52058367 C7.54632177,3.54048844 7.52926054,3.55897143 7.51077755,3.57745442 C7.44395442,3.64854286 7.38281837,3.71963129 7.33732177,3.78787619 C7.25059388,3.91725714 7.18945782,4.05943401 7.14253946,4.20587619 C7.13116531,4.24142041 7.12547823,4.27838639 7.11694762,4.31535238 C7.08566871,4.43193741 7.06292041,4.55278776 7.05154626,4.6779034 C7.04870272,4.71629116 7.04870272,4.75467891 7.04728095,4.79306667 C7.04159388,4.92386939 7.04301565,5.05609388 7.05581156,5.1911619 C7.0586551,5.22670612 7.06149864,5.26225034 7.06576395,5.29779456 C7.0814034,5.43854966 7.10557347,5.5821483 7.13543061,5.72716871 C7.14253946,5.75844762 7.14822653,5.7911483 7.15533537,5.82242721 C7.18945782,5.97171293 7.23068912,6.12099864 7.27476395,6.26886259 C7.28329456,6.29729796 7.29182517,6.3271551 7.30035578,6.35559048 C7.34869592,6.51056327 7.40272313,6.66411429 7.45675034,6.81482177 C7.46528095,6.8361483 7.47096803,6.85747483 7.47949864,6.87880136 C7.60887959,7.22429116 7.74821293,7.5541415 7.8719068,7.84702585 C7.87332857,7.84844762 7.87332857,7.85129116 7.87475034,7.85413469 C7.65579796,7.98778095 7.46812449,8.17403265 7.31883878,8.40578095 C7.07002925,8.79250204 6.93780476,9.30149524 6.93780476,9.87304626 C6.93780476,9.99674014 6.94491361,10.1218558 6.95628776,10.2455497 C6.96481837,10.3209034 6.97619252,10.3962571 6.98898844,10.4701891 C6.99467551,10.5128422 6.99894082,10.5554952 7.00747143,10.5981483 C7.02737619,10.7033592 7.05296803,10.8071483 7.07998163,10.9095156 C7.08282517,10.9152027 7.08424694,10.9208898 7.08566871,10.9279986 C7.24206327,11.4782231 7.51788639,11.9559374 7.87048503,12.2573524 C7.8719068,12.2587741 7.87332857,12.2616177 7.87332857,12.2616177 C7.94583878,12.321332 8.01977075,12.3782027 8.0993898,12.4236993 C8.11218571,12.7080531 8.14062109,12.9653932 8.17332177,13.2156245 C8.18185238,13.2838694 8.18753946,13.3578014 8.19749184,13.4232027 C8.50601565,15.4506449 9.40172993,16.3762163 9.97328095,16.7672027 L9.97328095,17.1240667 L9.97328095,18.9510395 L9.97328095,19.427332 C7.87475034,20.2903456 5.55442381,21.4092776 3.67768912,22.4656517 C2.99381837,22.850951 2.43648503,23.1879102 1.98436259,23.4836381 C0.65927415,24.4035224 0.0209,25.131468 0.0209,25.5921211 L0.0209,33.411849 C0.0209,33.8042571 0.33937619,34.1227333 0.731784354,34.1227333 L20.6365463,34.1227333 L27.7453898,34.1227333 L28.4562741,34.1227333 L28.4562741,33.411849 L28.4562741,25.5921211 C28.4562741,24.9992435 27.4041653,23.9641959 25.1762537,22.6462163" id="Fill-4183"></path>
                </g>
            </g>
        </g>
    </g>
</svg>