<?xml version="1.0" encoding="UTF-8" standalone="no"?>
<svg width="66px" height="66px" viewBox="0 0 66 66" version="1.1" xmlns="http://www.w3.org/2000/svg" xmlns:xlink="http://www.w3.org/1999/xlink" xmlns:sketch="http://www.bohemiancoding.com/sketch/ns">
    <!-- Generator: Sketch 3.3.1 (12002) - http://www.bohemiancoding.com/sketch -->
    <title>instagram-blue</title>
    <desc>Created with Sketch.</desc>
    <defs></defs>
    <g id="Page-1" stroke="none" stroke-width="1" fill="none" fill-rule="evenodd" sketch:type="MSPage">
        <g id="Social-icons" sketch:type="MSArtboardGroup" transform="translate(-606.000000, -322.000000)">
            <g id="instagram-blue" sketch:type="MSLayerGroup" transform="translate(606.000000, 322.000000)">
                <rect id="Rectangle-2-Copy-9" fill="#1781A2" sketch:type="MSShapeGroup" x="0" y="0" width="66" height="66" rx="5"></rect>
                <path d="M45.6834542,15.0852138 C47.1296668,15.0852138 48.3630111,15.5954626 49.383524,16.6159755 C50.4040369,17.6364884 50.9142857,18.8698327 50.9142857,20.3160453 L50.9142857,45.6829538 C50.9142857,47.1291663 50.4040369,48.3625106 49.383524,49.3830235 C48.3630111,50.4035364 47.1296668,50.9137852 45.6834542,50.9137852 L20.3165458,50.9137852 C18.8703332,50.9137852 17.6369889,50.4035364 16.616476,49.3830235 C15.5959631,48.3625106 15.0857143,47.1291663 15.0857143,45.6829538 L15.0857143,20.3160453 C15.0857143,18.8698327 15.5959631,17.6364884 16.616476,16.6159755 C17.6369889,15.5954626 18.8703332,15.0852138 20.3165458,15.0852138 L45.6834542,15.0852138 Z M33,26.2816424 C31.1455822,26.2816424 29.5623531,26.9376765 28.2502651,28.2497646 C26.938177,29.5618526 26.2821429,31.1450818 26.2821429,32.9994995 C26.2821429,34.8539173 26.938177,36.4371464 28.2502651,37.7492344 C29.5623531,39.0613225 31.1455822,39.7173567 33,39.7173567 C34.8544178,39.7173567 36.4376469,39.0613225 37.7497349,37.7492344 C39.061823,36.4371464 39.7178571,34.8539173 39.7178571,32.9994995 C39.7178571,31.1450818 39.061823,29.5618526 37.7497349,28.2497646 C36.4376469,26.9376765 34.8544178,26.2816424 33,26.2816424 L33,26.2816424 Z M47.1879743,46.4352138 L47.1879743,30.7602138 L43.2167411,30.7602138 C43.3683601,31.4483311 43.4441685,32.1947522 43.4441685,32.9994995 C43.4441685,34.8889063 42.9776553,36.635415 42.044615,38.2390782 C41.1115746,39.8427413 39.8432418,41.1110741 38.2395787,42.0441145 C36.6359155,42.9771548 34.8894068,43.443668 33,43.443668 C31.1105932,43.443668 29.3640845,42.9771548 27.7604213,42.0441145 C26.1567582,41.1110741 24.8884254,39.8427413 23.955385,38.2390782 C23.0223447,36.635415 22.5558315,34.8889063 22.5558315,32.9994995 C22.5558315,32.1947522 22.6316399,31.4483311 22.7832589,30.7602138 L18.8120257,30.7602138 L18.8120257,46.4352138 C18.8120257,46.6451479 18.8849184,46.823006 19.0307059,46.9687936 C19.1764935,47.1145812 19.3543516,47.1874738 19.5642857,47.1874738 L46.4357143,47.1874738 C46.6456484,47.1874738 46.8235065,47.1145812 46.9692941,46.9687936 C47.1150816,46.823006 47.1879743,46.6451479 47.1879743,46.4352138 L47.1879743,46.4352138 Z M47.1879743,24.0423567 L47.1879743,19.5637852 C47.1879743,19.3538511 47.1150816,19.175993 46.9692941,19.0302054 C46.8235065,18.8844179 46.6456484,18.8115252 46.4357143,18.8115252 L41.9571429,18.8115252 C41.7472088,18.8115252 41.5693506,18.8844179 41.4235631,19.0302054 C41.2777755,19.175993 41.2048828,19.3538511 41.2048828,19.5637852 L41.2048828,24.0423567 C41.2048828,24.2522907 41.2777755,24.4301489 41.4235631,24.5759365 C41.5693506,24.721724 41.7472088,24.7946167 41.9571429,24.7946167 L46.4357143,24.7946167 C46.6456484,24.7946167 46.8235065,24.721724 46.9692941,24.5759365 C47.1150816,24.4301489 47.1879743,24.2522907 47.1879743,24.0423567 L47.1879743,24.0423567 Z" id="instagram" fill="#FFFFFF" sketch:type="MSShapeGroup"></path>
            </g>
        </g>
    </g>
</svg>