<?xml version="1.0" encoding="UTF-8" standalone="no"?>
<svg width="66px" height="65px" viewBox="0 0 66 65" version="1.1" xmlns="http://www.w3.org/2000/svg" xmlns:xlink="http://www.w3.org/1999/xlink" xmlns:sketch="http://www.bohemiancoding.com/sketch/ns">
    <!-- Generator: Sketch 3.3.1 (12002) - http://www.bohemiancoding.com/sketch -->
    <title>icon-download-spreadsheet-green</title>
    <desc>Created with Sketch.</desc>
    <defs></defs>
    <g id="Page-1" stroke="none" stroke-width="1" fill="none" fill-rule="evenodd" sketch:type="MSPage">
        <g id="Social-icons" sketch:type="MSArtboardGroup" transform="translate(-530.000000, -1966.000000)">
            <g id="Green-doc-download-" sketch:type="MSLayerGroup" transform="translate(150.000000, 1966.000000)">
                <g id="icon-download-spreadsheet-green" transform="translate(380.000000, 0.000000)" sketch:type="MSShapeGroup">
                    <rect id="Rectangle-2-Copy-10" fill="#73B85B" x="0" y="0.16023763" width="66" height="64.1666667" rx="5"></rect>
                    <g id="Group-Copy" transform="translate(17.914286, 11.000000)" fill="#FFFFFF">
                        <path d="M11.7333333,29.3333333 L6.7047619,29.3333333 L6.7047619,32.5925926 L11.7333333,32.5925926 L11.7333333,29.3333333 Z" id="Fill-1903"></path>
                        <path d="M23.4666667,29.3333333 L13.4095238,29.3333333 L13.4095238,32.5925926 L23.4666667,32.5925926 L23.4666667,29.3333333 Z" id="Fill-1904"></path>
                        <path d="M23.4666667,19.5555556 L13.4095238,19.5555556 L13.4095238,22.8148148 L23.4666667,22.8148148 L23.4666667,19.5555556 Z" id="Fill-1905"></path>
                        <path d="M23.4666667,24.4444444 L13.4095238,24.4444444 L13.4095238,27.7037037 L23.4666667,27.7037037 L23.4666667,24.4444444 Z" id="Fill-1906"></path>
                        <path d="M11.7333333,19.5555556 L6.7047619,19.5555556 L6.7047619,22.8148148 L11.7333333,22.8148148 L11.7333333,19.5555556 Z" id="Fill-1907"></path>
                        <path d="M11.7333333,24.4444444 L6.7047619,24.4444444 L6.7047619,27.7037037 L11.7333333,27.7037037 L11.7333333,24.4444444 Z" id="Fill-1908"></path>
                        <path d="M23.4666667,14.6666667 L13.4095238,14.6666667 L13.4095238,17.9259259 L23.4666667,17.9259259 L23.4666667,14.6666667 Z" id="Fill-1909"></path>
                        <path d="M11.7333333,14.6666667 L6.7047619,14.6666667 L6.7047619,17.9259259 L11.7333333,17.9259259 L11.7333333,14.6666667 Z" id="Fill-1910"></path>
                        <path d="M19.2761905,10.5925926 L19.2761905,0.814814815 L29.3333333,10.5925926 L19.2761905,10.5925926 Z M25.1428571,34.2222222 L5.02857143,34.2222222 L5.02857143,13.037037 L25.1428571,13.037037 L25.1428571,34.2222222 Z M29.9258667,10.0165185 L19.8687238,0.238740741 C19.7111619,0.0855555556 19.4982857,0 19.2761905,0 L0.838095238,0 C0.375466667,0 0,0.364222222 0,0.814814815 L0,38.2962963 C0,38.7468889 0.375466667,39.1111111 0.838095238,39.1111111 L29.3333333,39.1111111 C29.7959619,39.1111111 30.1714286,38.7468889 30.1714286,38.2962963 L30.1714286,10.5925926 C30.1714286,10.3758519 30.0825905,10.1688889 29.9258667,10.0165185 L29.9258667,10.0165185 Z" id="Fill-1911"></path>
                    </g>
                </g>
            </g>
        </g>
    </g>
</svg>