<?xml version="1.0" encoding="UTF-8" standalone="no"?>
<svg width="66px" height="65px" viewBox="0 0 66 65" version="1.1" xmlns="http://www.w3.org/2000/svg" xmlns:xlink="http://www.w3.org/1999/xlink" xmlns:sketch="http://www.bohemiancoding.com/sketch/ns">
    <!-- Generator: Sketch 3.3.1 (12002) - http://www.bohemiancoding.com/sketch -->
    <title>icon-link-external-green</title>
    <desc>Created with Sketch.</desc>
    <defs></defs>
    <g id="Page-1" stroke="none" stroke-width="1" fill="none" fill-rule="evenodd" sketch:type="MSPage">
        <g id="Social-icons" sketch:type="MSArtboardGroup" transform="translate(-150.000000, -1966.000000)">
            <g id="Green-doc-download-" sketch:type="MSLayerGroup" transform="translate(150.000000, 1966.000000)">
                <g id="icon-link-external-green" sketch:type="MSShapeGroup">
                    <rect id="Rectangle-2" fill="#73B85B" x="0" y="0.16023763" width="66" height="64.1666667" rx="5"></rect>
                    <g id="link-copy" transform="translate(1.885714, 3.666667)" fill="#FFFFFF">
                        <path d="M55.3824766,24.9195685 C55.3612763,24.8196823 55.323768,24.7261381 55.2944137,24.6294229 C55.2634286,24.5279513 55.2405975,24.4248941 55.1981968,24.3265934 C55.1509038,24.2140232 55.085672,24.110966 55.0253326,24.0047379 C54.9829319,23.9302196 54.950316,23.8541158 54.9013921,23.7811831 C54.7790825,23.6051931 54.6420957,23.4403016 54.488801,23.2896796 L44.7284932,13.7656105 C43.4597347,12.5257534 41.3951483,12.5225824 40.1166051,13.7560976 C38.8413234,14.9911983 38.836431,17.0000205 40.1084511,18.2398777 L44.3224253,22.3542375 L21.1993836,22.3256986 L21.1667677,22.3256986 C16.4668166,22.3256986 13.8624371,24.3281789 12.5056157,26.0088037 C10.9465757,27.9415222 10.1181319,30.579786 10.1132395,33.6397916 C10.1034547,38.5294584 12.7665429,47.6571537 17.8937622,47.6666667 L17.9002854,47.6666667 C19.6990522,47.6666667 21.1586137,46.2508195 21.1618753,44.5020185 C21.1651369,43.0956843 20.225799,41.9018065 18.9244246,41.4832358 C17.7355751,40.0626322 15.7036046,34.4008292 17.0848879,30.8984705 C17.5203102,29.794966 18.3454924,28.6676789 21.1683985,28.6676789 L21.1895988,28.6676789 L44.2979633,28.6962179 L40.0790968,32.7820387 C38.8021843,34.0171394 38.7989228,36.0259617 40.069312,37.2658188 C40.7069529,37.8889184 41.5435507,38.1996755 42.3801485,38.1996755 C43.2134847,38.1996755 44.0451901,37.8920894 44.682831,37.2753318 L54.4855394,27.7813872 L54.4871702,27.7798017 C54.6388342,27.6323506 54.7741901,27.4706301 54.894869,27.2978112 C54.9470544,27.2201219 54.9829319,27.1376762 55.0285941,27.0568159 C55.085672,26.9569297 55.149273,26.858629 55.1949352,26.7524009 C55.2373359,26.6509292 55.2617978,26.5462865 55.2927829,26.4432293 C55.323768,26.3480996 55.3612763,26.2577264 55.3808459,26.1594257 C55.4232465,25.9564823 55.4444469,25.750368 55.4444469,25.5442536 L55.4460777,25.5394971 C55.4460777,25.5157147 55.4395545,25.4966888 55.4395545,25.4729063 C55.4362929,25.2874034 55.4199849,25.1019005 55.3824766,24.9195685" id="Fill-2488"></path>
                    </g>
                </g>
            </g>
        </g>
    </g>
</svg>