<?xml version="1.0" encoding="UTF-8" standalone="no"?>
<svg width="45px" height="29px" viewBox="0 0 45 29" version="1.1" xmlns="http://www.w3.org/2000/svg" xmlns:xlink="http://www.w3.org/1999/xlink" xmlns:sketch="http://www.bohemiancoding.com/sketch/ns">
    <!-- Generator: Sketch 3.3.1 (12002) - http://www.bohemiancoding.com/sketch -->
    <title>email-blue2</title>
    <desc>Created with Sketch.</desc>
    <defs></defs>
    <g id="Page-1" stroke="none" stroke-width="1" fill="none" fill-rule="evenodd" sketch:type="MSPage">
        <g id="Social-icons" sketch:type="MSArtboardGroup" transform="translate(-541.000000, -2162.000000)" fill="#1781A2">
            <g id="Email-&amp;-Tel-Copy-4" sketch:type="MSLayerGroup" transform="translate(541.500000, 2156.587402)">
                <g id="Blue" sketch:type="MSShapeGroup">
                    <g id="email-blue2" transform="translate(0.000000, 5.912598)">
                        <path d="M43.1120286,2.12266667 L22.621,17.5465 C22.4396286,17.6821667 22.2188286,17.75 22,17.75 C21.7811714,17.75 21.5603714,17.6821667 21.379,17.5465 L0.889942857,2.12266667 C0.533114286,2.6745 0.314285714,3.31066667 0.314285714,4 L0.314285714,24.1666667 C0.314285714,26.1888333 2.08265714,27.8333333 4.25714286,27.8333333 L39.7428571,27.8333333 C41.9173429,27.8333333 43.6857143,26.1888333 43.6857143,24.1666667 L43.6857143,4 C43.6857143,3.31066667 43.4668857,2.6745 43.1120286,2.12266667" id="Fill-100"></path>
                        <path d="M41.6906286,0.832 C41.113,0.522166667 40.4545429,0.333333333 39.7428571,0.333333333 L4.25714286,0.333333333 C3.54545714,0.333333333 2.887,0.522166667 2.30937143,0.832 L22,15.6545 L41.6906286,0.832" id="Fill-101"></path>
                    </g>
                </g>
            </g>
        </g>
    </g>
</svg>