<?xml version="1.0" encoding="UTF-8" standalone="no"?>
<svg width="42px" height="41px" viewBox="0 0 42 41" version="1.1" xmlns="http://www.w3.org/2000/svg" xmlns:xlink="http://www.w3.org/1999/xlink" xmlns:sketch="http://www.bohemiancoding.com/sketch/ns">
    <!-- Generator: Sketch 3.3.1 (12002) - http://www.bohemiancoding.com/sketch -->
    <title>tv-blue2</title>
    <desc>Created with Sketch.</desc>
    <defs></defs>
    <g id="Page-1" stroke="none" stroke-width="1" fill="none" fill-rule="evenodd" sketch:type="MSPage">
        <g id="Social-icons" sketch:type="MSArtboardGroup" transform="translate(-801.000000, -747.000000)" fill="#1781A2">
            <g id="TABLE-ICONS" sketch:type="MSLayerGroup" transform="translate(150.000000, 518.000000)">
                <g id="Group" transform="translate(0.000000, 220.000000)" sketch:type="MSShapeGroup">
                    <g id="tv-blue2" transform="translate(650.590909, 8.000000)">
                        <g id="tv" transform="translate(0.704433, 0.542857)">
                            <path d="M34.418118,23.4378318 C32.5220986,23.4378318 30.9783151,21.8940483 30.9783151,19.9980289 C30.9783151,18.1020095 32.5220986,16.5582259 34.418118,16.5582259 C36.3141374,16.5582259 37.857921,18.1020095 37.857921,19.9980289 C37.857921,21.8940483 36.3141374,23.4378318 34.418118,23.4378318 L34.418118,23.4378318 Z M34.418118,33.0692801 C32.5220986,33.0692801 30.9783151,31.5254965 30.9783151,29.6294772 C30.9783151,27.7334578 32.5220986,26.1896742 34.418118,26.1896742 C36.3141374,26.1896742 37.857921,27.7334578 37.857921,29.6294772 C37.857921,31.5254965 36.3141374,33.0692801 34.418118,33.0692801 L34.418118,33.0692801 Z M28.9144333,33.0692801 C28.9144333,33.8728181 28.4356127,37.8850042 18.9844101,37.8850042 L13.7793003,37.8850042 C5.39856435,37.8850042 4.147852,34.7176337 4.147852,32.8298698 L4.147852,18.9509529 C4.147852,14.4943441 11.3975807,14.4943441 13.7793003,14.4943441 L18.9844101,14.4943441 C25.5736966,14.4943441 28.9144333,16.0739017 28.9144333,19.1903631 L28.9144333,33.0692801 Z M36.4819998,11.7425018 L28.8415095,11.7425018 C28.5140402,10.0569983 27.0252935,8.52422214 25.1801832,7.50604047 L30.7774306,1.91016902 C31.0457352,1.64048847 31.0457352,1.20569737 30.7774306,0.93601682 C30.50775,0.667712189 30.0729589,0.667712189 29.8046543,0.93601682 L23.8537952,6.88687593 C22.7943359,6.47822734 21.6880952,6.23881706 20.6589062,6.23881706 C19.6297171,6.23881706 18.5234765,6.47822734 17.4640172,6.88687593 L11.514534,0.93601682 C11.2448535,0.667712189 10.8100624,0.667712189 10.5417577,0.93601682 C10.2720772,1.20569737 10.2720772,1.64048847 10.5417577,1.91016902 L16.1376292,7.50604047 C14.2925189,8.52422214 12.8037722,10.0569983 12.4763029,11.7425018 L4.83581259,11.7425018 C2.18028471,11.7425018 0.0200884493,13.902698 0.0200884493,16.5582259 L0.0200884493,35.8211225 C0.0200884493,38.4766504 2.18028471,40.6368466 4.83581259,40.6368466 L36.4819998,40.6368466 C39.1375277,40.6368466 41.2977239,38.4766504 41.2977239,35.8211225 L41.2977239,16.5582259 C41.2977239,13.902698 39.1375277,11.7425018 36.4819998,11.7425018 L36.4819998,11.7425018 Z" id="Fill-857"></path>
                        </g>
                    </g>
                </g>
            </g>
        </g>
    </g>
</svg>