<?xml version="1.0" encoding="UTF-8" standalone="no"?>
<svg width="66px" height="66px" viewBox="0 0 66 66" version="1.1" xmlns="http://www.w3.org/2000/svg" xmlns:xlink="http://www.w3.org/1999/xlink" xmlns:sketch="http://www.bohemiancoding.com/sketch/ns">
    <!-- Generator: Sketch 3.3.1 (12002) - http://www.bohemiancoding.com/sketch -->
    <title>pinterest-green</title>
    <desc>Created with Sketch.</desc>
    <defs></defs>
    <g id="Page-1" stroke="none" stroke-width="1" fill="none" fill-rule="evenodd" sketch:type="MSPage">
        <g id="Social-icons" sketch:type="MSArtboardGroup" transform="translate(-530.000000, -348.000000)">
            <g id="pinterest-green" sketch:type="MSLayerGroup" transform="translate(530.000000, 348.000000)">
                <rect id="Rectangle-2-Copy-4" fill="#73B85B" sketch:type="MSShapeGroup" x="0" y="0" width="66" height="66" rx="5"></rect>
                <path d="M34.4221953,11.3137852 C36.7375595,11.3137852 38.894063,11.7090854 40.8917705,12.4996975 C42.8894781,13.2903097 44.5589153,14.3456199 45.9001324,15.6656599 C47.2413495,16.9856999 48.2931302,18.5068996 49.0555062,20.2293046 C49.8178823,21.9517097 50.1990645,23.7305604 50.1990645,25.5659101 C50.1990645,28.7989491 49.641409,31.7107583 48.5260811,34.3014249 C47.4107532,36.8920916 45.8295526,38.9285933 43.7824318,40.4109911 C41.735311,41.8933889 39.4058637,42.6345767 36.7940199,42.6345767 C35.4669209,42.6345767 34.2280785,42.3381016 33.0774554,41.7451424 C31.9268324,41.1521833 31.1256437,40.4321723 30.6738653,39.5850878 C29.7279543,43.3969679 29.142063,45.6699438 28.9161738,46.4040837 C28.6055762,47.5758839 28.0726269,48.8394326 27.3173099,50.1947677 C26.5619929,51.5501028 25.9584543,52.5383532 25.5066759,53.1595485 C25.0548975,53.7807438 24.7019509,54.2395743 24.4478256,54.5360539 C24.334881,54.6631165 24.2113497,54.7089996 24.077228,54.6737044 C23.9431063,54.6384092 23.8619286,54.5572315 23.8336924,54.4301688 C23.8336924,54.4160508 23.8089862,54.2184007 23.7595729,53.8372127 C23.7101597,53.4560247 23.6642766,53.0571951 23.6219224,52.6407119 C23.5795682,52.2242287 23.5442735,51.680691 23.5160373,51.0100824 C23.4878012,50.3394739 23.4772128,49.6935817 23.4842718,49.0723864 C23.4913309,48.4511911 23.530155,47.7664748 23.6007454,47.0182168 C23.6713357,46.2699589 23.7842786,45.5781836 23.9395775,44.9428703 L27.0949513,31.3895866 C26.6008187,30.316613 26.3537561,28.9965928 26.3537561,27.4294866 C26.3537561,25.5800188 26.8125866,24.0447013 27.7302615,22.8234878 C28.6479363,21.6022744 29.7773653,20.9916768 31.1185824,20.9916768 C32.2056741,20.9916768 33.038628,21.3410939 33.6174691,22.0399386 C34.1963101,22.7387833 34.4857263,23.6317381 34.4857263,24.7188298 C34.4857263,25.3823793 34.362195,26.1941564 34.1151287,27.1541855 C33.8680624,28.1142146 33.5433516,29.2330552 33.1409864,30.5107409 C32.7386213,31.7884266 32.4456757,32.8013833 32.2621407,33.5496412 C31.9656611,34.8626221 32.2233121,35.9955806 33.0351014,36.9485506 C33.8468907,37.9015207 34.9163188,38.3779985 36.2434178,38.3779985 C37.7822879,38.3779985 39.15525,37.7709304 40.3623454,36.556776 C41.5694408,35.3426216 42.4976902,33.7331853 43.1471216,31.7284187 C43.7965531,29.7236522 44.1212639,27.5212656 44.1212639,25.1211929 C44.1212639,22.2975781 43.2106618,19.9998959 41.3894302,18.2280776 C39.5681986,16.4562593 37.0340422,15.5703634 33.7868851,15.5703634 C31.9515354,15.5703634 30.250333,15.8950742 28.6832267,16.5445056 C27.1161205,17.1939371 25.8137477,18.0692445 24.7760692,19.1704543 C23.7383907,20.2716641 22.9301431,21.5387423 22.351302,22.9717269 C21.772461,24.4047114 21.4830448,25.9047343 21.4830448,27.4718406 C21.4830448,29.4201348 22.0336414,31.0648658 23.1348512,32.4060829 C23.3607404,32.6884444 23.4948601,32.9072713 23.5372144,33.0625701 C23.5795686,33.2178689 23.5654507,33.4508136 23.4948603,33.7614113 C23.4525061,33.9873005 23.2830918,34.65084 22.9866122,35.7520498 C22.9160218,36.0767655 22.7677843,36.2955924 22.5418951,36.408537 C22.3160059,36.5214816 22.0477665,36.5214816 21.7371689,36.408537 C20.0712361,35.7026333 18.8076874,34.495556 17.9464848,32.787269 C17.0852823,31.078982 16.6546875,29.1095402 16.6546875,26.8788844 C16.6546875,25.4388408 16.8876322,23.9952894 17.3535287,22.5481868 C17.8194251,21.1010841 18.5394361,19.6998863 19.5135833,18.3445511 C20.4877304,16.989216 21.659513,15.7927271 23.0289662,14.7550487 C24.3984194,13.7173702 26.0678567,12.8844163 28.0373281,12.256162 C30.0067994,11.6279077 32.1350672,11.3137852 34.4221953,11.3137852 L34.4221953,11.3137852 Z" id="pinterest" fill="#FFFFFF" sketch:type="MSShapeGroup"></path>
            </g>
        </g>
    </g>
</svg>