<?xml version="1.0" encoding="UTF-8" standalone="no"?>
<svg width="66px" height="66px" viewBox="0 0 66 66" version="1.1" xmlns="http://www.w3.org/2000/svg" xmlns:xlink="http://www.w3.org/1999/xlink" xmlns:sketch="http://www.bohemiancoding.com/sketch/ns">
    <!-- Generator: Sketch 3.3.1 (12002) - http://www.bohemiancoding.com/sketch -->
    <title>wifi-blue</title>
    <desc>Created with Sketch.</desc>
    <defs></defs>
    <g id="Page-1" stroke="none" stroke-width="1" fill="none" fill-rule="evenodd" sketch:type="MSPage">
        <g id="Social-icons" sketch:type="MSArtboardGroup" transform="translate(-454.000000, -688.000000)">
            <g id="wifi-blue" sketch:type="MSLayerGroup" transform="translate(454.000000, 688.000000)">
                <rect id="Rectangle-2-Copy-3" fill="#1781A2" sketch:type="MSShapeGroup" x="0" y="0" width="66" height="66" rx="5"></rect>
                <g id="wifi" transform="translate(10.480220, 12.257143)" fill="#FFFFFF" sketch:type="MSShapeGroup">
                    <path d="M22.7713345,31.6953396 C20.0122444,31.6953396 17.7669389,33.9406451 17.7669389,36.6997352 C17.7669389,39.4588253 20.0122444,41.7041308 22.7713345,41.7041308 C25.5304246,41.7041308 27.7757301,39.4588253 27.7757301,36.6997352 C27.7757301,33.9406451 25.5304246,31.6953396 22.7713345,31.6953396" id="Fill-2817"></path>
                    <path d="M13.1347035,23.9313534 L15.0647321,26.6520765 C17.3367277,25.0406611 20.0007343,24.1882457 22.7715013,24.1882457 C25.5406002,24.1882457 28.2062749,25.0406611 30.4766024,26.6520765 L32.406631,23.9313534 C29.5691387,21.9162501 26.2378793,20.851982 22.7715013,20.851982 C19.3051233,20.851982 15.9721958,21.9162501 13.1347035,23.9313534" id="Fill-2818"></path>
                    <path d="M7.34595231,15.7593422 L9.27598088,18.4800653 C13.2411303,15.6659268 17.9068952,14.1796213 22.7711677,14.1796213 C27.6371084,14.1796213 32.3028732,15.6659268 36.2663545,18.4800653 L38.1963831,15.7593422 C33.6674051,12.543184 28.3327193,10.8433576 22.7711677,10.8433576 C17.2112842,10.8433576 11.8765985,12.543184 7.34595231,15.7593422" id="Fill-2819"></path>
                    <path d="M22.7713345,0.8349 C15.1262862,0.8349 7.79317846,3.17195275 1.5610378,7.5925022 L3.49106637,10.3132253 C9.15437407,6.2946956 15.8218971,4.17116374 22.7713345,4.17116374 C29.7207719,4.17116374 36.3882949,6.2946956 42.0516026,10.3132253 L43.9816312,7.5925022 C37.7494905,3.17195275 30.4163829,0.8349 22.7713345,0.8349" id="Fill-2820"></path>
                </g>
            </g>
        </g>
    </g>
</svg>