<?xml version="1.0" encoding="UTF-8" standalone="no"?>
<svg width="729px" height="190px" viewBox="0 0 729 190" version="1.1" xmlns="http://www.w3.org/2000/svg" xmlns:xlink="http://www.w3.org/1999/xlink" xmlns:sketch="http://www.bohemiancoding.com/sketch/ns">
    <!-- Generator: Sketch 3.3.1 (12002) - http://www.bohemiancoding.com/sketch -->
    <title>Colours-3</title>
    <desc>Created with Sketch.</desc>
    <defs></defs>
    <g id="Page-1" stroke="none" stroke-width="1" fill="none" fill-rule="evenodd" sketch:type="MSPage">
        <g id="A4" sketch:type="MSArtboardGroup" transform="translate(-55.000000, -565.000000)">
            <g id="Colours-3" sketch:type="MSLayerGroup" transform="translate(55.373206, 565.217105)">
                <g id="1" sketch:type="MSShapeGroup">
                    <g id="-2" transform="translate(211.019314, 96.978207)">
                        <rect id="5" fill="#140107" x="425.339617" y="0" width="91.7475278" height="92.3601974" rx="5"></rect>
                        <rect id="4" fill="#300311" x="316.004712" y="0" width="91.7475278" height="92.3601974" rx="5"></rect>
                        <rect id="3" fill="#600521" x="212.669808" y="0" width="91.7475278" height="92.3601974" rx="5"></rect>
                        <rect id="2" fill="#900731" x="106.334904" y="0" width="91.7475278" height="92.3601974" rx="5"></rect>
                        <rect id="1" fill="#AD093B" x="0" y="0" width="91.7475278" height="92.3601974" rx="5"></rect>
                    </g>
                    <g transform="translate(211.019314, 0.000000)">
                        <rect id="5" stroke="#DF84A0" fill="#F9E6EC" x="425.339617" y="0" width="91.7475278" height="92.3601974" rx="5"></rect>
                        <rect id="4" fill="#EFC2D0" x="319.004712" y="0" width="91.7475278" height="92.3601974" rx="5"></rect>
                        <rect id="3" fill="#DF84A0" x="212.669808" y="0" width="91.7475278" height="92.3601974" rx="5"></rect>
                        <rect id="2" fill="#D04771" x="106.334904" y="0" width="91.7475278" height="92.3601974" rx="5"></rect>
                        <rect fill="#C62254" x="0" y="0" width="91.7475278" height="92.3601974" rx="5"></rect>
                    </g>
                    <rect id="Square-1" fill="#BF0941" x="0" y="0" width="188.082432" height="189.338405" rx="10"></rect>
                </g>
                <path d="M341.546794,155.782895 L344.490794,155.782895 C345.930794,148.070895 349.034794,141.318895 353.386794,135.814895 L353.386794,134.694895 L339.626794,134.694895 L340.266794,137.030895 L349.642794,137.030895 C346.442794,141.350895 343.082794,147.750895 341.546794,155.782895 L341.546794,155.782895 Z M355.562794,155.142895 C356.618794,155.654895 358.282794,156.102895 360.330794,156.102895 C366.058794,156.102895 368.554794,153.062895 368.554794,149.286895 C368.554794,146.534895 367.082794,144.550895 364.522794,143.622895 C363.466794,143.238895 362.186794,143.110895 360.650794,143.110895 L359.818794,143.110895 L359.818794,137.030895 L367.978794,137.030895 L368.586794,134.694895 L357.034794,134.694895 L357.034794,145.414895 L359.434794,145.414895 C361.002794,145.414895 362.218794,145.510895 363.178794,145.862895 C364.650794,146.438895 365.578794,147.558895 365.578794,149.382895 C365.578794,152.262895 363.274794,153.670895 360.330794,153.670895 C358.666794,153.670895 357.386794,153.318895 356.362794,152.838895 L355.562794,155.142895 Z M377.290794,145.670895 C379.978794,145.670895 382.154794,143.814895 382.154794,140.102895 C382.154794,136.390895 379.978794,134.502895 377.290794,134.502895 C374.570794,134.502895 372.426794,136.390895 372.426794,140.102895 C372.426794,143.814895 374.570794,145.670895 377.290794,145.670895 L377.290794,145.670895 Z M377.290794,143.814895 C375.658794,143.814895 374.762794,142.310895 374.762794,140.102895 C374.762794,137.894895 375.658794,136.390895 377.290794,136.390895 C378.922794,136.390895 379.818794,137.894895 379.818794,140.102895 C379.818794,142.310895 378.922794,143.814895 377.290794,143.814895 L377.290794,143.814895 Z M391.018794,156.102895 C393.706794,156.102895 395.882794,154.214895 395.882794,150.534895 C395.882794,146.822895 393.706794,144.934895 391.018794,144.934895 C388.330794,144.934895 386.154794,146.822895 386.154794,150.534895 C386.154794,154.214895 388.330794,156.102895 391.018794,156.102895 L391.018794,156.102895 Z M391.018794,154.246895 C389.386794,154.246895 388.490794,152.742895 388.490794,150.534895 C388.490794,148.294895 389.386794,146.790895 391.018794,146.790895 C392.650794,146.790895 393.546794,148.294895 393.546794,150.534895 C393.546794,152.742895 392.650794,154.246895 391.018794,154.246895 L391.018794,154.246895 Z M376.330794,155.782895 L378.762794,155.782895 L391.946794,134.694895 L389.514794,134.694895 L376.330794,155.782895 Z" id="75%-copy-3" fill="#FFFFFF" sketch:type="MSShapeGroup"></path>
                <path d="M236.810794,156.102895 C242.794794,156.102895 245.866794,151.654895 245.866794,144.486895 C245.866794,137.734895 242.890794,134.502895 238.474794,134.502895 C234.474794,134.502895 231.626794,137.414895 231.626794,141.542895 C231.626794,146.214895 234.858794,148.070895 237.962794,148.070895 C239.978794,148.070895 241.642794,147.334895 242.890794,146.278895 L242.954794,146.278895 C242.602794,151.142895 240.426794,153.734895 236.810794,153.734895 C235.370794,153.734895 234.090794,153.382895 232.938794,152.870895 L232.202794,155.174895 C233.674794,155.814895 235.274794,156.102895 236.810794,156.102895 L236.810794,156.102895 Z M238.570794,145.702895 C235.978794,145.702895 234.570794,144.006895 234.570794,141.318895 C234.570794,138.758895 236.042794,136.870895 238.410794,136.870895 C241.162794,136.870895 242.922794,139.526895 242.922794,143.526895 C242.026794,144.678895 240.330794,145.702895 238.570794,145.702895 L238.570794,145.702895 Z M256.458794,156.102895 C260.842794,156.102895 263.754794,152.294895 263.754794,145.318895 C263.754794,138.310895 260.842794,134.502895 256.458794,134.502895 C252.074794,134.502895 249.162794,138.310895 249.162794,145.318895 C249.162794,152.294895 252.074794,156.102895 256.458794,156.102895 L256.458794,156.102895 Z M256.458794,153.670895 C253.674794,153.670895 252.170794,150.598895 252.170794,145.318895 C252.170794,140.006895 253.674794,136.934895 256.458794,136.934895 C259.274794,136.934895 260.778794,140.006895 260.778794,145.318895 C260.778794,150.598895 259.242794,153.670895 256.458794,153.670895 L256.458794,153.670895 Z M272.074794,145.670895 C274.762794,145.670895 276.938794,143.814895 276.938794,140.102895 C276.938794,136.390895 274.762794,134.502895 272.074794,134.502895 C269.354794,134.502895 267.210794,136.390895 267.210794,140.102895 C267.210794,143.814895 269.354794,145.670895 272.074794,145.670895 L272.074794,145.670895 Z M272.074794,143.814895 C270.442794,143.814895 269.546794,142.310895 269.546794,140.102895 C269.546794,137.894895 270.442794,136.390895 272.074794,136.390895 C273.706794,136.390895 274.602794,137.894895 274.602794,140.102895 C274.602794,142.310895 273.706794,143.814895 272.074794,143.814895 L272.074794,143.814895 Z M285.802794,156.102895 C288.490794,156.102895 290.666794,154.214895 290.666794,150.534895 C290.666794,146.822895 288.490794,144.934895 285.802794,144.934895 C283.114794,144.934895 280.938794,146.822895 280.938794,150.534895 C280.938794,154.214895 283.114794,156.102895 285.802794,156.102895 L285.802794,156.102895 Z M285.802794,154.246895 C284.170794,154.246895 283.274794,152.742895 283.274794,150.534895 C283.274794,148.294895 284.170794,146.790895 285.802794,146.790895 C287.434794,146.790895 288.330794,148.294895 288.330794,150.534895 C288.330794,152.742895 287.434794,154.246895 285.802794,154.246895 L285.802794,154.246895 Z M271.114794,155.782895 L273.546794,155.782895 L286.730794,134.694895 L284.298794,134.694895 L271.114794,155.782895 Z" id="90%-copy-2" fill="#FFFFFF" sketch:type="MSShapeGroup"></path>
                <path d="M445.814794,155.142895 C446.870794,155.654895 448.534794,156.102895 450.582794,156.102895 C456.310794,156.102895 458.806794,153.062895 458.806794,149.286895 C458.806794,146.534895 457.334794,144.550895 454.774794,143.622895 C453.718794,143.238895 452.438794,143.110895 450.902794,143.110895 L450.070794,143.110895 L450.070794,137.030895 L458.230794,137.030895 L458.838794,134.694895 L447.286794,134.694895 L447.286794,145.414895 L449.686794,145.414895 C451.254794,145.414895 452.470794,145.510895 453.430794,145.862895 C454.902794,146.438895 455.830794,147.558895 455.830794,149.382895 C455.830794,152.262895 453.526794,153.670895 450.582794,153.670895 C448.918794,153.670895 447.638794,153.318895 446.614794,152.838895 L445.814794,155.142895 Z M469.782794,156.102895 C474.166794,156.102895 477.078794,152.294895 477.078794,145.318895 C477.078794,138.310895 474.166794,134.502895 469.782794,134.502895 C465.398794,134.502895 462.486794,138.310895 462.486794,145.318895 C462.486794,152.294895 465.398794,156.102895 469.782794,156.102895 L469.782794,156.102895 Z M469.782794,153.670895 C466.998794,153.670895 465.494794,150.598895 465.494794,145.318895 C465.494794,140.006895 466.998794,136.934895 469.782794,136.934895 C472.598794,136.934895 474.102794,140.006895 474.102794,145.318895 C474.102794,150.598895 472.566794,153.670895 469.782794,153.670895 L469.782794,153.670895 Z M485.398794,145.670895 C488.086794,145.670895 490.262794,143.814895 490.262794,140.102895 C490.262794,136.390895 488.086794,134.502895 485.398794,134.502895 C482.678794,134.502895 480.534794,136.390895 480.534794,140.102895 C480.534794,143.814895 482.678794,145.670895 485.398794,145.670895 L485.398794,145.670895 Z M485.398794,143.814895 C483.766794,143.814895 482.870794,142.310895 482.870794,140.102895 C482.870794,137.894895 483.766794,136.390895 485.398794,136.390895 C487.030794,136.390895 487.926794,137.894895 487.926794,140.102895 C487.926794,142.310895 487.030794,143.814895 485.398794,143.814895 L485.398794,143.814895 Z M499.126794,156.102895 C501.814794,156.102895 503.990794,154.214895 503.990794,150.534895 C503.990794,146.822895 501.814794,144.934895 499.126794,144.934895 C496.438794,144.934895 494.262794,146.822895 494.262794,150.534895 C494.262794,154.214895 496.438794,156.102895 499.126794,156.102895 L499.126794,156.102895 Z M499.126794,154.246895 C497.494794,154.246895 496.598794,152.742895 496.598794,150.534895 C496.598794,148.294895 497.494794,146.790895 499.126794,146.790895 C500.758794,146.790895 501.654794,148.294895 501.654794,150.534895 C501.654794,152.742895 500.758794,154.246895 499.126794,154.246895 L499.126794,154.246895 Z M484.438794,155.782895 L486.870794,155.782895 L500.054794,134.694895 L497.622794,134.694895 L484.438794,155.782895 Z" id="50%-copy-2" fill="#FFFFFF" sketch:type="MSShapeGroup"></path>
                <path d="M551.626794,155.062895 L565.066794,155.062895 L565.066794,152.726895 L555.178794,152.726895 C556.426794,145.622895 565.002794,145.398895 565.002794,139.094895 C565.002794,136.086895 562.986794,133.782895 558.730794,133.782895 C556.138794,133.782895 553.834794,134.646895 552.362794,135.446895 L553.162794,137.654895 C554.506794,136.950895 556.330794,136.214895 558.410794,136.214895 C560.330794,136.214895 562.026794,137.078895 562.026794,139.318895 C562.026794,144.278895 552.554794,144.086895 551.626794,155.062895 L551.626794,155.062895 Z M568.330794,154.422895 C569.386794,154.934895 571.050794,155.382895 573.098794,155.382895 C578.826794,155.382895 581.322794,152.342895 581.322794,148.566895 C581.322794,145.814895 579.850794,143.830895 577.290794,142.902895 C576.234794,142.518895 574.954794,142.390895 573.418794,142.390895 L572.586794,142.390895 L572.586794,136.310895 L580.746794,136.310895 L581.354794,133.974895 L569.802794,133.974895 L569.802794,144.694895 L572.202794,144.694895 C573.770794,144.694895 574.986794,144.790895 575.946794,145.142895 C577.418794,145.718895 578.346794,146.838895 578.346794,148.662895 C578.346794,151.542895 576.042794,152.950895 573.098794,152.950895 C571.434794,152.950895 570.154794,152.598895 569.130794,152.118895 L568.330794,154.422895 Z M590.058794,144.950895 C592.746794,144.950895 594.922794,143.094895 594.922794,139.382895 C594.922794,135.670895 592.746794,133.782895 590.058794,133.782895 C587.338794,133.782895 585.194794,135.670895 585.194794,139.382895 C585.194794,143.094895 587.338794,144.950895 590.058794,144.950895 L590.058794,144.950895 Z M590.058794,143.094895 C588.426794,143.094895 587.530794,141.590895 587.530794,139.382895 C587.530794,137.174895 588.426794,135.670895 590.058794,135.670895 C591.690794,135.670895 592.586794,137.174895 592.586794,139.382895 C592.586794,141.590895 591.690794,143.094895 590.058794,143.094895 L590.058794,143.094895 Z M603.786794,155.382895 C606.474794,155.382895 608.650794,153.494895 608.650794,149.814895 C608.650794,146.102895 606.474794,144.214895 603.786794,144.214895 C601.098794,144.214895 598.922794,146.102895 598.922794,149.814895 C598.922794,153.494895 601.098794,155.382895 603.786794,155.382895 L603.786794,155.382895 Z M603.786794,153.526895 C602.154794,153.526895 601.258794,152.022895 601.258794,149.814895 C601.258794,147.574895 602.154794,146.070895 603.786794,146.070895 C605.418794,146.070895 606.314794,147.574895 606.314794,149.814895 C606.314794,152.022895 605.418794,153.526895 603.786794,153.526895 L603.786794,153.526895 Z M589.098794,155.062895 L591.530794,155.062895 L604.714794,133.974895 L602.282794,133.974895 L589.098794,155.062895 Z" id="25%-copy-2" fill="#FFFFFF" sketch:type="MSShapeGroup"></path>
                <path d="M664.546794,155.062895 L667.330794,155.062895 L667.330794,133.814895 L665.090794,133.814895 L658.626794,136.950895 L659.586794,139.190895 L664.546794,136.822895 L664.546794,155.062895 Z M679.906794,155.382895 C684.290794,155.382895 687.202794,151.574895 687.202794,144.598895 C687.202794,137.590895 684.290794,133.782895 679.906794,133.782895 C675.522794,133.782895 672.610794,137.590895 672.610794,144.598895 C672.610794,151.574895 675.522794,155.382895 679.906794,155.382895 L679.906794,155.382895 Z M679.906794,152.950895 C677.122794,152.950895 675.618794,149.878895 675.618794,144.598895 C675.618794,139.286895 677.122794,136.214895 679.906794,136.214895 C682.722794,136.214895 684.226794,139.286895 684.226794,144.598895 C684.226794,149.878895 682.690794,152.950895 679.906794,152.950895 L679.906794,152.950895 Z M695.522794,144.950895 C698.210794,144.950895 700.386794,143.094895 700.386794,139.382895 C700.386794,135.670895 698.210794,133.782895 695.522794,133.782895 C692.802794,133.782895 690.658794,135.670895 690.658794,139.382895 C690.658794,143.094895 692.802794,144.950895 695.522794,144.950895 L695.522794,144.950895 Z M695.522794,143.094895 C693.890794,143.094895 692.994794,141.590895 692.994794,139.382895 C692.994794,137.174895 693.890794,135.670895 695.522794,135.670895 C697.154794,135.670895 698.050794,137.174895 698.050794,139.382895 C698.050794,141.590895 697.154794,143.094895 695.522794,143.094895 L695.522794,143.094895 Z M709.250794,155.382895 C711.938794,155.382895 714.114794,153.494895 714.114794,149.814895 C714.114794,146.102895 711.938794,144.214895 709.250794,144.214895 C706.562794,144.214895 704.386794,146.102895 704.386794,149.814895 C704.386794,153.494895 706.562794,155.382895 709.250794,155.382895 L709.250794,155.382895 Z M709.250794,153.526895 C707.618794,153.526895 706.722794,152.022895 706.722794,149.814895 C706.722794,147.574895 707.618794,146.070895 709.250794,146.070895 C710.882794,146.070895 711.778794,147.574895 711.778794,149.814895 C711.778794,152.022895 710.882794,153.526895 709.250794,153.526895 L709.250794,153.526895 Z M694.562794,155.062895 L696.994794,155.062895 L710.178794,133.974895 L707.746794,133.974895 L694.562794,155.062895 Z" id="10%-copy-2" fill="#BF0941" sketch:type="MSShapeGroup"></path>
                <path d="M236.810794,58.3828947 C242.794794,58.3828947 245.866794,53.9348947 245.866794,46.7668947 C245.866794,40.0148947 242.890794,36.7828947 238.474794,36.7828947 C234.474794,36.7828947 231.626794,39.6948947 231.626794,43.8228947 C231.626794,48.4948947 234.858794,50.3508947 237.962794,50.3508947 C239.978794,50.3508947 241.642794,49.6148947 242.890794,48.5588947 L242.954794,48.5588947 C242.602794,53.4228947 240.426794,56.0148947 236.810794,56.0148947 C235.370794,56.0148947 234.090794,55.6628947 232.938794,55.1508947 L232.202794,57.4548947 C233.674794,58.0948947 235.274794,58.3828947 236.810794,58.3828947 L236.810794,58.3828947 Z M238.570794,47.9828947 C235.978794,47.9828947 234.570794,46.2868947 234.570794,43.5988947 C234.570794,41.0388947 236.042794,39.1508947 238.410794,39.1508947 C241.162794,39.1508947 242.922794,41.8068947 242.922794,45.8068947 C242.026794,46.9588947 240.330794,47.9828947 238.570794,47.9828947 L238.570794,47.9828947 Z M256.458794,58.3828947 C260.842794,58.3828947 263.754794,54.5748947 263.754794,47.5988947 C263.754794,40.5908947 260.842794,36.7828947 256.458794,36.7828947 C252.074794,36.7828947 249.162794,40.5908947 249.162794,47.5988947 C249.162794,54.5748947 252.074794,58.3828947 256.458794,58.3828947 L256.458794,58.3828947 Z M256.458794,55.9508947 C253.674794,55.9508947 252.170794,52.8788947 252.170794,47.5988947 C252.170794,42.2868947 253.674794,39.2148947 256.458794,39.2148947 C259.274794,39.2148947 260.778794,42.2868947 260.778794,47.5988947 C260.778794,52.8788947 259.242794,55.9508947 256.458794,55.9508947 L256.458794,55.9508947 Z M272.074794,47.9508947 C274.762794,47.9508947 276.938794,46.0948947 276.938794,42.3828947 C276.938794,38.6708947 274.762794,36.7828947 272.074794,36.7828947 C269.354794,36.7828947 267.210794,38.6708947 267.210794,42.3828947 C267.210794,46.0948947 269.354794,47.9508947 272.074794,47.9508947 L272.074794,47.9508947 Z M272.074794,46.0948947 C270.442794,46.0948947 269.546794,44.5908947 269.546794,42.3828947 C269.546794,40.1748947 270.442794,38.6708947 272.074794,38.6708947 C273.706794,38.6708947 274.602794,40.1748947 274.602794,42.3828947 C274.602794,44.5908947 273.706794,46.0948947 272.074794,46.0948947 L272.074794,46.0948947 Z M285.802794,58.3828947 C288.490794,58.3828947 290.666794,56.4948947 290.666794,52.8148947 C290.666794,49.1028947 288.490794,47.2148947 285.802794,47.2148947 C283.114794,47.2148947 280.938794,49.1028947 280.938794,52.8148947 C280.938794,56.4948947 283.114794,58.3828947 285.802794,58.3828947 L285.802794,58.3828947 Z M285.802794,56.5268947 C284.170794,56.5268947 283.274794,55.0228947 283.274794,52.8148947 C283.274794,50.5748947 284.170794,49.0708947 285.802794,49.0708947 C287.434794,49.0708947 288.330794,50.5748947 288.330794,52.8148947 C288.330794,55.0228947 287.434794,56.5268947 285.802794,56.5268947 L285.802794,56.5268947 Z M271.114794,58.0628947 L273.546794,58.0628947 L286.730794,36.9748947 L284.298794,36.9748947 L271.114794,58.0628947 Z" id="90%-copy-3" fill="#FFFFFF" sketch:type="MSShapeGroup"></path>
                <path d="M341.546794,58.0628947 L344.490794,58.0628947 C345.930794,50.3508947 349.034794,43.5988947 353.386794,38.0948947 L353.386794,36.9748947 L339.626794,36.9748947 L340.266794,39.3108947 L349.642794,39.3108947 C346.442794,43.6308947 343.082794,50.0308947 341.546794,58.0628947 L341.546794,58.0628947 Z M355.562794,57.4228947 C356.618794,57.9348947 358.282794,58.3828947 360.330794,58.3828947 C366.058794,58.3828947 368.554794,55.3428947 368.554794,51.5668947 C368.554794,48.8148947 367.082794,46.8308947 364.522794,45.9028947 C363.466794,45.5188947 362.186794,45.3908947 360.650794,45.3908947 L359.818794,45.3908947 L359.818794,39.3108947 L367.978794,39.3108947 L368.586794,36.9748947 L357.034794,36.9748947 L357.034794,47.6948947 L359.434794,47.6948947 C361.002794,47.6948947 362.218794,47.7908947 363.178794,48.1428947 C364.650794,48.7188947 365.578794,49.8388947 365.578794,51.6628947 C365.578794,54.5428947 363.274794,55.9508947 360.330794,55.9508947 C358.666794,55.9508947 357.386794,55.5988947 356.362794,55.1188947 L355.562794,57.4228947 Z M377.290794,47.9508947 C379.978794,47.9508947 382.154794,46.0948947 382.154794,42.3828947 C382.154794,38.6708947 379.978794,36.7828947 377.290794,36.7828947 C374.570794,36.7828947 372.426794,38.6708947 372.426794,42.3828947 C372.426794,46.0948947 374.570794,47.9508947 377.290794,47.9508947 L377.290794,47.9508947 Z M377.290794,46.0948947 C375.658794,46.0948947 374.762794,44.5908947 374.762794,42.3828947 C374.762794,40.1748947 375.658794,38.6708947 377.290794,38.6708947 C378.922794,38.6708947 379.818794,40.1748947 379.818794,42.3828947 C379.818794,44.5908947 378.922794,46.0948947 377.290794,46.0948947 L377.290794,46.0948947 Z M391.018794,58.3828947 C393.706794,58.3828947 395.882794,56.4948947 395.882794,52.8148947 C395.882794,49.1028947 393.706794,47.2148947 391.018794,47.2148947 C388.330794,47.2148947 386.154794,49.1028947 386.154794,52.8148947 C386.154794,56.4948947 388.330794,58.3828947 391.018794,58.3828947 L391.018794,58.3828947 Z M391.018794,56.5268947 C389.386794,56.5268947 388.490794,55.0228947 388.490794,52.8148947 C388.490794,50.5748947 389.386794,49.0708947 391.018794,49.0708947 C392.650794,49.0708947 393.546794,50.5748947 393.546794,52.8148947 C393.546794,55.0228947 392.650794,56.5268947 391.018794,56.5268947 L391.018794,56.5268947 Z M376.330794,58.0628947 L378.762794,58.0628947 L391.946794,36.9748947 L389.514794,36.9748947 L376.330794,58.0628947 Z" id="75%-copy-2" fill="#FFFFFF" sketch:type="MSShapeGroup"></path>
                <path d="M444.626794,57.4228947 C445.682794,57.9348947 447.346794,58.3828947 449.394794,58.3828947 C455.122794,58.3828947 457.618794,55.3428947 457.618794,51.5668947 C457.618794,48.8148947 456.146794,46.8308947 453.586794,45.9028947 C452.530794,45.5188947 451.250794,45.3908947 449.714794,45.3908947 L448.882794,45.3908947 L448.882794,39.3108947 L457.042794,39.3108947 L457.650794,36.9748947 L446.098794,36.9748947 L446.098794,47.6948947 L448.498794,47.6948947 C450.066794,47.6948947 451.282794,47.7908947 452.242794,48.1428947 C453.714794,48.7188947 454.642794,49.8388947 454.642794,51.6628947 C454.642794,54.5428947 452.338794,55.9508947 449.394794,55.9508947 C447.730794,55.9508947 446.450794,55.5988947 445.426794,55.1188947 L444.626794,57.4228947 Z M468.594794,58.3828947 C472.978794,58.3828947 475.890794,54.5748947 475.890794,47.5988947 C475.890794,40.5908947 472.978794,36.7828947 468.594794,36.7828947 C464.210794,36.7828947 461.298794,40.5908947 461.298794,47.5988947 C461.298794,54.5748947 464.210794,58.3828947 468.594794,58.3828947 L468.594794,58.3828947 Z M468.594794,55.9508947 C465.810794,55.9508947 464.306794,52.8788947 464.306794,47.5988947 C464.306794,42.2868947 465.810794,39.2148947 468.594794,39.2148947 C471.410794,39.2148947 472.914794,42.2868947 472.914794,47.5988947 C472.914794,52.8788947 471.378794,55.9508947 468.594794,55.9508947 L468.594794,55.9508947 Z M484.210794,47.9508947 C486.898794,47.9508947 489.074794,46.0948947 489.074794,42.3828947 C489.074794,38.6708947 486.898794,36.7828947 484.210794,36.7828947 C481.490794,36.7828947 479.346794,38.6708947 479.346794,42.3828947 C479.346794,46.0948947 481.490794,47.9508947 484.210794,47.9508947 L484.210794,47.9508947 Z M484.210794,46.0948947 C482.578794,46.0948947 481.682794,44.5908947 481.682794,42.3828947 C481.682794,40.1748947 482.578794,38.6708947 484.210794,38.6708947 C485.842794,38.6708947 486.738794,40.1748947 486.738794,42.3828947 C486.738794,44.5908947 485.842794,46.0948947 484.210794,46.0948947 L484.210794,46.0948947 Z M497.938794,58.3828947 C500.626794,58.3828947 502.802794,56.4948947 502.802794,52.8148947 C502.802794,49.1028947 500.626794,47.2148947 497.938794,47.2148947 C495.250794,47.2148947 493.074794,49.1028947 493.074794,52.8148947 C493.074794,56.4948947 495.250794,58.3828947 497.938794,58.3828947 L497.938794,58.3828947 Z M497.938794,56.5268947 C496.306794,56.5268947 495.410794,55.0228947 495.410794,52.8148947 C495.410794,50.5748947 496.306794,49.0708947 497.938794,49.0708947 C499.570794,49.0708947 500.466794,50.5748947 500.466794,52.8148947 C500.466794,55.0228947 499.570794,56.5268947 497.938794,56.5268947 L497.938794,56.5268947 Z M483.250794,58.0628947 L485.682794,58.0628947 L498.866794,36.9748947 L496.434794,36.9748947 L483.250794,58.0628947 Z" id="50%-copy-3" fill="#BF0941" sketch:type="MSShapeGroup"></path>
                <path d="M551.626794,58.0628947 L565.066794,58.0628947 L565.066794,55.7268947 L555.178794,55.7268947 C556.426794,48.6228947 565.002794,48.3988947 565.002794,42.0948947 C565.002794,39.0868947 562.986794,36.7828947 558.730794,36.7828947 C556.138794,36.7828947 553.834794,37.6468947 552.362794,38.4468947 L553.162794,40.6548947 C554.506794,39.9508947 556.330794,39.2148947 558.410794,39.2148947 C560.330794,39.2148947 562.026794,40.0788947 562.026794,42.3188947 C562.026794,47.2788947 552.554794,47.0868947 551.626794,58.0628947 L551.626794,58.0628947 Z M568.330794,57.4228947 C569.386794,57.9348947 571.050794,58.3828947 573.098794,58.3828947 C578.826794,58.3828947 581.322794,55.3428947 581.322794,51.5668947 C581.322794,48.8148947 579.850794,46.8308947 577.290794,45.9028947 C576.234794,45.5188947 574.954794,45.3908947 573.418794,45.3908947 L572.586794,45.3908947 L572.586794,39.3108947 L580.746794,39.3108947 L581.354794,36.9748947 L569.802794,36.9748947 L569.802794,47.6948947 L572.202794,47.6948947 C573.770794,47.6948947 574.986794,47.7908947 575.946794,48.1428947 C577.418794,48.7188947 578.346794,49.8388947 578.346794,51.6628947 C578.346794,54.5428947 576.042794,55.9508947 573.098794,55.9508947 C571.434794,55.9508947 570.154794,55.5988947 569.130794,55.1188947 L568.330794,57.4228947 Z M590.058794,47.9508947 C592.746794,47.9508947 594.922794,46.0948947 594.922794,42.3828947 C594.922794,38.6708947 592.746794,36.7828947 590.058794,36.7828947 C587.338794,36.7828947 585.194794,38.6708947 585.194794,42.3828947 C585.194794,46.0948947 587.338794,47.9508947 590.058794,47.9508947 L590.058794,47.9508947 Z M590.058794,46.0948947 C588.426794,46.0948947 587.530794,44.5908947 587.530794,42.3828947 C587.530794,40.1748947 588.426794,38.6708947 590.058794,38.6708947 C591.690794,38.6708947 592.586794,40.1748947 592.586794,42.3828947 C592.586794,44.5908947 591.690794,46.0948947 590.058794,46.0948947 L590.058794,46.0948947 Z M603.786794,58.3828947 C606.474794,58.3828947 608.650794,56.4948947 608.650794,52.8148947 C608.650794,49.1028947 606.474794,47.2148947 603.786794,47.2148947 C601.098794,47.2148947 598.922794,49.1028947 598.922794,52.8148947 C598.922794,56.4948947 601.098794,58.3828947 603.786794,58.3828947 L603.786794,58.3828947 Z M603.786794,56.5268947 C602.154794,56.5268947 601.258794,55.0228947 601.258794,52.8148947 C601.258794,50.5748947 602.154794,49.0708947 603.786794,49.0708947 C605.418794,49.0708947 606.314794,50.5748947 606.314794,52.8148947 C606.314794,55.0228947 605.418794,56.5268947 603.786794,56.5268947 L603.786794,56.5268947 Z M589.098794,58.0628947 L591.530794,58.0628947 L604.714794,36.9748947 L602.282794,36.9748947 L589.098794,58.0628947 Z" id="25%-copy-3" fill="#BF0941" sketch:type="MSShapeGroup"></path>
                <path d="M664.546794,58.0628947 L667.330794,58.0628947 L667.330794,36.8148947 L665.090794,36.8148947 L658.626794,39.9508947 L659.586794,42.1908947 L664.546794,39.8228947 L664.546794,58.0628947 Z M679.906794,58.3828947 C684.290794,58.3828947 687.202794,54.5748947 687.202794,47.5988947 C687.202794,40.5908947 684.290794,36.7828947 679.906794,36.7828947 C675.522794,36.7828947 672.610794,40.5908947 672.610794,47.5988947 C672.610794,54.5748947 675.522794,58.3828947 679.906794,58.3828947 L679.906794,58.3828947 Z M679.906794,55.9508947 C677.122794,55.9508947 675.618794,52.8788947 675.618794,47.5988947 C675.618794,42.2868947 677.122794,39.2148947 679.906794,39.2148947 C682.722794,39.2148947 684.226794,42.2868947 684.226794,47.5988947 C684.226794,52.8788947 682.690794,55.9508947 679.906794,55.9508947 L679.906794,55.9508947 Z M695.522794,47.9508947 C698.210794,47.9508947 700.386794,46.0948947 700.386794,42.3828947 C700.386794,38.6708947 698.210794,36.7828947 695.522794,36.7828947 C692.802794,36.7828947 690.658794,38.6708947 690.658794,42.3828947 C690.658794,46.0948947 692.802794,47.9508947 695.522794,47.9508947 L695.522794,47.9508947 Z M695.522794,46.0948947 C693.890794,46.0948947 692.994794,44.5908947 692.994794,42.3828947 C692.994794,40.1748947 693.890794,38.6708947 695.522794,38.6708947 C697.154794,38.6708947 698.050794,40.1748947 698.050794,42.3828947 C698.050794,44.5908947 697.154794,46.0948947 695.522794,46.0948947 L695.522794,46.0948947 Z M709.250794,58.3828947 C711.938794,58.3828947 714.114794,56.4948947 714.114794,52.8148947 C714.114794,49.1028947 711.938794,47.2148947 709.250794,47.2148947 C706.562794,47.2148947 704.386794,49.1028947 704.386794,52.8148947 C704.386794,56.4948947 706.562794,58.3828947 709.250794,58.3828947 L709.250794,58.3828947 Z M709.250794,56.5268947 C707.618794,56.5268947 706.722794,55.0228947 706.722794,52.8148947 C706.722794,50.5748947 707.618794,49.0708947 709.250794,49.0708947 C710.882794,49.0708947 711.778794,50.5748947 711.778794,52.8148947 C711.778794,55.0228947 710.882794,56.5268947 709.250794,56.5268947 L709.250794,56.5268947 Z M694.562794,58.0628947 L696.994794,58.0628947 L710.178794,36.9748947 L707.746794,36.9748947 L694.562794,58.0628947 Z" id="10%-copy-3" fill="#BF0941" sketch:type="MSShapeGroup"></path>
            </g>
        </g>
    </g>
</svg>