<?xml version="1.0" encoding="UTF-8" standalone="no"?>
<svg width="729px" height="190px" viewBox="0 0 729 190" version="1.1" xmlns="http://www.w3.org/2000/svg" xmlns:xlink="http://www.w3.org/1999/xlink" xmlns:sketch="http://www.bohemiancoding.com/sketch/ns">
    <!-- Generator: Sketch 3.3.1 (12002) - http://www.bohemiancoding.com/sketch -->
    <title>Colours-2</title>
    <desc>Created with Sketch.</desc>
    <defs></defs>
    <g id="Page-1" stroke="none" stroke-width="1" fill="none" fill-rule="evenodd" sketch:type="MSPage">
        <g id="A4" sketch:type="MSArtboardGroup" transform="translate(-55.000000, -306.000000)">
            <g id="Colours-2" sketch:type="MSLayerGroup" transform="translate(55.373206, 306.608553)">
                <g id="1" sketch:type="MSShapeGroup">
                    <g id="-2" transform="translate(211.019314, 96.978207)">
                        <rect id="5" fill="#0C130A" x="425.339617" y="0" width="91.7475278" height="92.3601974" rx="5"></rect>
                        <rect id="4" fill="#1D2F17" x="319.004712" y="0" width="91.7475278" height="92.3601974" rx="5"></rect>
                        <rect id="3" fill="#3A5D2E" x="212.669808" y="0" width="91.7475278" height="92.3601974" rx="5"></rect>
                        <rect id="2" fill="#578A45" x="106.334904" y="0" width="91.7475278" height="92.3601974" rx="5"></rect>
                        <rect id="1" fill="#68A653" x="0" y="0" width="91.7475278" height="92.3601974" rx="5"></rect>
                    </g>
                    <g transform="translate(211.019314, 0.000000)">
                        <rect id="5" stroke="#B9DCAD" fill="#F1F8EF" x="425.339617" y="0" width="91.7475278" height="92.3601974" rx="5"></rect>
                        <rect id="4" fill="#DCEED6" x="319.004712" y="0" width="91.7475278" height="92.3601974" rx="5"></rect>
                        <rect id="3" fill="#B9DCAD" x="212.669808" y="0" width="91.7475278" height="92.3601974" rx="5"></rect>
                        <rect id="2" fill="#97CA85" x="106.334904" y="0" width="91.7475278" height="92.3601974" rx="5"></rect>
                        <rect fill="#81BF6C" x="0" y="0" width="91.7475278" height="92.3601974" rx="5"></rect>
                    </g>
                    <rect id="Square-1" fill="#73B85B" x="0" y="0" width="188.082432" height="189.338405" rx="10"></rect>
                </g>
                <path d="M341.546794,154.391447 L344.490794,154.391447 C345.930794,146.679447 349.034794,139.927447 353.386794,134.423447 L353.386794,133.303447 L339.626794,133.303447 L340.266794,135.639447 L349.642794,135.639447 C346.442794,139.959447 343.082794,146.359447 341.546794,154.391447 L341.546794,154.391447 Z M355.562794,153.751447 C356.618794,154.263447 358.282794,154.711447 360.330794,154.711447 C366.058794,154.711447 368.554794,151.671447 368.554794,147.895447 C368.554794,145.143447 367.082794,143.159447 364.522794,142.231447 C363.466794,141.847447 362.186794,141.719447 360.650794,141.719447 L359.818794,141.719447 L359.818794,135.639447 L367.978794,135.639447 L368.586794,133.303447 L357.034794,133.303447 L357.034794,144.023447 L359.434794,144.023447 C361.002794,144.023447 362.218794,144.119447 363.178794,144.471447 C364.650794,145.047447 365.578794,146.167447 365.578794,147.991447 C365.578794,150.871447 363.274794,152.279447 360.330794,152.279447 C358.666794,152.279447 357.386794,151.927447 356.362794,151.447447 L355.562794,153.751447 Z M377.290794,144.279447 C379.978794,144.279447 382.154794,142.423447 382.154794,138.711447 C382.154794,134.999447 379.978794,133.111447 377.290794,133.111447 C374.570794,133.111447 372.426794,134.999447 372.426794,138.711447 C372.426794,142.423447 374.570794,144.279447 377.290794,144.279447 L377.290794,144.279447 Z M377.290794,142.423447 C375.658794,142.423447 374.762794,140.919447 374.762794,138.711447 C374.762794,136.503447 375.658794,134.999447 377.290794,134.999447 C378.922794,134.999447 379.818794,136.503447 379.818794,138.711447 C379.818794,140.919447 378.922794,142.423447 377.290794,142.423447 L377.290794,142.423447 Z M391.018794,154.711447 C393.706794,154.711447 395.882794,152.823447 395.882794,149.143447 C395.882794,145.431447 393.706794,143.543447 391.018794,143.543447 C388.330794,143.543447 386.154794,145.431447 386.154794,149.143447 C386.154794,152.823447 388.330794,154.711447 391.018794,154.711447 L391.018794,154.711447 Z M391.018794,152.855447 C389.386794,152.855447 388.490794,151.351447 388.490794,149.143447 C388.490794,146.903447 389.386794,145.399447 391.018794,145.399447 C392.650794,145.399447 393.546794,146.903447 393.546794,149.143447 C393.546794,151.351447 392.650794,152.855447 391.018794,152.855447 L391.018794,152.855447 Z M376.330794,154.391447 L378.762794,154.391447 L391.946794,133.303447 L389.514794,133.303447 L376.330794,154.391447 Z" id="75%-copy-5" fill="#FFFFFF" sketch:type="MSShapeGroup"></path>
                <path d="M236.810794,154.711447 C242.794794,154.711447 245.866794,150.263447 245.866794,143.095447 C245.866794,136.343447 242.890794,133.111447 238.474794,133.111447 C234.474794,133.111447 231.626794,136.023447 231.626794,140.151447 C231.626794,144.823447 234.858794,146.679447 237.962794,146.679447 C239.978794,146.679447 241.642794,145.943447 242.890794,144.887447 L242.954794,144.887447 C242.602794,149.751447 240.426794,152.343447 236.810794,152.343447 C235.370794,152.343447 234.090794,151.991447 232.938794,151.479447 L232.202794,153.783447 C233.674794,154.423447 235.274794,154.711447 236.810794,154.711447 L236.810794,154.711447 Z M238.570794,144.311447 C235.978794,144.311447 234.570794,142.615447 234.570794,139.927447 C234.570794,137.367447 236.042794,135.479447 238.410794,135.479447 C241.162794,135.479447 242.922794,138.135447 242.922794,142.135447 C242.026794,143.287447 240.330794,144.311447 238.570794,144.311447 L238.570794,144.311447 Z M256.458794,154.711447 C260.842794,154.711447 263.754794,150.903447 263.754794,143.927447 C263.754794,136.919447 260.842794,133.111447 256.458794,133.111447 C252.074794,133.111447 249.162794,136.919447 249.162794,143.927447 C249.162794,150.903447 252.074794,154.711447 256.458794,154.711447 L256.458794,154.711447 Z M256.458794,152.279447 C253.674794,152.279447 252.170794,149.207447 252.170794,143.927447 C252.170794,138.615447 253.674794,135.543447 256.458794,135.543447 C259.274794,135.543447 260.778794,138.615447 260.778794,143.927447 C260.778794,149.207447 259.242794,152.279447 256.458794,152.279447 L256.458794,152.279447 Z M272.074794,144.279447 C274.762794,144.279447 276.938794,142.423447 276.938794,138.711447 C276.938794,134.999447 274.762794,133.111447 272.074794,133.111447 C269.354794,133.111447 267.210794,134.999447 267.210794,138.711447 C267.210794,142.423447 269.354794,144.279447 272.074794,144.279447 L272.074794,144.279447 Z M272.074794,142.423447 C270.442794,142.423447 269.546794,140.919447 269.546794,138.711447 C269.546794,136.503447 270.442794,134.999447 272.074794,134.999447 C273.706794,134.999447 274.602794,136.503447 274.602794,138.711447 C274.602794,140.919447 273.706794,142.423447 272.074794,142.423447 L272.074794,142.423447 Z M285.802794,154.711447 C288.490794,154.711447 290.666794,152.823447 290.666794,149.143447 C290.666794,145.431447 288.490794,143.543447 285.802794,143.543447 C283.114794,143.543447 280.938794,145.431447 280.938794,149.143447 C280.938794,152.823447 283.114794,154.711447 285.802794,154.711447 L285.802794,154.711447 Z M285.802794,152.855447 C284.170794,152.855447 283.274794,151.351447 283.274794,149.143447 C283.274794,146.903447 284.170794,145.399447 285.802794,145.399447 C287.434794,145.399447 288.330794,146.903447 288.330794,149.143447 C288.330794,151.351447 287.434794,152.855447 285.802794,152.855447 L285.802794,152.855447 Z M271.114794,154.391447 L273.546794,154.391447 L286.730794,133.303447 L284.298794,133.303447 L271.114794,154.391447 Z" id="90%-copy-4" fill="#FFFFFF" sketch:type="MSShapeGroup"></path>
                <path d="M445.814794,153.751447 C446.870794,154.263447 448.534794,154.711447 450.582794,154.711447 C456.310794,154.711447 458.806794,151.671447 458.806794,147.895447 C458.806794,145.143447 457.334794,143.159447 454.774794,142.231447 C453.718794,141.847447 452.438794,141.719447 450.902794,141.719447 L450.070794,141.719447 L450.070794,135.639447 L458.230794,135.639447 L458.838794,133.303447 L447.286794,133.303447 L447.286794,144.023447 L449.686794,144.023447 C451.254794,144.023447 452.470794,144.119447 453.430794,144.471447 C454.902794,145.047447 455.830794,146.167447 455.830794,147.991447 C455.830794,150.871447 453.526794,152.279447 450.582794,152.279447 C448.918794,152.279447 447.638794,151.927447 446.614794,151.447447 L445.814794,153.751447 Z M469.782794,154.711447 C474.166794,154.711447 477.078794,150.903447 477.078794,143.927447 C477.078794,136.919447 474.166794,133.111447 469.782794,133.111447 C465.398794,133.111447 462.486794,136.919447 462.486794,143.927447 C462.486794,150.903447 465.398794,154.711447 469.782794,154.711447 L469.782794,154.711447 Z M469.782794,152.279447 C466.998794,152.279447 465.494794,149.207447 465.494794,143.927447 C465.494794,138.615447 466.998794,135.543447 469.782794,135.543447 C472.598794,135.543447 474.102794,138.615447 474.102794,143.927447 C474.102794,149.207447 472.566794,152.279447 469.782794,152.279447 L469.782794,152.279447 Z M485.398794,144.279447 C488.086794,144.279447 490.262794,142.423447 490.262794,138.711447 C490.262794,134.999447 488.086794,133.111447 485.398794,133.111447 C482.678794,133.111447 480.534794,134.999447 480.534794,138.711447 C480.534794,142.423447 482.678794,144.279447 485.398794,144.279447 L485.398794,144.279447 Z M485.398794,142.423447 C483.766794,142.423447 482.870794,140.919447 482.870794,138.711447 C482.870794,136.503447 483.766794,134.999447 485.398794,134.999447 C487.030794,134.999447 487.926794,136.503447 487.926794,138.711447 C487.926794,140.919447 487.030794,142.423447 485.398794,142.423447 L485.398794,142.423447 Z M499.126794,154.711447 C501.814794,154.711447 503.990794,152.823447 503.990794,149.143447 C503.990794,145.431447 501.814794,143.543447 499.126794,143.543447 C496.438794,143.543447 494.262794,145.431447 494.262794,149.143447 C494.262794,152.823447 496.438794,154.711447 499.126794,154.711447 L499.126794,154.711447 Z M499.126794,152.855447 C497.494794,152.855447 496.598794,151.351447 496.598794,149.143447 C496.598794,146.903447 497.494794,145.399447 499.126794,145.399447 C500.758794,145.399447 501.654794,146.903447 501.654794,149.143447 C501.654794,151.351447 500.758794,152.855447 499.126794,152.855447 L499.126794,152.855447 Z M484.438794,154.391447 L486.870794,154.391447 L500.054794,133.303447 L497.622794,133.303447 L484.438794,154.391447 Z" id="50%-copy-4" fill="#FFFFFF" sketch:type="MSShapeGroup"></path>
                <path d="M551.626794,153.671447 L565.066794,153.671447 L565.066794,151.335447 L555.178794,151.335447 C556.426794,144.231447 565.002794,144.007447 565.002794,137.703447 C565.002794,134.695447 562.986794,132.391447 558.730794,132.391447 C556.138794,132.391447 553.834794,133.255447 552.362794,134.055447 L553.162794,136.263447 C554.506794,135.559447 556.330794,134.823447 558.410794,134.823447 C560.330794,134.823447 562.026794,135.687447 562.026794,137.927447 C562.026794,142.887447 552.554794,142.695447 551.626794,153.671447 L551.626794,153.671447 Z M568.330794,153.031447 C569.386794,153.543447 571.050794,153.991447 573.098794,153.991447 C578.826794,153.991447 581.322794,150.951447 581.322794,147.175447 C581.322794,144.423447 579.850794,142.439447 577.290794,141.511447 C576.234794,141.127447 574.954794,140.999447 573.418794,140.999447 L572.586794,140.999447 L572.586794,134.919447 L580.746794,134.919447 L581.354794,132.583447 L569.802794,132.583447 L569.802794,143.303447 L572.202794,143.303447 C573.770794,143.303447 574.986794,143.399447 575.946794,143.751447 C577.418794,144.327447 578.346794,145.447447 578.346794,147.271447 C578.346794,150.151447 576.042794,151.559447 573.098794,151.559447 C571.434794,151.559447 570.154794,151.207447 569.130794,150.727447 L568.330794,153.031447 Z M590.058794,143.559447 C592.746794,143.559447 594.922794,141.703447 594.922794,137.991447 C594.922794,134.279447 592.746794,132.391447 590.058794,132.391447 C587.338794,132.391447 585.194794,134.279447 585.194794,137.991447 C585.194794,141.703447 587.338794,143.559447 590.058794,143.559447 L590.058794,143.559447 Z M590.058794,141.703447 C588.426794,141.703447 587.530794,140.199447 587.530794,137.991447 C587.530794,135.783447 588.426794,134.279447 590.058794,134.279447 C591.690794,134.279447 592.586794,135.783447 592.586794,137.991447 C592.586794,140.199447 591.690794,141.703447 590.058794,141.703447 L590.058794,141.703447 Z M603.786794,153.991447 C606.474794,153.991447 608.650794,152.103447 608.650794,148.423447 C608.650794,144.711447 606.474794,142.823447 603.786794,142.823447 C601.098794,142.823447 598.922794,144.711447 598.922794,148.423447 C598.922794,152.103447 601.098794,153.991447 603.786794,153.991447 L603.786794,153.991447 Z M603.786794,152.135447 C602.154794,152.135447 601.258794,150.631447 601.258794,148.423447 C601.258794,146.183447 602.154794,144.679447 603.786794,144.679447 C605.418794,144.679447 606.314794,146.183447 606.314794,148.423447 C606.314794,150.631447 605.418794,152.135447 603.786794,152.135447 L603.786794,152.135447 Z M589.098794,153.671447 L591.530794,153.671447 L604.714794,132.583447 L602.282794,132.583447 L589.098794,153.671447 Z" id="25%-copy-4" fill="#FFFFFF" sketch:type="MSShapeGroup"></path>
                <path d="M664.546794,153.671447 L667.330794,153.671447 L667.330794,132.423447 L665.090794,132.423447 L658.626794,135.559447 L659.586794,137.799447 L664.546794,135.431447 L664.546794,153.671447 Z M679.906794,153.991447 C684.290794,153.991447 687.202794,150.183447 687.202794,143.207447 C687.202794,136.199447 684.290794,132.391447 679.906794,132.391447 C675.522794,132.391447 672.610794,136.199447 672.610794,143.207447 C672.610794,150.183447 675.522794,153.991447 679.906794,153.991447 L679.906794,153.991447 Z M679.906794,151.559447 C677.122794,151.559447 675.618794,148.487447 675.618794,143.207447 C675.618794,137.895447 677.122794,134.823447 679.906794,134.823447 C682.722794,134.823447 684.226794,137.895447 684.226794,143.207447 C684.226794,148.487447 682.690794,151.559447 679.906794,151.559447 L679.906794,151.559447 Z M695.522794,143.559447 C698.210794,143.559447 700.386794,141.703447 700.386794,137.991447 C700.386794,134.279447 698.210794,132.391447 695.522794,132.391447 C692.802794,132.391447 690.658794,134.279447 690.658794,137.991447 C690.658794,141.703447 692.802794,143.559447 695.522794,143.559447 L695.522794,143.559447 Z M695.522794,141.703447 C693.890794,141.703447 692.994794,140.199447 692.994794,137.991447 C692.994794,135.783447 693.890794,134.279447 695.522794,134.279447 C697.154794,134.279447 698.050794,135.783447 698.050794,137.991447 C698.050794,140.199447 697.154794,141.703447 695.522794,141.703447 L695.522794,141.703447 Z M709.250794,153.991447 C711.938794,153.991447 714.114794,152.103447 714.114794,148.423447 C714.114794,144.711447 711.938794,142.823447 709.250794,142.823447 C706.562794,142.823447 704.386794,144.711447 704.386794,148.423447 C704.386794,152.103447 706.562794,153.991447 709.250794,153.991447 L709.250794,153.991447 Z M709.250794,152.135447 C707.618794,152.135447 706.722794,150.631447 706.722794,148.423447 C706.722794,146.183447 707.618794,144.679447 709.250794,144.679447 C710.882794,144.679447 711.778794,146.183447 711.778794,148.423447 C711.778794,150.631447 710.882794,152.135447 709.250794,152.135447 L709.250794,152.135447 Z M694.562794,153.671447 L696.994794,153.671447 L710.178794,132.583447 L707.746794,132.583447 L694.562794,153.671447 Z" id="10%-copy-4" fill="#73B85B" sketch:type="MSShapeGroup"></path>
                <path d="M236.810794,56.9914474 C242.794794,56.9914474 245.866794,52.5434474 245.866794,45.3754474 C245.866794,38.6234474 242.890794,35.3914474 238.474794,35.3914474 C234.474794,35.3914474 231.626794,38.3034474 231.626794,42.4314474 C231.626794,47.1034474 234.858794,48.9594474 237.962794,48.9594474 C239.978794,48.9594474 241.642794,48.2234474 242.890794,47.1674474 L242.954794,47.1674474 C242.602794,52.0314474 240.426794,54.6234474 236.810794,54.6234474 C235.370794,54.6234474 234.090794,54.2714474 232.938794,53.7594474 L232.202794,56.0634474 C233.674794,56.7034474 235.274794,56.9914474 236.810794,56.9914474 L236.810794,56.9914474 Z M238.570794,46.5914474 C235.978794,46.5914474 234.570794,44.8954474 234.570794,42.2074474 C234.570794,39.6474474 236.042794,37.7594474 238.410794,37.7594474 C241.162794,37.7594474 242.922794,40.4154474 242.922794,44.4154474 C242.026794,45.5674474 240.330794,46.5914474 238.570794,46.5914474 L238.570794,46.5914474 Z M256.458794,56.9914474 C260.842794,56.9914474 263.754794,53.1834474 263.754794,46.2074474 C263.754794,39.1994474 260.842794,35.3914474 256.458794,35.3914474 C252.074794,35.3914474 249.162794,39.1994474 249.162794,46.2074474 C249.162794,53.1834474 252.074794,56.9914474 256.458794,56.9914474 L256.458794,56.9914474 Z M256.458794,54.5594474 C253.674794,54.5594474 252.170794,51.4874474 252.170794,46.2074474 C252.170794,40.8954474 253.674794,37.8234474 256.458794,37.8234474 C259.274794,37.8234474 260.778794,40.8954474 260.778794,46.2074474 C260.778794,51.4874474 259.242794,54.5594474 256.458794,54.5594474 L256.458794,54.5594474 Z M272.074794,46.5594474 C274.762794,46.5594474 276.938794,44.7034474 276.938794,40.9914474 C276.938794,37.2794474 274.762794,35.3914474 272.074794,35.3914474 C269.354794,35.3914474 267.210794,37.2794474 267.210794,40.9914474 C267.210794,44.7034474 269.354794,46.5594474 272.074794,46.5594474 L272.074794,46.5594474 Z M272.074794,44.7034474 C270.442794,44.7034474 269.546794,43.1994474 269.546794,40.9914474 C269.546794,38.7834474 270.442794,37.2794474 272.074794,37.2794474 C273.706794,37.2794474 274.602794,38.7834474 274.602794,40.9914474 C274.602794,43.1994474 273.706794,44.7034474 272.074794,44.7034474 L272.074794,44.7034474 Z M285.802794,56.9914474 C288.490794,56.9914474 290.666794,55.1034474 290.666794,51.4234474 C290.666794,47.7114474 288.490794,45.8234474 285.802794,45.8234474 C283.114794,45.8234474 280.938794,47.7114474 280.938794,51.4234474 C280.938794,55.1034474 283.114794,56.9914474 285.802794,56.9914474 L285.802794,56.9914474 Z M285.802794,55.1354474 C284.170794,55.1354474 283.274794,53.6314474 283.274794,51.4234474 C283.274794,49.1834474 284.170794,47.6794474 285.802794,47.6794474 C287.434794,47.6794474 288.330794,49.1834474 288.330794,51.4234474 C288.330794,53.6314474 287.434794,55.1354474 285.802794,55.1354474 L285.802794,55.1354474 Z M271.114794,56.6714474 L273.546794,56.6714474 L286.730794,35.5834474 L284.298794,35.5834474 L271.114794,56.6714474 Z" id="90%-copy-5" fill="#FFFFFF" sketch:type="MSShapeGroup"></path>
                <path d="M341.546794,56.6714474 L344.490794,56.6714474 C345.930794,48.9594474 349.034794,42.2074474 353.386794,36.7034474 L353.386794,35.5834474 L339.626794,35.5834474 L340.266794,37.9194474 L349.642794,37.9194474 C346.442794,42.2394474 343.082794,48.6394474 341.546794,56.6714474 L341.546794,56.6714474 Z M355.562794,56.0314474 C356.618794,56.5434474 358.282794,56.9914474 360.330794,56.9914474 C366.058794,56.9914474 368.554794,53.9514474 368.554794,50.1754474 C368.554794,47.4234474 367.082794,45.4394474 364.522794,44.5114474 C363.466794,44.1274474 362.186794,43.9994474 360.650794,43.9994474 L359.818794,43.9994474 L359.818794,37.9194474 L367.978794,37.9194474 L368.586794,35.5834474 L357.034794,35.5834474 L357.034794,46.3034474 L359.434794,46.3034474 C361.002794,46.3034474 362.218794,46.3994474 363.178794,46.7514474 C364.650794,47.3274474 365.578794,48.4474474 365.578794,50.2714474 C365.578794,53.1514474 363.274794,54.5594474 360.330794,54.5594474 C358.666794,54.5594474 357.386794,54.2074474 356.362794,53.7274474 L355.562794,56.0314474 Z M377.290794,46.5594474 C379.978794,46.5594474 382.154794,44.7034474 382.154794,40.9914474 C382.154794,37.2794474 379.978794,35.3914474 377.290794,35.3914474 C374.570794,35.3914474 372.426794,37.2794474 372.426794,40.9914474 C372.426794,44.7034474 374.570794,46.5594474 377.290794,46.5594474 L377.290794,46.5594474 Z M377.290794,44.7034474 C375.658794,44.7034474 374.762794,43.1994474 374.762794,40.9914474 C374.762794,38.7834474 375.658794,37.2794474 377.290794,37.2794474 C378.922794,37.2794474 379.818794,38.7834474 379.818794,40.9914474 C379.818794,43.1994474 378.922794,44.7034474 377.290794,44.7034474 L377.290794,44.7034474 Z M391.018794,56.9914474 C393.706794,56.9914474 395.882794,55.1034474 395.882794,51.4234474 C395.882794,47.7114474 393.706794,45.8234474 391.018794,45.8234474 C388.330794,45.8234474 386.154794,47.7114474 386.154794,51.4234474 C386.154794,55.1034474 388.330794,56.9914474 391.018794,56.9914474 L391.018794,56.9914474 Z M391.018794,55.1354474 C389.386794,55.1354474 388.490794,53.6314474 388.490794,51.4234474 C388.490794,49.1834474 389.386794,47.6794474 391.018794,47.6794474 C392.650794,47.6794474 393.546794,49.1834474 393.546794,51.4234474 C393.546794,53.6314474 392.650794,55.1354474 391.018794,55.1354474 L391.018794,55.1354474 Z M376.330794,56.6714474 L378.762794,56.6714474 L391.946794,35.5834474 L389.514794,35.5834474 L376.330794,56.6714474 Z" id="75%-copy-4" fill="#FFFFFF" sketch:type="MSShapeGroup"></path>
                <path d="M444.626794,56.0314474 C445.682794,56.5434474 447.346794,56.9914474 449.394794,56.9914474 C455.122794,56.9914474 457.618794,53.9514474 457.618794,50.1754474 C457.618794,47.4234474 456.146794,45.4394474 453.586794,44.5114474 C452.530794,44.1274474 451.250794,43.9994474 449.714794,43.9994474 L448.882794,43.9994474 L448.882794,37.9194474 L457.042794,37.9194474 L457.650794,35.5834474 L446.098794,35.5834474 L446.098794,46.3034474 L448.498794,46.3034474 C450.066794,46.3034474 451.282794,46.3994474 452.242794,46.7514474 C453.714794,47.3274474 454.642794,48.4474474 454.642794,50.2714474 C454.642794,53.1514474 452.338794,54.5594474 449.394794,54.5594474 C447.730794,54.5594474 446.450794,54.2074474 445.426794,53.7274474 L444.626794,56.0314474 Z M468.594794,56.9914474 C472.978794,56.9914474 475.890794,53.1834474 475.890794,46.2074474 C475.890794,39.1994474 472.978794,35.3914474 468.594794,35.3914474 C464.210794,35.3914474 461.298794,39.1994474 461.298794,46.2074474 C461.298794,53.1834474 464.210794,56.9914474 468.594794,56.9914474 L468.594794,56.9914474 Z M468.594794,54.5594474 C465.810794,54.5594474 464.306794,51.4874474 464.306794,46.2074474 C464.306794,40.8954474 465.810794,37.8234474 468.594794,37.8234474 C471.410794,37.8234474 472.914794,40.8954474 472.914794,46.2074474 C472.914794,51.4874474 471.378794,54.5594474 468.594794,54.5594474 L468.594794,54.5594474 Z M484.210794,46.5594474 C486.898794,46.5594474 489.074794,44.7034474 489.074794,40.9914474 C489.074794,37.2794474 486.898794,35.3914474 484.210794,35.3914474 C481.490794,35.3914474 479.346794,37.2794474 479.346794,40.9914474 C479.346794,44.7034474 481.490794,46.5594474 484.210794,46.5594474 L484.210794,46.5594474 Z M484.210794,44.7034474 C482.578794,44.7034474 481.682794,43.1994474 481.682794,40.9914474 C481.682794,38.7834474 482.578794,37.2794474 484.210794,37.2794474 C485.842794,37.2794474 486.738794,38.7834474 486.738794,40.9914474 C486.738794,43.1994474 485.842794,44.7034474 484.210794,44.7034474 L484.210794,44.7034474 Z M497.938794,56.9914474 C500.626794,56.9914474 502.802794,55.1034474 502.802794,51.4234474 C502.802794,47.7114474 500.626794,45.8234474 497.938794,45.8234474 C495.250794,45.8234474 493.074794,47.7114474 493.074794,51.4234474 C493.074794,55.1034474 495.250794,56.9914474 497.938794,56.9914474 L497.938794,56.9914474 Z M497.938794,55.1354474 C496.306794,55.1354474 495.410794,53.6314474 495.410794,51.4234474 C495.410794,49.1834474 496.306794,47.6794474 497.938794,47.6794474 C499.570794,47.6794474 500.466794,49.1834474 500.466794,51.4234474 C500.466794,53.6314474 499.570794,55.1354474 497.938794,55.1354474 L497.938794,55.1354474 Z M483.250794,56.6714474 L485.682794,56.6714474 L498.866794,35.5834474 L496.434794,35.5834474 L483.250794,56.6714474 Z" id="50%-copy-5" fill="#73B85B" sketch:type="MSShapeGroup"></path>
                <path d="M551.626794,56.6714474 L565.066794,56.6714474 L565.066794,54.3354474 L555.178794,54.3354474 C556.426794,47.2314474 565.002794,47.0074474 565.002794,40.7034474 C565.002794,37.6954474 562.986794,35.3914474 558.730794,35.3914474 C556.138794,35.3914474 553.834794,36.2554474 552.362794,37.0554474 L553.162794,39.2634474 C554.506794,38.5594474 556.330794,37.8234474 558.410794,37.8234474 C560.330794,37.8234474 562.026794,38.6874474 562.026794,40.9274474 C562.026794,45.8874474 552.554794,45.6954474 551.626794,56.6714474 L551.626794,56.6714474 Z M568.330794,56.0314474 C569.386794,56.5434474 571.050794,56.9914474 573.098794,56.9914474 C578.826794,56.9914474 581.322794,53.9514474 581.322794,50.1754474 C581.322794,47.4234474 579.850794,45.4394474 577.290794,44.5114474 C576.234794,44.1274474 574.954794,43.9994474 573.418794,43.9994474 L572.586794,43.9994474 L572.586794,37.9194474 L580.746794,37.9194474 L581.354794,35.5834474 L569.802794,35.5834474 L569.802794,46.3034474 L572.202794,46.3034474 C573.770794,46.3034474 574.986794,46.3994474 575.946794,46.7514474 C577.418794,47.3274474 578.346794,48.4474474 578.346794,50.2714474 C578.346794,53.1514474 576.042794,54.5594474 573.098794,54.5594474 C571.434794,54.5594474 570.154794,54.2074474 569.130794,53.7274474 L568.330794,56.0314474 Z M590.058794,46.5594474 C592.746794,46.5594474 594.922794,44.7034474 594.922794,40.9914474 C594.922794,37.2794474 592.746794,35.3914474 590.058794,35.3914474 C587.338794,35.3914474 585.194794,37.2794474 585.194794,40.9914474 C585.194794,44.7034474 587.338794,46.5594474 590.058794,46.5594474 L590.058794,46.5594474 Z M590.058794,44.7034474 C588.426794,44.7034474 587.530794,43.1994474 587.530794,40.9914474 C587.530794,38.7834474 588.426794,37.2794474 590.058794,37.2794474 C591.690794,37.2794474 592.586794,38.7834474 592.586794,40.9914474 C592.586794,43.1994474 591.690794,44.7034474 590.058794,44.7034474 L590.058794,44.7034474 Z M603.786794,56.9914474 C606.474794,56.9914474 608.650794,55.1034474 608.650794,51.4234474 C608.650794,47.7114474 606.474794,45.8234474 603.786794,45.8234474 C601.098794,45.8234474 598.922794,47.7114474 598.922794,51.4234474 C598.922794,55.1034474 601.098794,56.9914474 603.786794,56.9914474 L603.786794,56.9914474 Z M603.786794,55.1354474 C602.154794,55.1354474 601.258794,53.6314474 601.258794,51.4234474 C601.258794,49.1834474 602.154794,47.6794474 603.786794,47.6794474 C605.418794,47.6794474 606.314794,49.1834474 606.314794,51.4234474 C606.314794,53.6314474 605.418794,55.1354474 603.786794,55.1354474 L603.786794,55.1354474 Z M589.098794,56.6714474 L591.530794,56.6714474 L604.714794,35.5834474 L602.282794,35.5834474 L589.098794,56.6714474 Z" id="25%-copy-5" fill="#73B85B" sketch:type="MSShapeGroup"></path>
                <path d="M664.546794,56.6714474 L667.330794,56.6714474 L667.330794,35.4234474 L665.090794,35.4234474 L658.626794,38.5594474 L659.586794,40.7994474 L664.546794,38.4314474 L664.546794,56.6714474 Z M679.906794,56.9914474 C684.290794,56.9914474 687.202794,53.1834474 687.202794,46.2074474 C687.202794,39.1994474 684.290794,35.3914474 679.906794,35.3914474 C675.522794,35.3914474 672.610794,39.1994474 672.610794,46.2074474 C672.610794,53.1834474 675.522794,56.9914474 679.906794,56.9914474 L679.906794,56.9914474 Z M679.906794,54.5594474 C677.122794,54.5594474 675.618794,51.4874474 675.618794,46.2074474 C675.618794,40.8954474 677.122794,37.8234474 679.906794,37.8234474 C682.722794,37.8234474 684.226794,40.8954474 684.226794,46.2074474 C684.226794,51.4874474 682.690794,54.5594474 679.906794,54.5594474 L679.906794,54.5594474 Z M695.522794,46.5594474 C698.210794,46.5594474 700.386794,44.7034474 700.386794,40.9914474 C700.386794,37.2794474 698.210794,35.3914474 695.522794,35.3914474 C692.802794,35.3914474 690.658794,37.2794474 690.658794,40.9914474 C690.658794,44.7034474 692.802794,46.5594474 695.522794,46.5594474 L695.522794,46.5594474 Z M695.522794,44.7034474 C693.890794,44.7034474 692.994794,43.1994474 692.994794,40.9914474 C692.994794,38.7834474 693.890794,37.2794474 695.522794,37.2794474 C697.154794,37.2794474 698.050794,38.7834474 698.050794,40.9914474 C698.050794,43.1994474 697.154794,44.7034474 695.522794,44.7034474 L695.522794,44.7034474 Z M709.250794,56.9914474 C711.938794,56.9914474 714.114794,55.1034474 714.114794,51.4234474 C714.114794,47.7114474 711.938794,45.8234474 709.250794,45.8234474 C706.562794,45.8234474 704.386794,47.7114474 704.386794,51.4234474 C704.386794,55.1034474 706.562794,56.9914474 709.250794,56.9914474 L709.250794,56.9914474 Z M709.250794,55.1354474 C707.618794,55.1354474 706.722794,53.6314474 706.722794,51.4234474 C706.722794,49.1834474 707.618794,47.6794474 709.250794,47.6794474 C710.882794,47.6794474 711.778794,49.1834474 711.778794,51.4234474 C711.778794,53.6314474 710.882794,55.1354474 709.250794,55.1354474 L709.250794,55.1354474 Z M694.562794,56.6714474 L696.994794,56.6714474 L710.178794,35.5834474 L707.746794,35.5834474 L694.562794,56.6714474 Z" id="10%-copy-5" fill="#73B85B" sketch:type="MSShapeGroup"></path>
            </g>
        </g>
    </g>
</svg>