<?xml version="1.0" encoding="UTF-8" standalone="no"?>
<svg width="200px" height="200px" viewBox="0 0 200 200" version="1.1" xmlns="http://www.w3.org/2000/svg" xmlns:xlink="http://www.w3.org/1999/xlink" xmlns:sketch="http://www.bohemiancoding.com/sketch/ns">
    <!-- Generator: Sketch 3.3.1 (12002) - http://www.bohemiancoding.com/sketch -->
    <title>colours-use-2</title>
    <desc>Created with Sketch.</desc>
    <defs></defs>
    <g id="Page-1" stroke="none" stroke-width="1" fill="none" fill-rule="evenodd" sketch:type="MSPage">
        <g id="Tiles" sketch:type="MSArtboardGroup" transform="translate(-57.000000, -281.000000)">
            <g id="colours-use-2" sketch:type="MSLayerGroup" transform="translate(57.000000, 281.000000)">
                <rect id="Rectangle-243-Copy-5" fill="#73B85B" sketch:type="MSShapeGroup" x="0" y="0" width="200" height="200" rx="10"></rect>
                <path d="M-33.36,114 L-27.36,114 L-27.36,93.48 L-8.7,114 L0.06,114 L-21.18,91.92 L-1.5,72.12 L-9.48,72.12 L-27.36,90.54 L-27.36,72.12 L-33.36,72.12 L-33.36,114 Z M6.54,114 L12.18,114 L12.18,83.4 L6.54,83.4 L6.54,114 Z M12.54,70.2 L6.18,70.2 L6.18,76.56 L12.54,76.56 L12.54,70.2 Z M22.5,114 L28.14,114 L28.14,99.84 C28.14,92.4 31.02,87.24 37.44,87.24 C42.36,87.54 43.92,91.02 43.92,98.16 L43.92,114 L49.56,114 L49.56,95.82 C49.56,87.6 46.02,82.68 38.1,82.68 C33.84,82.68 29.76,84.78 28.08,88.26 L27.96,88.26 L27.96,83.4 L22.5,83.4 L22.5,114 Z M86.22,83.4 L81,83.4 L81,87.96 L80.88,87.96 C79.2,84.66 76.2,82.68 70.8,82.68 C61.56,82.68 57.12,91.08 57.12,98.94 C57.12,106.86 61.44,114 70.2,114 C74.1,114 78.06,112.44 80.46,109.26 L80.58,109.26 L80.58,112.26 C80.58,118.74 77.04,122.76 71.1,122.76 C66.96,122.76 64.38,121.98 60.06,120 L59.46,125.22 C64.38,126.9 67.2,127.32 70.44,127.32 C81.42,127.32 86.22,121.98 86.22,112.68 L86.22,83.4 Z M71.64,109.44 C66.36,109.44 63.12,104.4 63.12,98.64 C63.12,93.42 65.94,87.24 71.64,87.24 C77.64,87.24 80.58,92.7 80.58,99.06 C80.58,104.76 76.92,109.44 71.64,109.44 L71.64,109.44 Z M94.14,86.82 L99.3,86.82 L104.58,72.12 L97.86,72.12 L94.14,86.82 Z M106.62,113.04 C109.2,114.42 112.14,114.72 115.02,114.72 C120.48,114.72 125.7,111.72 125.7,105.18 C125.7,95.4 112.44,97.2 112.44,90.96 C112.44,88.44 114.96,87.24 117.84,87.24 C119.16,87.24 122.52,88.02 123.78,88.8 L124.26,83.88 C122.04,83.22 119.88,82.68 117.24,82.68 C111.18,82.68 106.44,85.74 106.44,92.1 C106.44,100.68 119.7,100.2 119.7,105.78 C119.7,109.08 116.52,110.16 113.94,110.16 C112.32,110.16 109.14,109.44 106.92,108 L106.62,113.04 Z" id="King’s-Copy-5" fill="#FFFFFF" sketch:type="MSShapeGroup" transform="translate(47.190000, 98.760000) rotate(-90.000000) translate(-47.190000, -98.760000) "></path>
            </g>
        </g>
    </g>
</svg>