<?xml version="1.0" encoding="UTF-8" standalone="no"?>
<svg width="729px" height="191px" viewBox="0 0 729 191" version="1.1" xmlns="http://www.w3.org/2000/svg" xmlns:xlink="http://www.w3.org/1999/xlink" xmlns:sketch="http://www.bohemiancoding.com/sketch/ns">
    <!-- Generator: Sketch 3.3.1 (12002) - http://www.bohemiancoding.com/sketch -->
    <title>Colours-4</title>
    <desc>Created with Sketch.</desc>
    <defs></defs>
    <g id="Page-1" stroke="none" stroke-width="1" fill="none" fill-rule="evenodd" sketch:type="MSPage">
        <g id="A4" sketch:type="MSArtboardGroup" transform="translate(-55.000000, -823.000000)">
            <g id="Colours-4" sketch:type="MSLayerGroup" transform="translate(55.373206, 823.825658)">
                <g id="1" transform="translate(0.000000, 0.000000)" sketch:type="MSShapeGroup">
                    <g id="-2" transform="translate(211.019314, 96.978207)">
                        <rect id="5" fill="#191A1A" x="425.339617" y="0" width="91.7475278" height="92.3601974" rx="5"></rect>
                        <rect id="4" fill="#3D3F3E" x="319.004712" y="0" width="91.7475278" height="92.3601974" rx="5"></rect>
                        <rect id="3" fill="#7A7D7C" x="212.669808" y="0" width="91.7475278" height="92.3601974" rx="5"></rect>
                        <rect id="2" fill="#B6BABA" x="106.334904" y="0" width="91.7475278" height="92.3601974" rx="5"></rect>
                        <rect id="1" fill="#DBE0DF" x="0" y="0" width="91.7475278" height="92.3601974" rx="5"></rect>
                    </g>
                    <g transform="translate(211.019314, 0.000000)">
                        <rect id="5" fill="#FEFFFF" x="425.339617" y="0" width="91.7475278" height="92.3601974" rx="5"></rect>
                        <rect id="4" fill="#FCFEFD" x="319.004712" y="0" width="91.7475278" height="92.3601974" rx="5"></rect>
                        <rect id="3" fill="#F9FCFB" x="212.669808" y="0" width="91.7475278" height="92.3601974" rx="5"></rect>
                        <rect id="2" fill="#F6FAFA" x="106.334904" y="0" width="91.7475278" height="92.3601974" rx="5"></rect>
                        <rect fill="#F4F9F8" x="4.54747351e-13" y="0" width="91.7475278" height="92.3601974" rx="5"></rect>
                    </g>
                    <rect id="Square-1" fill="#F2F8F7" x="0" y="0" width="188.082432" height="189.338405" rx="10"></rect>
                </g>
                <path d="M341.546794,156.174342 L344.490794,156.174342 C345.930794,148.462342 349.034794,141.710342 353.386794,136.206342 L353.386794,135.086342 L339.626794,135.086342 L340.266794,137.422342 L349.642794,137.422342 C346.442794,141.742342 343.082794,148.142342 341.546794,156.174342 L341.546794,156.174342 Z M355.562794,155.534342 C356.618794,156.046342 358.282794,156.494342 360.330794,156.494342 C366.058794,156.494342 368.554794,153.454342 368.554794,149.678342 C368.554794,146.926342 367.082794,144.942342 364.522794,144.014342 C363.466794,143.630342 362.186794,143.502342 360.650794,143.502342 L359.818794,143.502342 L359.818794,137.422342 L367.978794,137.422342 L368.586794,135.086342 L357.034794,135.086342 L357.034794,145.806342 L359.434794,145.806342 C361.002794,145.806342 362.218794,145.902342 363.178794,146.254342 C364.650794,146.830342 365.578794,147.950342 365.578794,149.774342 C365.578794,152.654342 363.274794,154.062342 360.330794,154.062342 C358.666794,154.062342 357.386794,153.710342 356.362794,153.230342 L355.562794,155.534342 Z M377.290794,146.062342 C379.978794,146.062342 382.154794,144.206342 382.154794,140.494342 C382.154794,136.782342 379.978794,134.894342 377.290794,134.894342 C374.570794,134.894342 372.426794,136.782342 372.426794,140.494342 C372.426794,144.206342 374.570794,146.062342 377.290794,146.062342 L377.290794,146.062342 Z M377.290794,144.206342 C375.658794,144.206342 374.762794,142.702342 374.762794,140.494342 C374.762794,138.286342 375.658794,136.782342 377.290794,136.782342 C378.922794,136.782342 379.818794,138.286342 379.818794,140.494342 C379.818794,142.702342 378.922794,144.206342 377.290794,144.206342 L377.290794,144.206342 Z M391.018794,156.494342 C393.706794,156.494342 395.882794,154.606342 395.882794,150.926342 C395.882794,147.214342 393.706794,145.326342 391.018794,145.326342 C388.330794,145.326342 386.154794,147.214342 386.154794,150.926342 C386.154794,154.606342 388.330794,156.494342 391.018794,156.494342 L391.018794,156.494342 Z M391.018794,154.638342 C389.386794,154.638342 388.490794,153.134342 388.490794,150.926342 C388.490794,148.686342 389.386794,147.182342 391.018794,147.182342 C392.650794,147.182342 393.546794,148.686342 393.546794,150.926342 C393.546794,153.134342 392.650794,154.638342 391.018794,154.638342 L391.018794,154.638342 Z M376.330794,156.174342 L378.762794,156.174342 L391.946794,135.086342 L389.514794,135.086342 L376.330794,156.174342 Z" id="75%-copy-7" fill="#7A7D7C" sketch:type="MSShapeGroup"></path>
                <path d="M236.810794,156.494342 C242.794794,156.494342 245.866794,152.046342 245.866794,144.878342 C245.866794,138.126342 242.890794,134.894342 238.474794,134.894342 C234.474794,134.894342 231.626794,137.806342 231.626794,141.934342 C231.626794,146.606342 234.858794,148.462342 237.962794,148.462342 C239.978794,148.462342 241.642794,147.726342 242.890794,146.670342 L242.954794,146.670342 C242.602794,151.534342 240.426794,154.126342 236.810794,154.126342 C235.370794,154.126342 234.090794,153.774342 232.938794,153.262342 L232.202794,155.566342 C233.674794,156.206342 235.274794,156.494342 236.810794,156.494342 L236.810794,156.494342 Z M238.570794,146.094342 C235.978794,146.094342 234.570794,144.398342 234.570794,141.710342 C234.570794,139.150342 236.042794,137.262342 238.410794,137.262342 C241.162794,137.262342 242.922794,139.918342 242.922794,143.918342 C242.026794,145.070342 240.330794,146.094342 238.570794,146.094342 L238.570794,146.094342 Z M256.458794,156.494342 C260.842794,156.494342 263.754794,152.686342 263.754794,145.710342 C263.754794,138.702342 260.842794,134.894342 256.458794,134.894342 C252.074794,134.894342 249.162794,138.702342 249.162794,145.710342 C249.162794,152.686342 252.074794,156.494342 256.458794,156.494342 L256.458794,156.494342 Z M256.458794,154.062342 C253.674794,154.062342 252.170794,150.990342 252.170794,145.710342 C252.170794,140.398342 253.674794,137.326342 256.458794,137.326342 C259.274794,137.326342 260.778794,140.398342 260.778794,145.710342 C260.778794,150.990342 259.242794,154.062342 256.458794,154.062342 L256.458794,154.062342 Z M272.074794,146.062342 C274.762794,146.062342 276.938794,144.206342 276.938794,140.494342 C276.938794,136.782342 274.762794,134.894342 272.074794,134.894342 C269.354794,134.894342 267.210794,136.782342 267.210794,140.494342 C267.210794,144.206342 269.354794,146.062342 272.074794,146.062342 L272.074794,146.062342 Z M272.074794,144.206342 C270.442794,144.206342 269.546794,142.702342 269.546794,140.494342 C269.546794,138.286342 270.442794,136.782342 272.074794,136.782342 C273.706794,136.782342 274.602794,138.286342 274.602794,140.494342 C274.602794,142.702342 273.706794,144.206342 272.074794,144.206342 L272.074794,144.206342 Z M285.802794,156.494342 C288.490794,156.494342 290.666794,154.606342 290.666794,150.926342 C290.666794,147.214342 288.490794,145.326342 285.802794,145.326342 C283.114794,145.326342 280.938794,147.214342 280.938794,150.926342 C280.938794,154.606342 283.114794,156.494342 285.802794,156.494342 L285.802794,156.494342 Z M285.802794,154.638342 C284.170794,154.638342 283.274794,153.134342 283.274794,150.926342 C283.274794,148.686342 284.170794,147.182342 285.802794,147.182342 C287.434794,147.182342 288.330794,148.686342 288.330794,150.926342 C288.330794,153.134342 287.434794,154.638342 285.802794,154.638342 L285.802794,154.638342 Z M271.114794,156.174342 L273.546794,156.174342 L286.730794,135.086342 L284.298794,135.086342 L271.114794,156.174342 Z" id="90%-copy-6" fill="#7A7D7C" sketch:type="MSShapeGroup"></path>
                <path d="M445.814794,155.534342 C446.870794,156.046342 448.534794,156.494342 450.582794,156.494342 C456.310794,156.494342 458.806794,153.454342 458.806794,149.678342 C458.806794,146.926342 457.334794,144.942342 454.774794,144.014342 C453.718794,143.630342 452.438794,143.502342 450.902794,143.502342 L450.070794,143.502342 L450.070794,137.422342 L458.230794,137.422342 L458.838794,135.086342 L447.286794,135.086342 L447.286794,145.806342 L449.686794,145.806342 C451.254794,145.806342 452.470794,145.902342 453.430794,146.254342 C454.902794,146.830342 455.830794,147.950342 455.830794,149.774342 C455.830794,152.654342 453.526794,154.062342 450.582794,154.062342 C448.918794,154.062342 447.638794,153.710342 446.614794,153.230342 L445.814794,155.534342 Z M469.782794,156.494342 C474.166794,156.494342 477.078794,152.686342 477.078794,145.710342 C477.078794,138.702342 474.166794,134.894342 469.782794,134.894342 C465.398794,134.894342 462.486794,138.702342 462.486794,145.710342 C462.486794,152.686342 465.398794,156.494342 469.782794,156.494342 L469.782794,156.494342 Z M469.782794,154.062342 C466.998794,154.062342 465.494794,150.990342 465.494794,145.710342 C465.494794,140.398342 466.998794,137.326342 469.782794,137.326342 C472.598794,137.326342 474.102794,140.398342 474.102794,145.710342 C474.102794,150.990342 472.566794,154.062342 469.782794,154.062342 L469.782794,154.062342 Z M485.398794,146.062342 C488.086794,146.062342 490.262794,144.206342 490.262794,140.494342 C490.262794,136.782342 488.086794,134.894342 485.398794,134.894342 C482.678794,134.894342 480.534794,136.782342 480.534794,140.494342 C480.534794,144.206342 482.678794,146.062342 485.398794,146.062342 L485.398794,146.062342 Z M485.398794,144.206342 C483.766794,144.206342 482.870794,142.702342 482.870794,140.494342 C482.870794,138.286342 483.766794,136.782342 485.398794,136.782342 C487.030794,136.782342 487.926794,138.286342 487.926794,140.494342 C487.926794,142.702342 487.030794,144.206342 485.398794,144.206342 L485.398794,144.206342 Z M499.126794,156.494342 C501.814794,156.494342 503.990794,154.606342 503.990794,150.926342 C503.990794,147.214342 501.814794,145.326342 499.126794,145.326342 C496.438794,145.326342 494.262794,147.214342 494.262794,150.926342 C494.262794,154.606342 496.438794,156.494342 499.126794,156.494342 L499.126794,156.494342 Z M499.126794,154.638342 C497.494794,154.638342 496.598794,153.134342 496.598794,150.926342 C496.598794,148.686342 497.494794,147.182342 499.126794,147.182342 C500.758794,147.182342 501.654794,148.686342 501.654794,150.926342 C501.654794,153.134342 500.758794,154.638342 499.126794,154.638342 L499.126794,154.638342 Z M484.438794,156.174342 L486.870794,156.174342 L500.054794,135.086342 L497.622794,135.086342 L484.438794,156.174342 Z" id="50%-copy-6" fill="#FFFFFF" sketch:type="MSShapeGroup"></path>
                <path d="M551.626794,155.454342 L565.066794,155.454342 L565.066794,153.118342 L555.178794,153.118342 C556.426794,146.014342 565.002794,145.790342 565.002794,139.486342 C565.002794,136.478342 562.986794,134.174342 558.730794,134.174342 C556.138794,134.174342 553.834794,135.038342 552.362794,135.838342 L553.162794,138.046342 C554.506794,137.342342 556.330794,136.606342 558.410794,136.606342 C560.330794,136.606342 562.026794,137.470342 562.026794,139.710342 C562.026794,144.670342 552.554794,144.478342 551.626794,155.454342 L551.626794,155.454342 Z M568.330794,154.814342 C569.386794,155.326342 571.050794,155.774342 573.098794,155.774342 C578.826794,155.774342 581.322794,152.734342 581.322794,148.958342 C581.322794,146.206342 579.850794,144.222342 577.290794,143.294342 C576.234794,142.910342 574.954794,142.782342 573.418794,142.782342 L572.586794,142.782342 L572.586794,136.702342 L580.746794,136.702342 L581.354794,134.366342 L569.802794,134.366342 L569.802794,145.086342 L572.202794,145.086342 C573.770794,145.086342 574.986794,145.182342 575.946794,145.534342 C577.418794,146.110342 578.346794,147.230342 578.346794,149.054342 C578.346794,151.934342 576.042794,153.342342 573.098794,153.342342 C571.434794,153.342342 570.154794,152.990342 569.130794,152.510342 L568.330794,154.814342 Z M590.058794,145.342342 C592.746794,145.342342 594.922794,143.486342 594.922794,139.774342 C594.922794,136.062342 592.746794,134.174342 590.058794,134.174342 C587.338794,134.174342 585.194794,136.062342 585.194794,139.774342 C585.194794,143.486342 587.338794,145.342342 590.058794,145.342342 L590.058794,145.342342 Z M590.058794,143.486342 C588.426794,143.486342 587.530794,141.982342 587.530794,139.774342 C587.530794,137.566342 588.426794,136.062342 590.058794,136.062342 C591.690794,136.062342 592.586794,137.566342 592.586794,139.774342 C592.586794,141.982342 591.690794,143.486342 590.058794,143.486342 L590.058794,143.486342 Z M603.786794,155.774342 C606.474794,155.774342 608.650794,153.886342 608.650794,150.206342 C608.650794,146.494342 606.474794,144.606342 603.786794,144.606342 C601.098794,144.606342 598.922794,146.494342 598.922794,150.206342 C598.922794,153.886342 601.098794,155.774342 603.786794,155.774342 L603.786794,155.774342 Z M603.786794,153.918342 C602.154794,153.918342 601.258794,152.414342 601.258794,150.206342 C601.258794,147.966342 602.154794,146.462342 603.786794,146.462342 C605.418794,146.462342 606.314794,147.966342 606.314794,150.206342 C606.314794,152.414342 605.418794,153.918342 603.786794,153.918342 L603.786794,153.918342 Z M589.098794,155.454342 L591.530794,155.454342 L604.714794,134.366342 L602.282794,134.366342 L589.098794,155.454342 Z" id="25%-copy-6" fill="#FFFFFF" sketch:type="MSShapeGroup"></path>
                <path d="M664.546794,155.454342 L667.330794,155.454342 L667.330794,134.206342 L665.090794,134.206342 L658.626794,137.342342 L659.586794,139.582342 L664.546794,137.214342 L664.546794,155.454342 Z M679.906794,155.774342 C684.290794,155.774342 687.202794,151.966342 687.202794,144.990342 C687.202794,137.982342 684.290794,134.174342 679.906794,134.174342 C675.522794,134.174342 672.610794,137.982342 672.610794,144.990342 C672.610794,151.966342 675.522794,155.774342 679.906794,155.774342 L679.906794,155.774342 Z M679.906794,153.342342 C677.122794,153.342342 675.618794,150.270342 675.618794,144.990342 C675.618794,139.678342 677.122794,136.606342 679.906794,136.606342 C682.722794,136.606342 684.226794,139.678342 684.226794,144.990342 C684.226794,150.270342 682.690794,153.342342 679.906794,153.342342 L679.906794,153.342342 Z M695.522794,145.342342 C698.210794,145.342342 700.386794,143.486342 700.386794,139.774342 C700.386794,136.062342 698.210794,134.174342 695.522794,134.174342 C692.802794,134.174342 690.658794,136.062342 690.658794,139.774342 C690.658794,143.486342 692.802794,145.342342 695.522794,145.342342 L695.522794,145.342342 Z M695.522794,143.486342 C693.890794,143.486342 692.994794,141.982342 692.994794,139.774342 C692.994794,137.566342 693.890794,136.062342 695.522794,136.062342 C697.154794,136.062342 698.050794,137.566342 698.050794,139.774342 C698.050794,141.982342 697.154794,143.486342 695.522794,143.486342 L695.522794,143.486342 Z M709.250794,155.774342 C711.938794,155.774342 714.114794,153.886342 714.114794,150.206342 C714.114794,146.494342 711.938794,144.606342 709.250794,144.606342 C706.562794,144.606342 704.386794,146.494342 704.386794,150.206342 C704.386794,153.886342 706.562794,155.774342 709.250794,155.774342 L709.250794,155.774342 Z M709.250794,153.918342 C707.618794,153.918342 706.722794,152.414342 706.722794,150.206342 C706.722794,147.966342 707.618794,146.462342 709.250794,146.462342 C710.882794,146.462342 711.778794,147.966342 711.778794,150.206342 C711.778794,152.414342 710.882794,153.918342 709.250794,153.918342 L709.250794,153.918342 Z M694.562794,155.454342 L696.994794,155.454342 L710.178794,134.366342 L707.746794,134.366342 L694.562794,155.454342 Z" id="10%-copy-6" fill="#FFFFFF" sketch:type="MSShapeGroup"></path>
                <path d="M236.810794,58.7743421 C242.794794,58.7743421 245.866794,54.3263421 245.866794,47.1583421 C245.866794,40.4063421 242.890794,37.1743421 238.474794,37.1743421 C234.474794,37.1743421 231.626794,40.0863421 231.626794,44.2143421 C231.626794,48.8863421 234.858794,50.7423421 237.962794,50.7423421 C239.978794,50.7423421 241.642794,50.0063421 242.890794,48.9503421 L242.954794,48.9503421 C242.602794,53.8143421 240.426794,56.4063421 236.810794,56.4063421 C235.370794,56.4063421 234.090794,56.0543421 232.938794,55.5423421 L232.202794,57.8463421 C233.674794,58.4863421 235.274794,58.7743421 236.810794,58.7743421 L236.810794,58.7743421 Z M238.570794,48.3743421 C235.978794,48.3743421 234.570794,46.6783421 234.570794,43.9903421 C234.570794,41.4303421 236.042794,39.5423421 238.410794,39.5423421 C241.162794,39.5423421 242.922794,42.1983421 242.922794,46.1983421 C242.026794,47.3503421 240.330794,48.3743421 238.570794,48.3743421 L238.570794,48.3743421 Z M256.458794,58.7743421 C260.842794,58.7743421 263.754794,54.9663421 263.754794,47.9903421 C263.754794,40.9823421 260.842794,37.1743421 256.458794,37.1743421 C252.074794,37.1743421 249.162794,40.9823421 249.162794,47.9903421 C249.162794,54.9663421 252.074794,58.7743421 256.458794,58.7743421 L256.458794,58.7743421 Z M256.458794,56.3423421 C253.674794,56.3423421 252.170794,53.2703421 252.170794,47.9903421 C252.170794,42.6783421 253.674794,39.6063421 256.458794,39.6063421 C259.274794,39.6063421 260.778794,42.6783421 260.778794,47.9903421 C260.778794,53.2703421 259.242794,56.3423421 256.458794,56.3423421 L256.458794,56.3423421 Z M272.074794,48.3423421 C274.762794,48.3423421 276.938794,46.4863421 276.938794,42.7743421 C276.938794,39.0623421 274.762794,37.1743421 272.074794,37.1743421 C269.354794,37.1743421 267.210794,39.0623421 267.210794,42.7743421 C267.210794,46.4863421 269.354794,48.3423421 272.074794,48.3423421 L272.074794,48.3423421 Z M272.074794,46.4863421 C270.442794,46.4863421 269.546794,44.9823421 269.546794,42.7743421 C269.546794,40.5663421 270.442794,39.0623421 272.074794,39.0623421 C273.706794,39.0623421 274.602794,40.5663421 274.602794,42.7743421 C274.602794,44.9823421 273.706794,46.4863421 272.074794,46.4863421 L272.074794,46.4863421 Z M285.802794,58.7743421 C288.490794,58.7743421 290.666794,56.8863421 290.666794,53.2063421 C290.666794,49.4943421 288.490794,47.6063421 285.802794,47.6063421 C283.114794,47.6063421 280.938794,49.4943421 280.938794,53.2063421 C280.938794,56.8863421 283.114794,58.7743421 285.802794,58.7743421 L285.802794,58.7743421 Z M285.802794,56.9183421 C284.170794,56.9183421 283.274794,55.4143421 283.274794,53.2063421 C283.274794,50.9663421 284.170794,49.4623421 285.802794,49.4623421 C287.434794,49.4623421 288.330794,50.9663421 288.330794,53.2063421 C288.330794,55.4143421 287.434794,56.9183421 285.802794,56.9183421 L285.802794,56.9183421 Z M271.114794,58.4543421 L273.546794,58.4543421 L286.730794,37.3663421 L284.298794,37.3663421 L271.114794,58.4543421 Z" id="90%-copy-7" fill="#7A7D7C" sketch:type="MSShapeGroup"></path>
                <path d="M341.546794,58.4543421 L344.490794,58.4543421 C345.930794,50.7423421 349.034794,43.9903421 353.386794,38.4863421 L353.386794,37.3663421 L339.626794,37.3663421 L340.266794,39.7023421 L349.642794,39.7023421 C346.442794,44.0223421 343.082794,50.4223421 341.546794,58.4543421 L341.546794,58.4543421 Z M355.562794,57.8143421 C356.618794,58.3263421 358.282794,58.7743421 360.330794,58.7743421 C366.058794,58.7743421 368.554794,55.7343421 368.554794,51.9583421 C368.554794,49.2063421 367.082794,47.2223421 364.522794,46.2943421 C363.466794,45.9103421 362.186794,45.7823421 360.650794,45.7823421 L359.818794,45.7823421 L359.818794,39.7023421 L367.978794,39.7023421 L368.586794,37.3663421 L357.034794,37.3663421 L357.034794,48.0863421 L359.434794,48.0863421 C361.002794,48.0863421 362.218794,48.1823421 363.178794,48.5343421 C364.650794,49.1103421 365.578794,50.2303421 365.578794,52.0543421 C365.578794,54.9343421 363.274794,56.3423421 360.330794,56.3423421 C358.666794,56.3423421 357.386794,55.9903421 356.362794,55.5103421 L355.562794,57.8143421 Z M377.290794,48.3423421 C379.978794,48.3423421 382.154794,46.4863421 382.154794,42.7743421 C382.154794,39.0623421 379.978794,37.1743421 377.290794,37.1743421 C374.570794,37.1743421 372.426794,39.0623421 372.426794,42.7743421 C372.426794,46.4863421 374.570794,48.3423421 377.290794,48.3423421 L377.290794,48.3423421 Z M377.290794,46.4863421 C375.658794,46.4863421 374.762794,44.9823421 374.762794,42.7743421 C374.762794,40.5663421 375.658794,39.0623421 377.290794,39.0623421 C378.922794,39.0623421 379.818794,40.5663421 379.818794,42.7743421 C379.818794,44.9823421 378.922794,46.4863421 377.290794,46.4863421 L377.290794,46.4863421 Z M391.018794,58.7743421 C393.706794,58.7743421 395.882794,56.8863421 395.882794,53.2063421 C395.882794,49.4943421 393.706794,47.6063421 391.018794,47.6063421 C388.330794,47.6063421 386.154794,49.4943421 386.154794,53.2063421 C386.154794,56.8863421 388.330794,58.7743421 391.018794,58.7743421 L391.018794,58.7743421 Z M391.018794,56.9183421 C389.386794,56.9183421 388.490794,55.4143421 388.490794,53.2063421 C388.490794,50.9663421 389.386794,49.4623421 391.018794,49.4623421 C392.650794,49.4623421 393.546794,50.9663421 393.546794,53.2063421 C393.546794,55.4143421 392.650794,56.9183421 391.018794,56.9183421 L391.018794,56.9183421 Z M376.330794,58.4543421 L378.762794,58.4543421 L391.946794,37.3663421 L389.514794,37.3663421 L376.330794,58.4543421 Z" id="75%-copy-6" fill="#7A7D7C" sketch:type="MSShapeGroup"></path>
                <path d="M444.626794,57.8143421 C445.682794,58.3263421 447.346794,58.7743421 449.394794,58.7743421 C455.122794,58.7743421 457.618794,55.7343421 457.618794,51.9583421 C457.618794,49.2063421 456.146794,47.2223421 453.586794,46.2943421 C452.530794,45.9103421 451.250794,45.7823421 449.714794,45.7823421 L448.882794,45.7823421 L448.882794,39.7023421 L457.042794,39.7023421 L457.650794,37.3663421 L446.098794,37.3663421 L446.098794,48.0863421 L448.498794,48.0863421 C450.066794,48.0863421 451.282794,48.1823421 452.242794,48.5343421 C453.714794,49.1103421 454.642794,50.2303421 454.642794,52.0543421 C454.642794,54.9343421 452.338794,56.3423421 449.394794,56.3423421 C447.730794,56.3423421 446.450794,55.9903421 445.426794,55.5103421 L444.626794,57.8143421 Z M468.594794,58.7743421 C472.978794,58.7743421 475.890794,54.9663421 475.890794,47.9903421 C475.890794,40.9823421 472.978794,37.1743421 468.594794,37.1743421 C464.210794,37.1743421 461.298794,40.9823421 461.298794,47.9903421 C461.298794,54.9663421 464.210794,58.7743421 468.594794,58.7743421 L468.594794,58.7743421 Z M468.594794,56.3423421 C465.810794,56.3423421 464.306794,53.2703421 464.306794,47.9903421 C464.306794,42.6783421 465.810794,39.6063421 468.594794,39.6063421 C471.410794,39.6063421 472.914794,42.6783421 472.914794,47.9903421 C472.914794,53.2703421 471.378794,56.3423421 468.594794,56.3423421 L468.594794,56.3423421 Z M484.210794,48.3423421 C486.898794,48.3423421 489.074794,46.4863421 489.074794,42.7743421 C489.074794,39.0623421 486.898794,37.1743421 484.210794,37.1743421 C481.490794,37.1743421 479.346794,39.0623421 479.346794,42.7743421 C479.346794,46.4863421 481.490794,48.3423421 484.210794,48.3423421 L484.210794,48.3423421 Z M484.210794,46.4863421 C482.578794,46.4863421 481.682794,44.9823421 481.682794,42.7743421 C481.682794,40.5663421 482.578794,39.0623421 484.210794,39.0623421 C485.842794,39.0623421 486.738794,40.5663421 486.738794,42.7743421 C486.738794,44.9823421 485.842794,46.4863421 484.210794,46.4863421 L484.210794,46.4863421 Z M497.938794,58.7743421 C500.626794,58.7743421 502.802794,56.8863421 502.802794,53.2063421 C502.802794,49.4943421 500.626794,47.6063421 497.938794,47.6063421 C495.250794,47.6063421 493.074794,49.4943421 493.074794,53.2063421 C493.074794,56.8863421 495.250794,58.7743421 497.938794,58.7743421 L497.938794,58.7743421 Z M497.938794,56.9183421 C496.306794,56.9183421 495.410794,55.4143421 495.410794,53.2063421 C495.410794,50.9663421 496.306794,49.4623421 497.938794,49.4623421 C499.570794,49.4623421 500.466794,50.9663421 500.466794,53.2063421 C500.466794,55.4143421 499.570794,56.9183421 497.938794,56.9183421 L497.938794,56.9183421 Z M483.250794,58.4543421 L485.682794,58.4543421 L498.866794,37.3663421 L496.434794,37.3663421 L483.250794,58.4543421 Z" id="50%-copy-7" fill="#7A7D7C" sketch:type="MSShapeGroup"></path>
                <path d="M551.626794,58.4543421 L565.066794,58.4543421 L565.066794,56.1183421 L555.178794,56.1183421 C556.426794,49.0143421 565.002794,48.7903421 565.002794,42.4863421 C565.002794,39.4783421 562.986794,37.1743421 558.730794,37.1743421 C556.138794,37.1743421 553.834794,38.0383421 552.362794,38.8383421 L553.162794,41.0463421 C554.506794,40.3423421 556.330794,39.6063421 558.410794,39.6063421 C560.330794,39.6063421 562.026794,40.4703421 562.026794,42.7103421 C562.026794,47.6703421 552.554794,47.4783421 551.626794,58.4543421 L551.626794,58.4543421 Z M568.330794,57.8143421 C569.386794,58.3263421 571.050794,58.7743421 573.098794,58.7743421 C578.826794,58.7743421 581.322794,55.7343421 581.322794,51.9583421 C581.322794,49.2063421 579.850794,47.2223421 577.290794,46.2943421 C576.234794,45.9103421 574.954794,45.7823421 573.418794,45.7823421 L572.586794,45.7823421 L572.586794,39.7023421 L580.746794,39.7023421 L581.354794,37.3663421 L569.802794,37.3663421 L569.802794,48.0863421 L572.202794,48.0863421 C573.770794,48.0863421 574.986794,48.1823421 575.946794,48.5343421 C577.418794,49.1103421 578.346794,50.2303421 578.346794,52.0543421 C578.346794,54.9343421 576.042794,56.3423421 573.098794,56.3423421 C571.434794,56.3423421 570.154794,55.9903421 569.130794,55.5103421 L568.330794,57.8143421 Z M590.058794,48.3423421 C592.746794,48.3423421 594.922794,46.4863421 594.922794,42.7743421 C594.922794,39.0623421 592.746794,37.1743421 590.058794,37.1743421 C587.338794,37.1743421 585.194794,39.0623421 585.194794,42.7743421 C585.194794,46.4863421 587.338794,48.3423421 590.058794,48.3423421 L590.058794,48.3423421 Z M590.058794,46.4863421 C588.426794,46.4863421 587.530794,44.9823421 587.530794,42.7743421 C587.530794,40.5663421 588.426794,39.0623421 590.058794,39.0623421 C591.690794,39.0623421 592.586794,40.5663421 592.586794,42.7743421 C592.586794,44.9823421 591.690794,46.4863421 590.058794,46.4863421 L590.058794,46.4863421 Z M603.786794,58.7743421 C606.474794,58.7743421 608.650794,56.8863421 608.650794,53.2063421 C608.650794,49.4943421 606.474794,47.6063421 603.786794,47.6063421 C601.098794,47.6063421 598.922794,49.4943421 598.922794,53.2063421 C598.922794,56.8863421 601.098794,58.7743421 603.786794,58.7743421 L603.786794,58.7743421 Z M603.786794,56.9183421 C602.154794,56.9183421 601.258794,55.4143421 601.258794,53.2063421 C601.258794,50.9663421 602.154794,49.4623421 603.786794,49.4623421 C605.418794,49.4623421 606.314794,50.9663421 606.314794,53.2063421 C606.314794,55.4143421 605.418794,56.9183421 603.786794,56.9183421 L603.786794,56.9183421 Z M589.098794,58.4543421 L591.530794,58.4543421 L604.714794,37.3663421 L602.282794,37.3663421 L589.098794,58.4543421 Z" id="25%-copy-7" fill="#7A7D7C" sketch:type="MSShapeGroup"></path>
                <path d="M664.546794,58.4543421 L667.330794,58.4543421 L667.330794,37.2063421 L665.090794,37.2063421 L658.626794,40.3423421 L659.586794,42.5823421 L664.546794,40.2143421 L664.546794,58.4543421 Z M679.906794,58.7743421 C684.290794,58.7743421 687.202794,54.9663421 687.202794,47.9903421 C687.202794,40.9823421 684.290794,37.1743421 679.906794,37.1743421 C675.522794,37.1743421 672.610794,40.9823421 672.610794,47.9903421 C672.610794,54.9663421 675.522794,58.7743421 679.906794,58.7743421 L679.906794,58.7743421 Z M679.906794,56.3423421 C677.122794,56.3423421 675.618794,53.2703421 675.618794,47.9903421 C675.618794,42.6783421 677.122794,39.6063421 679.906794,39.6063421 C682.722794,39.6063421 684.226794,42.6783421 684.226794,47.9903421 C684.226794,53.2703421 682.690794,56.3423421 679.906794,56.3423421 L679.906794,56.3423421 Z M695.522794,48.3423421 C698.210794,48.3423421 700.386794,46.4863421 700.386794,42.7743421 C700.386794,39.0623421 698.210794,37.1743421 695.522794,37.1743421 C692.802794,37.1743421 690.658794,39.0623421 690.658794,42.7743421 C690.658794,46.4863421 692.802794,48.3423421 695.522794,48.3423421 L695.522794,48.3423421 Z M695.522794,46.4863421 C693.890794,46.4863421 692.994794,44.9823421 692.994794,42.7743421 C692.994794,40.5663421 693.890794,39.0623421 695.522794,39.0623421 C697.154794,39.0623421 698.050794,40.5663421 698.050794,42.7743421 C698.050794,44.9823421 697.154794,46.4863421 695.522794,46.4863421 L695.522794,46.4863421 Z M709.250794,58.7743421 C711.938794,58.7743421 714.114794,56.8863421 714.114794,53.2063421 C714.114794,49.4943421 711.938794,47.6063421 709.250794,47.6063421 C706.562794,47.6063421 704.386794,49.4943421 704.386794,53.2063421 C704.386794,56.8863421 706.562794,58.7743421 709.250794,58.7743421 L709.250794,58.7743421 Z M709.250794,56.9183421 C707.618794,56.9183421 706.722794,55.4143421 706.722794,53.2063421 C706.722794,50.9663421 707.618794,49.4623421 709.250794,49.4623421 C710.882794,49.4623421 711.778794,50.9663421 711.778794,53.2063421 C711.778794,55.4143421 710.882794,56.9183421 709.250794,56.9183421 L709.250794,56.9183421 Z M694.562794,58.4543421 L696.994794,58.4543421 L710.178794,37.3663421 L707.746794,37.3663421 L694.562794,58.4543421 Z" id="10%-copy-7" fill="#7A7D7C" sketch:type="MSShapeGroup"></path>
            </g>
        </g>
    </g>
</svg>