<?xml version="1.0" encoding="UTF-8" standalone="no"?>
<svg width="729px" height="190px" viewBox="0 0 729 190" version="1.1" xmlns="http://www.w3.org/2000/svg" xmlns:xlink="http://www.w3.org/1999/xlink" xmlns:sketch="http://www.bohemiancoding.com/sketch/ns">
    <!-- Generator: Sketch 3.3.1 (12002) - http://www.bohemiancoding.com/sketch -->
    <title>Colours-1</title>
    <desc>Created with Sketch.</desc>
    <defs></defs>
    <g id="Page-1" stroke="none" stroke-width="1" fill="none" fill-rule="evenodd" sketch:type="MSPage">
        <g id="A4" sketch:type="MSArtboardGroup" transform="translate(-55.000000, -48.000000)">
            <g id="Colours-1" sketch:type="MSLayerGroup" transform="translate(54.873206, 48.000000)">
                <g id="1" transform="translate(1.000000, 0.000000)" sketch:type="MSShapeGroup">
                    <g id="-2" transform="translate(211.019314, 96.978207)">
                        <rect id="5" fill="#030E11" x="425.339617" y="0" width="91.7475278" height="92.3601974" rx="5"></rect>
                        <rect id="4" fill="#062129" x="319.004712" y="0" width="91.7475278" height="92.3601974" rx="5"></rect>
                        <rect id="3" fill="#0C4152" x="212.669808" y="0" width="91.7475278" height="92.3601974" rx="5"></rect>
                        <rect id="2" fill="#12617A" x="106.334904" y="0" width="91.7475278" height="92.3601974" rx="5"></rect>
                        <rect id="1" fill="#157593" x="0" y="0" width="91.7475278" height="92.3601974" rx="5"></rect>
                    </g>
                    <g transform="translate(211.019314, 0.000000)">
                        <rect id="5" stroke="#8BC0D1" fill="#E8F3F6" x="425.339617" y="0" width="91.7475278" height="92.3601974" rx="5"></rect>
                        <rect id="4" fill="#C5E0E8" x="319.004712" y="0" width="91.7475278" height="92.3601974" rx="5"></rect>
                        <rect id="3" fill="#8BC0D1" x="212.669808" y="0" width="91.7475278" height="92.3601974" rx="5"></rect>
                        <rect id="2" fill="#52A1BA" x="106.334904" y="0" width="91.7475278" height="92.3601974" rx="5"></rect>
                        <rect fill="#2E8EAC" x="0" y="0" width="91.7475278" height="92.3601974" rx="5"></rect>
                    </g>
                    <rect id="Square-1" fill="#1781A2" x="0" y="0" width="188.082432" height="189.338405" rx="10"></rect>
                </g>
                <path d="M340.253106,153 L343.197106,153 C344.637106,145.288 347.741106,138.536 352.093106,133.032 L352.093106,131.912 L338.333106,131.912 L338.973106,134.248 L348.349106,134.248 C345.149106,138.568 341.789106,144.968 340.253106,153 L340.253106,153 Z M354.269106,152.36 C355.325106,152.872 356.989106,153.32 359.037106,153.32 C364.765106,153.32 367.261106,150.28 367.261106,146.504 C367.261106,143.752 365.789106,141.768 363.229106,140.84 C362.173106,140.456 360.893106,140.328 359.357106,140.328 L358.525106,140.328 L358.525106,134.248 L366.685106,134.248 L367.293106,131.912 L355.741106,131.912 L355.741106,142.632 L358.141106,142.632 C359.709106,142.632 360.925106,142.728 361.885106,143.08 C363.357106,143.656 364.285106,144.776 364.285106,146.6 C364.285106,149.48 361.981106,150.888 359.037106,150.888 C357.373106,150.888 356.093106,150.536 355.069106,150.056 L354.269106,152.36 Z M375.997106,142.888 C378.685106,142.888 380.861106,141.032 380.861106,137.32 C380.861106,133.608 378.685106,131.72 375.997106,131.72 C373.277106,131.72 371.133106,133.608 371.133106,137.32 C371.133106,141.032 373.277106,142.888 375.997106,142.888 L375.997106,142.888 Z M375.997106,141.032 C374.365106,141.032 373.469106,139.528 373.469106,137.32 C373.469106,135.112 374.365106,133.608 375.997106,133.608 C377.629106,133.608 378.525106,135.112 378.525106,137.32 C378.525106,139.528 377.629106,141.032 375.997106,141.032 L375.997106,141.032 Z M389.725106,153.32 C392.413106,153.32 394.589106,151.432 394.589106,147.752 C394.589106,144.04 392.413106,142.152 389.725106,142.152 C387.037106,142.152 384.861106,144.04 384.861106,147.752 C384.861106,151.432 387.037106,153.32 389.725106,153.32 L389.725106,153.32 Z M389.725106,151.464 C388.093106,151.464 387.197106,149.96 387.197106,147.752 C387.197106,145.512 388.093106,144.008 389.725106,144.008 C391.357106,144.008 392.253106,145.512 392.253106,147.752 C392.253106,149.96 391.357106,151.464 389.725106,151.464 L389.725106,151.464 Z M375.037106,153 L377.469106,153 L390.653106,131.912 L388.221106,131.912 L375.037106,153 Z" id="75%-copy" fill="#FFFFFF" sketch:type="MSShapeGroup"></path>
                <path d="M235.517106,153.32 C241.501106,153.32 244.573106,148.872 244.573106,141.704 C244.573106,134.952 241.597106,131.72 237.181106,131.72 C233.181106,131.72 230.333106,134.632 230.333106,138.76 C230.333106,143.432 233.565106,145.288 236.669106,145.288 C238.685106,145.288 240.349106,144.552 241.597106,143.496 L241.661106,143.496 C241.309106,148.36 239.133106,150.952 235.517106,150.952 C234.077106,150.952 232.797106,150.6 231.645106,150.088 L230.909106,152.392 C232.381106,153.032 233.981106,153.32 235.517106,153.32 L235.517106,153.32 Z M237.277106,142.92 C234.685106,142.92 233.277106,141.224 233.277106,138.536 C233.277106,135.976 234.749106,134.088 237.117106,134.088 C239.869106,134.088 241.629106,136.744 241.629106,140.744 C240.733106,141.896 239.037106,142.92 237.277106,142.92 L237.277106,142.92 Z M255.165106,153.32 C259.549106,153.32 262.461106,149.512 262.461106,142.536 C262.461106,135.528 259.549106,131.72 255.165106,131.72 C250.781106,131.72 247.869106,135.528 247.869106,142.536 C247.869106,149.512 250.781106,153.32 255.165106,153.32 L255.165106,153.32 Z M255.165106,150.888 C252.381106,150.888 250.877106,147.816 250.877106,142.536 C250.877106,137.224 252.381106,134.152 255.165106,134.152 C257.981106,134.152 259.485106,137.224 259.485106,142.536 C259.485106,147.816 257.949106,150.888 255.165106,150.888 L255.165106,150.888 Z M270.781106,142.888 C273.469106,142.888 275.645106,141.032 275.645106,137.32 C275.645106,133.608 273.469106,131.72 270.781106,131.72 C268.061106,131.72 265.917106,133.608 265.917106,137.32 C265.917106,141.032 268.061106,142.888 270.781106,142.888 L270.781106,142.888 Z M270.781106,141.032 C269.149106,141.032 268.253106,139.528 268.253106,137.32 C268.253106,135.112 269.149106,133.608 270.781106,133.608 C272.413106,133.608 273.309106,135.112 273.309106,137.32 C273.309106,139.528 272.413106,141.032 270.781106,141.032 L270.781106,141.032 Z M284.509106,153.32 C287.197106,153.32 289.373106,151.432 289.373106,147.752 C289.373106,144.04 287.197106,142.152 284.509106,142.152 C281.821106,142.152 279.645106,144.04 279.645106,147.752 C279.645106,151.432 281.821106,153.32 284.509106,153.32 L284.509106,153.32 Z M284.509106,151.464 C282.877106,151.464 281.981106,149.96 281.981106,147.752 C281.981106,145.512 282.877106,144.008 284.509106,144.008 C286.141106,144.008 287.037106,145.512 287.037106,147.752 C287.037106,149.96 286.141106,151.464 284.509106,151.464 L284.509106,151.464 Z M269.821106,153 L272.253106,153 L285.437106,131.912 L283.005106,131.912 L269.821106,153 Z" id="90%-copy" fill="#FFFFFF" sketch:type="MSShapeGroup"></path>
                <path d="M444.521106,152.36 C445.577106,152.872 447.241106,153.32 449.289106,153.32 C455.017106,153.32 457.513106,150.28 457.513106,146.504 C457.513106,143.752 456.041106,141.768 453.481106,140.84 C452.425106,140.456 451.145106,140.328 449.609106,140.328 L448.777106,140.328 L448.777106,134.248 L456.937106,134.248 L457.545106,131.912 L445.993106,131.912 L445.993106,142.632 L448.393106,142.632 C449.961106,142.632 451.177106,142.728 452.137106,143.08 C453.609106,143.656 454.537106,144.776 454.537106,146.6 C454.537106,149.48 452.233106,150.888 449.289106,150.888 C447.625106,150.888 446.345106,150.536 445.321106,150.056 L444.521106,152.36 Z M468.489106,153.32 C472.873106,153.32 475.785106,149.512 475.785106,142.536 C475.785106,135.528 472.873106,131.72 468.489106,131.72 C464.105106,131.72 461.193106,135.528 461.193106,142.536 C461.193106,149.512 464.105106,153.32 468.489106,153.32 L468.489106,153.32 Z M468.489106,150.888 C465.705106,150.888 464.201106,147.816 464.201106,142.536 C464.201106,137.224 465.705106,134.152 468.489106,134.152 C471.305106,134.152 472.809106,137.224 472.809106,142.536 C472.809106,147.816 471.273106,150.888 468.489106,150.888 L468.489106,150.888 Z M484.105106,142.888 C486.793106,142.888 488.969106,141.032 488.969106,137.32 C488.969106,133.608 486.793106,131.72 484.105106,131.72 C481.385106,131.72 479.241106,133.608 479.241106,137.32 C479.241106,141.032 481.385106,142.888 484.105106,142.888 L484.105106,142.888 Z M484.105106,141.032 C482.473106,141.032 481.577106,139.528 481.577106,137.32 C481.577106,135.112 482.473106,133.608 484.105106,133.608 C485.737106,133.608 486.633106,135.112 486.633106,137.32 C486.633106,139.528 485.737106,141.032 484.105106,141.032 L484.105106,141.032 Z M497.833106,153.32 C500.521106,153.32 502.697106,151.432 502.697106,147.752 C502.697106,144.04 500.521106,142.152 497.833106,142.152 C495.145106,142.152 492.969106,144.04 492.969106,147.752 C492.969106,151.432 495.145106,153.32 497.833106,153.32 L497.833106,153.32 Z M497.833106,151.464 C496.201106,151.464 495.305106,149.96 495.305106,147.752 C495.305106,145.512 496.201106,144.008 497.833106,144.008 C499.465106,144.008 500.361106,145.512 500.361106,147.752 C500.361106,149.96 499.465106,151.464 497.833106,151.464 L497.833106,151.464 Z M483.145106,153 L485.577106,153 L498.761106,131.912 L496.329106,131.912 L483.145106,153 Z" id="50%-copy" fill="#FFFFFF" sketch:type="MSShapeGroup"></path>
                <path d="M550.333106,152.28 L563.773106,152.28 L563.773106,149.944 L553.885106,149.944 C555.133106,142.84 563.709106,142.616 563.709106,136.312 C563.709106,133.304 561.693106,131 557.437106,131 C554.845106,131 552.541106,131.864 551.069106,132.664 L551.869106,134.872 C553.213106,134.168 555.037106,133.432 557.117106,133.432 C559.037106,133.432 560.733106,134.296 560.733106,136.536 C560.733106,141.496 551.261106,141.304 550.333106,152.28 L550.333106,152.28 Z M567.037106,151.64 C568.093106,152.152 569.757106,152.6 571.805106,152.6 C577.533106,152.6 580.029106,149.56 580.029106,145.784 C580.029106,143.032 578.557106,141.048 575.997106,140.12 C574.941106,139.736 573.661106,139.608 572.125106,139.608 L571.293106,139.608 L571.293106,133.528 L579.453106,133.528 L580.061106,131.192 L568.509106,131.192 L568.509106,141.912 L570.909106,141.912 C572.477106,141.912 573.693106,142.008 574.653106,142.36 C576.125106,142.936 577.053106,144.056 577.053106,145.88 C577.053106,148.76 574.749106,150.168 571.805106,150.168 C570.141106,150.168 568.861106,149.816 567.837106,149.336 L567.037106,151.64 Z M588.765106,142.168 C591.453106,142.168 593.629106,140.312 593.629106,136.6 C593.629106,132.888 591.453106,131 588.765106,131 C586.045106,131 583.901106,132.888 583.901106,136.6 C583.901106,140.312 586.045106,142.168 588.765106,142.168 L588.765106,142.168 Z M588.765106,140.312 C587.133106,140.312 586.237106,138.808 586.237106,136.6 C586.237106,134.392 587.133106,132.888 588.765106,132.888 C590.397106,132.888 591.293106,134.392 591.293106,136.6 C591.293106,138.808 590.397106,140.312 588.765106,140.312 L588.765106,140.312 Z M602.493106,152.6 C605.181106,152.6 607.357106,150.712 607.357106,147.032 C607.357106,143.32 605.181106,141.432 602.493106,141.432 C599.805106,141.432 597.629106,143.32 597.629106,147.032 C597.629106,150.712 599.805106,152.6 602.493106,152.6 L602.493106,152.6 Z M602.493106,150.744 C600.861106,150.744 599.965106,149.24 599.965106,147.032 C599.965106,144.792 600.861106,143.288 602.493106,143.288 C604.125106,143.288 605.021106,144.792 605.021106,147.032 C605.021106,149.24 604.125106,150.744 602.493106,150.744 L602.493106,150.744 Z M587.805106,152.28 L590.237106,152.28 L603.421106,131.192 L600.989106,131.192 L587.805106,152.28 Z" id="25%-copy" fill="#FFFFFF" sketch:type="MSShapeGroup"></path>
                <path d="M663.253106,152.28 L666.037106,152.28 L666.037106,131.032 L663.797106,131.032 L657.333106,134.168 L658.293106,136.408 L663.253106,134.04 L663.253106,152.28 Z M678.613106,152.6 C682.997106,152.6 685.909106,148.792 685.909106,141.816 C685.909106,134.808 682.997106,131 678.613106,131 C674.229106,131 671.317106,134.808 671.317106,141.816 C671.317106,148.792 674.229106,152.6 678.613106,152.6 L678.613106,152.6 Z M678.613106,150.168 C675.829106,150.168 674.325106,147.096 674.325106,141.816 C674.325106,136.504 675.829106,133.432 678.613106,133.432 C681.429106,133.432 682.933106,136.504 682.933106,141.816 C682.933106,147.096 681.397106,150.168 678.613106,150.168 L678.613106,150.168 Z M694.229106,142.168 C696.917106,142.168 699.093106,140.312 699.093106,136.6 C699.093106,132.888 696.917106,131 694.229106,131 C691.509106,131 689.365106,132.888 689.365106,136.6 C689.365106,140.312 691.509106,142.168 694.229106,142.168 L694.229106,142.168 Z M694.229106,140.312 C692.597106,140.312 691.701106,138.808 691.701106,136.6 C691.701106,134.392 692.597106,132.888 694.229106,132.888 C695.861106,132.888 696.757106,134.392 696.757106,136.6 C696.757106,138.808 695.861106,140.312 694.229106,140.312 L694.229106,140.312 Z M707.957106,152.6 C710.645106,152.6 712.821106,150.712 712.821106,147.032 C712.821106,143.32 710.645106,141.432 707.957106,141.432 C705.269106,141.432 703.093106,143.32 703.093106,147.032 C703.093106,150.712 705.269106,152.6 707.957106,152.6 L707.957106,152.6 Z M707.957106,150.744 C706.325106,150.744 705.429106,149.24 705.429106,147.032 C705.429106,144.792 706.325106,143.288 707.957106,143.288 C709.589106,143.288 710.485106,144.792 710.485106,147.032 C710.485106,149.24 709.589106,150.744 707.957106,150.744 L707.957106,150.744 Z M693.269106,152.28 L695.701106,152.28 L708.885106,131.192 L706.453106,131.192 L693.269106,152.28 Z" id="10%-copy" fill="#1781A2" sketch:type="MSShapeGroup"></path>
                <path d="M235.517106,55.6 C241.501106,55.6 244.573106,51.152 244.573106,43.984 C244.573106,37.232 241.597106,34 237.181106,34 C233.181106,34 230.333106,36.912 230.333106,41.04 C230.333106,45.712 233.565106,47.568 236.669106,47.568 C238.685106,47.568 240.349106,46.832 241.597106,45.776 L241.661106,45.776 C241.309106,50.64 239.133106,53.232 235.517106,53.232 C234.077106,53.232 232.797106,52.88 231.645106,52.368 L230.909106,54.672 C232.381106,55.312 233.981106,55.6 235.517106,55.6 L235.517106,55.6 Z M237.277106,45.2 C234.685106,45.2 233.277106,43.504 233.277106,40.816 C233.277106,38.256 234.749106,36.368 237.117106,36.368 C239.869106,36.368 241.629106,39.024 241.629106,43.024 C240.733106,44.176 239.037106,45.2 237.277106,45.2 L237.277106,45.2 Z M255.165106,55.6 C259.549106,55.6 262.461106,51.792 262.461106,44.816 C262.461106,37.808 259.549106,34 255.165106,34 C250.781106,34 247.869106,37.808 247.869106,44.816 C247.869106,51.792 250.781106,55.6 255.165106,55.6 L255.165106,55.6 Z M255.165106,53.168 C252.381106,53.168 250.877106,50.096 250.877106,44.816 C250.877106,39.504 252.381106,36.432 255.165106,36.432 C257.981106,36.432 259.485106,39.504 259.485106,44.816 C259.485106,50.096 257.949106,53.168 255.165106,53.168 L255.165106,53.168 Z M270.781106,45.168 C273.469106,45.168 275.645106,43.312 275.645106,39.6 C275.645106,35.888 273.469106,34 270.781106,34 C268.061106,34 265.917106,35.888 265.917106,39.6 C265.917106,43.312 268.061106,45.168 270.781106,45.168 L270.781106,45.168 Z M270.781106,43.312 C269.149106,43.312 268.253106,41.808 268.253106,39.6 C268.253106,37.392 269.149106,35.888 270.781106,35.888 C272.413106,35.888 273.309106,37.392 273.309106,39.6 C273.309106,41.808 272.413106,43.312 270.781106,43.312 L270.781106,43.312 Z M284.509106,55.6 C287.197106,55.6 289.373106,53.712 289.373106,50.032 C289.373106,46.32 287.197106,44.432 284.509106,44.432 C281.821106,44.432 279.645106,46.32 279.645106,50.032 C279.645106,53.712 281.821106,55.6 284.509106,55.6 L284.509106,55.6 Z M284.509106,53.744 C282.877106,53.744 281.981106,52.24 281.981106,50.032 C281.981106,47.792 282.877106,46.288 284.509106,46.288 C286.141106,46.288 287.037106,47.792 287.037106,50.032 C287.037106,52.24 286.141106,53.744 284.509106,53.744 L284.509106,53.744 Z M269.821106,55.28 L272.253106,55.28 L285.437106,34.192 L283.005106,34.192 L269.821106,55.28 Z" id="90%" fill="#FFFFFF" sketch:type="MSShapeGroup"></path>
                <path d="M340.253106,55.28 L343.197106,55.28 C344.637106,47.568 347.741106,40.816 352.093106,35.312 L352.093106,34.192 L338.333106,34.192 L338.973106,36.528 L348.349106,36.528 C345.149106,40.848 341.789106,47.248 340.253106,55.28 L340.253106,55.28 Z M354.269106,54.64 C355.325106,55.152 356.989106,55.6 359.037106,55.6 C364.765106,55.6 367.261106,52.56 367.261106,48.784 C367.261106,46.032 365.789106,44.048 363.229106,43.12 C362.173106,42.736 360.893106,42.608 359.357106,42.608 L358.525106,42.608 L358.525106,36.528 L366.685106,36.528 L367.293106,34.192 L355.741106,34.192 L355.741106,44.912 L358.141106,44.912 C359.709106,44.912 360.925106,45.008 361.885106,45.36 C363.357106,45.936 364.285106,47.056 364.285106,48.88 C364.285106,51.76 361.981106,53.168 359.037106,53.168 C357.373106,53.168 356.093106,52.816 355.069106,52.336 L354.269106,54.64 Z M375.997106,45.168 C378.685106,45.168 380.861106,43.312 380.861106,39.6 C380.861106,35.888 378.685106,34 375.997106,34 C373.277106,34 371.133106,35.888 371.133106,39.6 C371.133106,43.312 373.277106,45.168 375.997106,45.168 L375.997106,45.168 Z M375.997106,43.312 C374.365106,43.312 373.469106,41.808 373.469106,39.6 C373.469106,37.392 374.365106,35.888 375.997106,35.888 C377.629106,35.888 378.525106,37.392 378.525106,39.6 C378.525106,41.808 377.629106,43.312 375.997106,43.312 L375.997106,43.312 Z M389.725106,55.6 C392.413106,55.6 394.589106,53.712 394.589106,50.032 C394.589106,46.32 392.413106,44.432 389.725106,44.432 C387.037106,44.432 384.861106,46.32 384.861106,50.032 C384.861106,53.712 387.037106,55.6 389.725106,55.6 L389.725106,55.6 Z M389.725106,53.744 C388.093106,53.744 387.197106,52.24 387.197106,50.032 C387.197106,47.792 388.093106,46.288 389.725106,46.288 C391.357106,46.288 392.253106,47.792 392.253106,50.032 C392.253106,52.24 391.357106,53.744 389.725106,53.744 L389.725106,53.744 Z M375.037106,55.28 L377.469106,55.28 L390.653106,34.192 L388.221106,34.192 L375.037106,55.28 Z" id="75%" fill="#FFFFFF" sketch:type="MSShapeGroup"></path>
                <path d="M443.333106,54.64 C444.389106,55.152 446.053106,55.6 448.101106,55.6 C453.829106,55.6 456.325106,52.56 456.325106,48.784 C456.325106,46.032 454.853106,44.048 452.293106,43.12 C451.237106,42.736 449.957106,42.608 448.421106,42.608 L447.589106,42.608 L447.589106,36.528 L455.749106,36.528 L456.357106,34.192 L444.805106,34.192 L444.805106,44.912 L447.205106,44.912 C448.773106,44.912 449.989106,45.008 450.949106,45.36 C452.421106,45.936 453.349106,47.056 453.349106,48.88 C453.349106,51.76 451.045106,53.168 448.101106,53.168 C446.437106,53.168 445.157106,52.816 444.133106,52.336 L443.333106,54.64 Z M467.301106,55.6 C471.685106,55.6 474.597106,51.792 474.597106,44.816 C474.597106,37.808 471.685106,34 467.301106,34 C462.917106,34 460.005106,37.808 460.005106,44.816 C460.005106,51.792 462.917106,55.6 467.301106,55.6 L467.301106,55.6 Z M467.301106,53.168 C464.517106,53.168 463.013106,50.096 463.013106,44.816 C463.013106,39.504 464.517106,36.432 467.301106,36.432 C470.117106,36.432 471.621106,39.504 471.621106,44.816 C471.621106,50.096 470.085106,53.168 467.301106,53.168 L467.301106,53.168 Z M482.917106,45.168 C485.605106,45.168 487.781106,43.312 487.781106,39.6 C487.781106,35.888 485.605106,34 482.917106,34 C480.197106,34 478.053106,35.888 478.053106,39.6 C478.053106,43.312 480.197106,45.168 482.917106,45.168 L482.917106,45.168 Z M482.917106,43.312 C481.285106,43.312 480.389106,41.808 480.389106,39.6 C480.389106,37.392 481.285106,35.888 482.917106,35.888 C484.549106,35.888 485.445106,37.392 485.445106,39.6 C485.445106,41.808 484.549106,43.312 482.917106,43.312 L482.917106,43.312 Z M496.645106,55.6 C499.333106,55.6 501.509106,53.712 501.509106,50.032 C501.509106,46.32 499.333106,44.432 496.645106,44.432 C493.957106,44.432 491.781106,46.32 491.781106,50.032 C491.781106,53.712 493.957106,55.6 496.645106,55.6 L496.645106,55.6 Z M496.645106,53.744 C495.013106,53.744 494.117106,52.24 494.117106,50.032 C494.117106,47.792 495.013106,46.288 496.645106,46.288 C498.277106,46.288 499.173106,47.792 499.173106,50.032 C499.173106,52.24 498.277106,53.744 496.645106,53.744 L496.645106,53.744 Z M481.957106,55.28 L484.389106,55.28 L497.573106,34.192 L495.141106,34.192 L481.957106,55.28 Z" id="50%" fill="#FFFFFF" sketch:type="MSShapeGroup"></path>
                <path d="M550.333106,55.28 L563.773106,55.28 L563.773106,52.944 L553.885106,52.944 C555.133106,45.84 563.709106,45.616 563.709106,39.312 C563.709106,36.304 561.693106,34 557.437106,34 C554.845106,34 552.541106,34.864 551.069106,35.664 L551.869106,37.872 C553.213106,37.168 555.037106,36.432 557.117106,36.432 C559.037106,36.432 560.733106,37.296 560.733106,39.536 C560.733106,44.496 551.261106,44.304 550.333106,55.28 L550.333106,55.28 Z M567.037106,54.64 C568.093106,55.152 569.757106,55.6 571.805106,55.6 C577.533106,55.6 580.029106,52.56 580.029106,48.784 C580.029106,46.032 578.557106,44.048 575.997106,43.12 C574.941106,42.736 573.661106,42.608 572.125106,42.608 L571.293106,42.608 L571.293106,36.528 L579.453106,36.528 L580.061106,34.192 L568.509106,34.192 L568.509106,44.912 L570.909106,44.912 C572.477106,44.912 573.693106,45.008 574.653106,45.36 C576.125106,45.936 577.053106,47.056 577.053106,48.88 C577.053106,51.76 574.749106,53.168 571.805106,53.168 C570.141106,53.168 568.861106,52.816 567.837106,52.336 L567.037106,54.64 Z M588.765106,45.168 C591.453106,45.168 593.629106,43.312 593.629106,39.6 C593.629106,35.888 591.453106,34 588.765106,34 C586.045106,34 583.901106,35.888 583.901106,39.6 C583.901106,43.312 586.045106,45.168 588.765106,45.168 L588.765106,45.168 Z M588.765106,43.312 C587.133106,43.312 586.237106,41.808 586.237106,39.6 C586.237106,37.392 587.133106,35.888 588.765106,35.888 C590.397106,35.888 591.293106,37.392 591.293106,39.6 C591.293106,41.808 590.397106,43.312 588.765106,43.312 L588.765106,43.312 Z M602.493106,55.6 C605.181106,55.6 607.357106,53.712 607.357106,50.032 C607.357106,46.32 605.181106,44.432 602.493106,44.432 C599.805106,44.432 597.629106,46.32 597.629106,50.032 C597.629106,53.712 599.805106,55.6 602.493106,55.6 L602.493106,55.6 Z M602.493106,53.744 C600.861106,53.744 599.965106,52.24 599.965106,50.032 C599.965106,47.792 600.861106,46.288 602.493106,46.288 C604.125106,46.288 605.021106,47.792 605.021106,50.032 C605.021106,52.24 604.125106,53.744 602.493106,53.744 L602.493106,53.744 Z M587.805106,55.28 L590.237106,55.28 L603.421106,34.192 L600.989106,34.192 L587.805106,55.28 Z" id="25%" fill="#FFFFFF" sketch:type="MSShapeGroup"></path>
                <path d="M663.253106,55.28 L666.037106,55.28 L666.037106,34.032 L663.797106,34.032 L657.333106,37.168 L658.293106,39.408 L663.253106,37.04 L663.253106,55.28 Z M678.613106,55.6 C682.997106,55.6 685.909106,51.792 685.909106,44.816 C685.909106,37.808 682.997106,34 678.613106,34 C674.229106,34 671.317106,37.808 671.317106,44.816 C671.317106,51.792 674.229106,55.6 678.613106,55.6 L678.613106,55.6 Z M678.613106,53.168 C675.829106,53.168 674.325106,50.096 674.325106,44.816 C674.325106,39.504 675.829106,36.432 678.613106,36.432 C681.429106,36.432 682.933106,39.504 682.933106,44.816 C682.933106,50.096 681.397106,53.168 678.613106,53.168 L678.613106,53.168 Z M694.229106,45.168 C696.917106,45.168 699.093106,43.312 699.093106,39.6 C699.093106,35.888 696.917106,34 694.229106,34 C691.509106,34 689.365106,35.888 689.365106,39.6 C689.365106,43.312 691.509106,45.168 694.229106,45.168 L694.229106,45.168 Z M694.229106,43.312 C692.597106,43.312 691.701106,41.808 691.701106,39.6 C691.701106,37.392 692.597106,35.888 694.229106,35.888 C695.861106,35.888 696.757106,37.392 696.757106,39.6 C696.757106,41.808 695.861106,43.312 694.229106,43.312 L694.229106,43.312 Z M707.957106,55.6 C710.645106,55.6 712.821106,53.712 712.821106,50.032 C712.821106,46.32 710.645106,44.432 707.957106,44.432 C705.269106,44.432 703.093106,46.32 703.093106,50.032 C703.093106,53.712 705.269106,55.6 707.957106,55.6 L707.957106,55.6 Z M707.957106,53.744 C706.325106,53.744 705.429106,52.24 705.429106,50.032 C705.429106,47.792 706.325106,46.288 707.957106,46.288 C709.589106,46.288 710.485106,47.792 710.485106,50.032 C710.485106,52.24 709.589106,53.744 707.957106,53.744 L707.957106,53.744 Z M693.269106,55.28 L695.701106,55.28 L708.885106,34.192 L706.453106,34.192 L693.269106,55.28 Z" id="10%" fill="#1781A2" sketch:type="MSShapeGroup"></path>
            </g>
        </g>
    </g>
</svg>