<?xml version="1.0" encoding="UTF-8" standalone="no"?>
<svg width="900px" height="900px" viewBox="0 0 900 900" version="1.1" xmlns="http://www.w3.org/2000/svg" xmlns:xlink="http://www.w3.org/1999/xlink" xmlns:sketch="http://www.bohemiancoding.com/sketch/ns">
    <!-- Generator: Sketch 3.3.1 (12002) - http://www.bohemiancoding.com/sketch -->
    <title>cover</title>
    <desc>Created with Sketch.</desc>
    <defs></defs>
    <g id="Page-1" stroke="none" stroke-width="1" fill="none" fill-rule="evenodd" sketch:type="MSPage">
        <g id="Cover" sketch:type="MSArtboardGroup" transform="translate(-57.000000, -51.000000)">
            <g id="cover" sketch:type="MSLayerGroup" transform="translate(57.000000, 51.000000)">
                <rect id="Rectangle-243-Copy-5" fill="#1781A2" sketch:type="MSShapeGroup" x="0" y="0" width="900" height="900" rx="30"></rect>
                <path d="M280.935,806.895 L280.935,779.895 L188.595,779.895 L280.935,695.925 L280.935,656.505 L181.575,752.085 L92.475,663.525 L92.475,699.435 L175.365,779.895 L92.475,779.895 L92.475,806.895 L280.935,806.895 Z M280.935,627.345 L280.935,601.965 L143.235,601.965 L143.235,627.345 L280.935,627.345 Z M83.835,600.345 L83.835,628.965 L112.455,628.965 L112.455,600.345 L83.835,600.345 Z M280.935,555.525 L280.935,530.145 L217.215,530.145 C183.735,530.145 160.515,517.185 160.515,488.295 C161.865,466.155 177.525,459.135 209.655,459.135 L280.935,459.135 L280.935,433.755 L199.125,433.755 C162.135,433.755 139.995,449.685 139.995,485.325 C139.995,504.495 149.445,522.855 165.105,530.415 L165.105,530.955 L143.235,530.955 L143.235,555.525 L280.935,555.525 Z M143.235,268.785 L143.235,292.275 L163.755,292.275 L163.755,292.815 C148.905,300.375 139.995,313.875 139.995,338.175 C139.995,379.755 177.795,399.735 213.165,399.735 C248.805,399.735 280.935,380.295 280.935,340.875 C280.935,323.325 273.915,305.505 259.605,294.705 L259.605,294.165 L273.105,294.165 C302.265,294.165 320.355,310.095 320.355,336.825 C320.355,355.455 316.845,367.065 307.935,386.505 L331.425,389.205 C338.985,367.065 340.875,354.375 340.875,339.795 C340.875,290.385 316.845,268.785 274.995,268.785 L143.235,268.785 Z M260.415,334.395 C260.415,358.155 237.735,372.735 211.815,372.735 C188.325,372.735 160.515,360.045 160.515,334.395 C160.515,307.395 185.085,294.165 213.705,294.165 C239.355,294.165 260.415,310.635 260.415,334.395 L260.415,334.395 Z M158.625,233.145 L158.625,209.925 L92.475,186.165 L92.475,216.405 L158.625,233.145 Z M276.615,176.985 C282.825,165.375 284.175,152.145 284.175,139.185 C284.175,114.615 270.675,91.125 241.245,91.125 C197.235,91.125 205.335,150.795 177.255,150.795 C165.915,150.795 160.515,139.455 160.515,126.495 C160.515,120.555 164.025,105.435 167.535,99.765 L145.395,97.605 C142.425,107.595 139.995,117.315 139.995,129.195 C139.995,156.465 153.765,177.795 182.385,177.795 C220.995,177.795 218.835,118.125 243.945,118.125 C258.795,118.125 263.655,132.435 263.655,144.045 C263.655,151.335 260.415,165.645 253.935,175.635 L276.615,176.985 Z" id="King’s-Copy-5" fill="#FFFFFF" sketch:type="MSShapeGroup"></path>
            </g>
        </g>
    </g>
</svg>