<?xml version="1.0" encoding="UTF-8" standalone="no"?>
<svg width="120px" height="120px" viewBox="0 0 120 120" version="1.1" xmlns="http://www.w3.org/2000/svg" xmlns:xlink="http://www.w3.org/1999/xlink" xmlns:sketch="http://www.bohemiancoding.com/sketch/ns">
    <!-- Generator: Sketch 3.3.1 (12002) - http://www.bohemiancoding.com/sketch -->
    <title>fpo-media-3</title>
    <desc>Created with Sketch.</desc>
    <defs></defs>
    <g id="Page-1" stroke="none" stroke-width="1" fill="none" fill-rule="evenodd" sketch:type="MSPage">
        <g id="fpo-media" sketch:type="MSArtboardGroup" transform="translate(-57.000000, -350.000000)">
            <g id="fpo-media-3" sketch:type="MSLayerGroup" transform="translate(57.000000, 350.000000)">
                <rect id="Rectangle-243-Copy-5" fill="#BF0941" sketch:type="MSShapeGroup" x="0" y="0" width="120" height="120" rx="10"></rect>
                <path d="M37.4884834,107.673554 L37.4884834,104.070624 L25.1664639,104.070624 L37.4884834,92.8655127 L37.4884834,87.6052354 L24.2297021,100.359606 L12.3400342,88.5419971 L12.3400342,93.3338936 L23.4010283,104.070624 L12.3400342,104.070624 L12.3400342,107.673554 L37.4884834,107.673554 Z M37.4884834,83.7140713 L37.4884834,80.3273174 L19.113542,80.3273174 L19.113542,83.7140713 L37.4884834,83.7140713 Z M11.1870967,80.1111416 L11.1870967,83.9302471 L15.0062021,83.9302471 L15.0062021,80.1111416 L11.1870967,80.1111416 Z M37.4884834,74.1302783 L37.4884834,70.7435244 L28.9855693,70.7435244 C24.5179365,70.7435244 21.419417,69.0141182 21.419417,65.1589834 C21.5995635,62.2045811 23.6892627,61.2678193 27.976749,61.2678193 L37.4884834,61.2678193 L37.4884834,57.8810654 L26.5716064,57.8810654 C21.6355928,57.8810654 18.6811904,60.0067939 18.6811904,64.7626611 C18.6811904,67.3207412 19.9422158,69.7707334 22.031915,70.7795537 L22.031915,70.8516123 L19.113542,70.8516123 L19.113542,74.1302783 L37.4884834,74.1302783 Z M19.113542,35.867165 L19.113542,39.0017139 L21.8517686,39.0017139 L21.8517686,39.0737725 C19.8701572,40.0825928 18.6811904,41.8840576 18.6811904,45.1266943 C18.6811904,50.6752061 23.725292,53.341374 28.4451299,53.341374 C33.2009971,53.341374 37.4884834,50.7472646 37.4884834,45.4869873 C37.4884834,43.145083 36.5517217,40.7671494 34.6421689,39.3259775 L34.6421689,39.2539189 L36.4436338,39.2539189 C40.3347979,39.2539189 42.7487607,41.3796475 42.7487607,44.9465479 C42.7487607,47.4325693 42.2803799,48.9818291 41.0914131,51.5759385 L44.2259619,51.9362314 C45.2347822,48.9818291 45.4869873,47.2884521 45.4869873,45.3428701 C45.4869873,38.7495088 42.2803799,35.867165 36.6958389,35.867165 L19.113542,35.867165 Z M34.7502568,44.6222842 C34.7502568,47.7928623 31.7237959,49.7384443 28.2649834,49.7384443 C25.1304346,49.7384443 21.419417,48.0450674 21.419417,44.6222842 C21.419417,41.0193545 24.698083,39.2539189 28.5171885,39.2539189 C31.9399717,39.2539189 34.7502568,41.4517061 34.7502568,44.6222842 L34.7502568,44.6222842 Z M21.1672119,31.1112979 L21.1672119,28.0127783 L12.3400342,24.8422002 L12.3400342,28.8774814 L21.1672119,31.1112979 Z M36.9120146,23.6172041 C37.7406885,22.0679443 37.920835,20.3025088 37.920835,18.5731025 C37.920835,15.2944365 36.1193701,12.1598877 32.1921768,12.1598877 C26.3194014,12.1598877 27.4002803,20.1223623 23.6532334,20.1223623 C22.1400029,20.1223623 21.419417,18.6091318 21.419417,16.8797256 C21.419417,16.0870811 21.8877979,14.0694404 22.3561787,13.3128252 L19.4017764,13.0245908 C19.0054541,14.3576748 18.6811904,15.6547295 18.6811904,17.2400186 C18.6811904,20.8789775 20.5186846,23.725292 24.33779,23.725292 C29.4899795,23.725292 29.2017451,15.7628174 32.5524697,15.7628174 C34.5340811,15.7628174 35.1826084,17.6723701 35.1826084,19.2216299 C35.1826084,20.1944209 34.7502568,22.1039736 33.8855537,23.4370576 L36.9120146,23.6172041 Z" id="King’s-Copy-5" fill="#FFFFFF" sketch:type="MSShapeGroup"></path>
            </g>
        </g>
    </g>
</svg>