<?xml version="1.0" encoding="UTF-8" standalone="no"?>
<svg width="120px" height="120px" viewBox="0 0 120 120" version="1.1" xmlns="http://www.w3.org/2000/svg" xmlns:xlink="http://www.w3.org/1999/xlink" xmlns:sketch="http://www.bohemiancoding.com/sketch/ns">
    <!-- Generator: Sketch 3.3.1 (12002) - http://www.bohemiancoding.com/sketch -->
    <title>fpo-media-2</title>
    <desc>Created with Sketch.</desc>
    <defs></defs>
    <g id="Page-1" stroke="none" stroke-width="1" fill="none" fill-rule="evenodd" sketch:type="MSPage">
        <g id="fpo-media" sketch:type="MSArtboardGroup" transform="translate(-57.000000, -201.000000)">
            <g id="fpo-media-2" sketch:type="MSLayerGroup" transform="translate(57.000000, 201.000000)">
                <rect id="Rectangle-243-Copy-5" fill="#73B85B" sketch:type="MSShapeGroup" x="0" y="0" width="120" height="120" rx="10"></rect>
                <path d="M37.465316,107.607013 L37.465316,104.00631 L25.1509113,104.00631 L37.465316,92.808123 L37.465316,87.5510965 L24.2147285,100.297586 L12.3324082,88.4872793 L12.3324082,93.2762145 L23.3865668,104.00631 L12.3324082,104.00631 L12.3324082,107.607013 L37.465316,107.607013 Z M37.465316,83.6623371 L37.465316,80.2776762 L19.1017301,80.2776762 L19.1017301,83.6623371 L37.465316,83.6623371 Z M11.1801832,80.061634 L11.1801832,83.8783793 L14.9969285,83.8783793 L14.9969285,80.061634 L11.1801832,80.061634 Z M37.465316,74.0844668 L37.465316,70.6998059 L28.9676566,70.6998059 C24.5027848,70.6998059 21.4061801,68.9714684 21.4061801,65.118716 C21.5862152,62.1661395 23.674623,61.2299566 27.9594598,61.2299566 L37.465316,61.2299566 L37.465316,57.8452957 L26.5551855,57.8452957 C21.6222223,57.8452957 18.6696457,59.9697105 18.6696457,64.7226387 C18.6696457,67.2791379 19.9298918,69.727616 22.0182996,70.7358129 L22.0182996,70.807827 L19.1017301,70.807827 L19.1017301,74.0844668 L37.465316,74.0844668 Z M19.1017301,35.8449996 L19.1017301,38.9776113 L21.8382645,38.9776113 L21.8382645,39.0496254 C19.8578777,40.0578223 18.6696457,41.8581738 18.6696457,45.0988066 C18.6696457,50.6438895 23.7106301,53.3084098 28.4275512,53.3084098 C33.1804793,53.3084098 37.465316,50.7159035 37.465316,45.458877 C37.465316,43.1184199 36.5291332,40.7419559 34.6207605,39.3016746 L34.6207605,39.2296605 L36.4211121,39.2296605 C40.3098715,39.2296605 42.7223426,41.3540754 42.7223426,44.9187715 C42.7223426,47.4032566 42.2542512,48.951559 41.0660191,51.5440652 L44.1986309,51.9041355 C45.2068277,48.951559 45.458877,47.2592285 45.458877,45.3148488 C45.458877,38.7255621 42.2542512,35.8449996 36.6731613,35.8449996 L19.1017301,35.8449996 Z M34.7287816,44.5947082 C34.7287816,47.763327 31.704191,49.7077066 28.247516,49.7077066 C25.1149043,49.7077066 21.4061801,48.0153762 21.4061801,44.5947082 C21.4061801,40.9940051 24.6828199,39.2296605 28.4995652,39.2296605 C31.9202332,39.2296605 34.7287816,41.4260895 34.7287816,44.5947082 L34.7287816,44.5947082 Z M21.1541309,31.0920715 L21.1541309,27.9954668 L12.3324082,24.826848 L12.3324082,28.8596355 L21.1541309,31.0920715 Z M36.8892035,23.602609 C37.7173652,22.0543066 37.8974004,20.2899621 37.8974004,18.5616246 C37.8974004,15.2849848 36.0970488,12.152373 32.1722824,12.152373 C26.3031363,12.152373 27.3833473,20.109927 23.638616,20.109927 C22.1263207,20.109927 21.4061801,18.5976316 21.4061801,16.8692941 C21.4061801,16.0771395 21.8742715,14.0607457 22.3423629,13.304598 L19.3897863,13.0165418 C18.993709,14.348802 18.6696457,15.6450551 18.6696457,17.2293645 C18.6696457,20.8660746 20.5060043,23.7106301 24.3227496,23.7106301 C29.4717551,23.7106301 29.1836988,15.7530762 32.5323527,15.7530762 C34.5127395,15.7530762 35.160866,17.6614488 35.160866,19.2097512 C35.160866,20.181941 34.7287816,22.0903137 33.8646129,23.4225738 L36.8892035,23.602609 Z" id="King’s-Copy-5" fill="#FFFFFF" sketch:type="MSShapeGroup"></path>
            </g>
        </g>
    </g>
</svg>