<?xml version="1.0" encoding="UTF-8" standalone="no"?>
<svg width="120px" height="120px" viewBox="0 0 120 120" version="1.1" xmlns="http://www.w3.org/2000/svg" xmlns:xlink="http://www.w3.org/1999/xlink" xmlns:sketch="http://www.bohemiancoding.com/sketch/ns">
    <!-- Generator: Sketch 3.3.1 (12002) - http://www.bohemiancoding.com/sketch -->
    <title>fpo-media-1</title>
    <desc>Created with Sketch.</desc>
    <defs></defs>
    <g id="Page-1" stroke="none" stroke-width="1" fill="none" fill-rule="evenodd" sketch:type="MSPage">
        <g id="fpo-media" sketch:type="MSArtboardGroup" transform="translate(-57.000000, -51.000000)">
            <g id="fpo-media-1" sketch:type="MSLayerGroup" transform="translate(57.000000, 51.000000)">
                <rect id="Rectangle-243-Copy-5" fill="#1781A2" sketch:type="MSShapeGroup" x="0" y="0" width="120" height="120" rx="10"></rect>
                <path d="M37.458,107.586 L37.458,103.986 L25.146,103.986 L37.458,92.79 L37.458,87.534 L24.21,100.278 L12.33,88.47 L12.33,93.258 L23.382,103.986 L12.33,103.986 L12.33,107.586 L37.458,107.586 Z M37.458,83.646 L37.458,80.262 L19.098,80.262 L19.098,83.646 L37.458,83.646 Z M11.178,80.046 L11.178,83.862 L14.994,83.862 L14.994,80.046 L11.178,80.046 Z M37.458,74.07 L37.458,70.686 L28.962,70.686 C24.498,70.686 21.402,68.958 21.402,65.106 C21.582,62.154 23.67,61.218 27.954,61.218 L37.458,61.218 L37.458,57.834 L26.55,57.834 C21.618,57.834 18.666,59.958 18.666,64.71 C18.666,67.266 19.926,69.714 22.014,70.722 L22.014,70.794 L19.098,70.794 L19.098,74.07 L37.458,74.07 Z M19.098,35.838 L19.098,38.97 L21.834,38.97 L21.834,39.042 C19.854,40.05 18.666,41.85 18.666,45.09 C18.666,50.634 23.706,53.298 28.422,53.298 C33.174,53.298 37.458,50.706 37.458,45.45 C37.458,43.11 36.522,40.734 34.614,39.294 L34.614,39.222 L36.414,39.222 C40.302,39.222 42.714,41.346 42.714,44.91 C42.714,47.394 42.246,48.942 41.058,51.534 L44.19,51.894 C45.198,48.942 45.45,47.25 45.45,45.306 C45.45,38.718 42.246,35.838 36.666,35.838 L19.098,35.838 Z M34.722,44.586 C34.722,47.754 31.698,49.698 28.242,49.698 C25.11,49.698 21.402,48.006 21.402,44.586 C21.402,40.986 24.678,39.222 28.494,39.222 C31.914,39.222 34.722,41.418 34.722,44.586 L34.722,44.586 Z M21.15,31.086 L21.15,27.99 L12.33,24.822 L12.33,28.854 L21.15,31.086 Z M36.882,23.598 C37.71,22.05 37.89,20.286 37.89,18.558 C37.89,15.282 36.09,12.15 32.166,12.15 C26.298,12.15 27.378,20.106 23.634,20.106 C22.122,20.106 21.402,18.594 21.402,16.866 C21.402,16.074 21.87,14.058 22.338,13.302 L19.386,13.014 C18.99,14.346 18.666,15.642 18.666,17.226 C18.666,20.862 20.502,23.706 24.318,23.706 C29.466,23.706 29.178,15.75 32.526,15.75 C34.506,15.75 35.154,17.658 35.154,19.206 C35.154,20.178 34.722,22.086 33.858,23.418 L36.882,23.598 Z" id="King’s-Copy-5" fill="#FFFFFF" sketch:type="MSShapeGroup"></path>
            </g>
        </g>
    </g>
</svg>