<?xml version="1.0" encoding="UTF-8" standalone="no"?>
<svg width="400px" height="400px" viewBox="0 0 400 400" version="1.1" xmlns="http://www.w3.org/2000/svg" xmlns:xlink="http://www.w3.org/1999/xlink" xmlns:sketch="http://www.bohemiancoding.com/sketch/ns">
    <!-- Generator: Sketch 3.3.1 (12002) - http://www.bohemiancoding.com/sketch -->
    <title>logo-index</title>
    <desc>Created with Sketch.</desc>
    <defs></defs>
    <g id="Page-1" stroke="none" stroke-width="1" fill="none" fill-rule="evenodd" sketch:type="MSPage">
        <g id="logo-index" sketch:type="MSArtboardGroup" transform="translate(-146.000000, -143.000000)">
            <g sketch:type="MSLayerGroup" transform="translate(146.000000, 143.000000)">
                <rect id="Rectangle-243-Copy-5" fill="#1781A2" sketch:type="MSShapeGroup" x="0" y="0" width="400" height="400" rx="15"></rect>
                <path d="M124.772208,358.367845 L124.772208,346.376283 L83.7610641,346.376283 L124.772208,309.082523 L124.772208,291.574842 L80.6432578,334.024973 L41.0711016,294.692648 L41.0711016,310.641427 L77.8851984,346.376283 L41.0711016,346.376283 L41.0711016,358.367845 L124.772208,358.367845 Z M124.772208,278.623955 L124.772208,267.351886 L63.6152391,267.351886 L63.6152391,278.623955 L124.772208,278.623955 Z M37.2338016,266.632392 L37.2338016,279.343448 L49.9448578,279.343448 L49.9448578,266.632392 L37.2338016,266.632392 Z M124.772208,246.726398 L124.772208,235.45433 L96.4721203,235.45433 C81.6025828,235.45433 71.2898391,229.69838 71.2898391,216.867408 C71.8894172,207.034327 78.8445234,203.91652 93.1144828,203.91652 L124.772208,203.91652 L124.772208,192.644452 L88.4377734,192.644452 C72.0093328,192.644452 62.1762516,199.719473 62.1762516,215.548336 C62.1762516,224.062345 66.3732984,232.216608 73.3284047,235.574245 L73.3284047,235.814077 L63.6152391,235.814077 L63.6152391,246.726398 L124.772208,246.726398 Z M63.6152391,119.376005 L63.6152391,129.808664 L72.7288266,129.808664 L72.7288266,130.048495 C66.1334672,133.406133 62.1762516,139.401914 62.1762516,150.19432 C62.1762516,168.661327 78.9644391,177.535083 94.6733859,177.535083 C110.502248,177.535083 124.772208,168.901158 124.772208,151.393477 C124.772208,143.598961 121.654402,135.68453 115.298873,130.887905 L115.298873,130.648073 L121.294655,130.648073 C134.245542,130.648073 142.279889,137.723095 142.279889,149.594742 C142.279889,157.86892 140.720986,163.025292 136.76377,171.659217 L147.19643,172.858373 C150.554067,163.025292 151.393477,157.389258 151.393477,150.913814 C151.393477,128.969255 140.720986,119.376005 122.134064,119.376005 L63.6152391,119.376005 Z M115.65862,148.515502 C115.65862,159.068077 105.585708,165.54352 94.0738078,165.54352 C83.6411484,165.54352 71.2898391,159.907486 71.2898391,148.515502 C71.2898391,136.523939 82.2021609,130.648073 94.9132172,130.648073 C106.305202,130.648073 115.65862,137.962927 115.65862,148.515502 L115.65862,148.515502 Z M70.4504297,103.547142 L70.4504297,93.2343984 L41.0711016,82.6818234 L41.0711016,96.1123734 L70.4504297,103.547142 Z M122.853558,78.6046922 C125.611617,73.4483203 126.211195,67.5724547 126.211195,61.8165047 C126.211195,50.9041828 120.215414,40.4715234 107.144611,40.4715234 C87.5983641,40.4715234 91.1958328,66.9728766 78.7246078,66.9728766 C73.6881516,66.9728766 71.2898391,61.9364203 71.2898391,56.1804703 C71.2898391,53.5423266 72.8487422,46.8270516 74.4076453,44.3088234 L64.5745641,43.3494984 C63.2554922,47.7863766 62.1762516,52.1033391 62.1762516,57.3796266 C62.1762516,69.4911047 68.2919484,78.9644391 81.0030047,78.9644391 C98.1509391,78.9644391 97.1916141,52.4630859 108.343767,52.4630859 C114.939127,52.4630859 117.097608,58.8186141 117.097608,63.9749859 C117.097608,67.2127078 115.65862,73.5682359 112.780645,78.0051141 L122.853558,78.6046922 Z" id="King’s-Copy-5" fill="#FFFFFF" sketch:type="MSShapeGroup"></path>
            </g>
        </g>
    </g>
</svg>